<svg width="16" height="20" viewBox="0 0 16 20" fill="none" xmlns="http://www.w3.org/2000/svg">
<path fill-rule="evenodd" clip-rule="evenodd" d="M5 9C4.44772 9 4 9.44772 4 10C4 10.5523 4.44772 11 5 11H11C11.5523 11 12 10.5523 12 10C12 9.44772 11.5523 9 11 9H5ZM5 12C4.44772 12 4 12.4477 4 13C4 13.5523 4.44772 14 5 14H11C11.5523 14 12 13.5523 12 13C12 12.4477 11.5523 12 11 12H5ZM8.48197 -0.000105733C9.16078 -0.00114822 9.76322 -0.00207353 10.3196 0.228397C10.876 0.458868 11.3014 0.885515 11.7806 1.36624C12.7302 2.31875 13.6813 3.26983 14.6338 4.21942C15.1145 4.69867 15.5412 5.12401 15.7716 5.68041C16.0021 6.23682 16.0012 6.83926 16.0001 7.51807C15.9963 10.034 16 12.5499 16 15.0659C16.0001 15.9524 16.0001 16.7162 15.9179 17.3278C15.8297 17.9833 15.631 18.6117 15.1213 19.1214C14.6117 19.631 13.9833 19.8298 13.3278 19.9179C12.7161 20.0001 11.9523 20.0001 11.0658 20H4.9342C4.0477 20.0001 3.28388 20.0001 2.67221 19.9179C2.0167 19.8298 1.38835 19.631 0.878684 19.1214C0.369022 18.6117 0.170277 17.9833 0.0821453 17.3278C-9.0301e-05 16.7162 -4.73894e-05 15.9524 2.44012e-06 15.0659L5.30115e-06 5.00004C5.30115e-06 4.97802 4.10905e-06 4.95607 2.91696e-06 4.93421C-4.67933e-05 4.04772 -8.95858e-05 3.28391 0.0821459 2.67224C0.170278 2.01673 0.369023 1.38838 0.878685 0.878716C1.38835 0.369053 2.0167 0.170308 2.67221 0.0821764C3.28387 -5.91204e-05 4.04769 -1.63261e-05 4.93418 3.35034e-05C6.11677 9.79675e-05 7.29938 0.00171169 8.48197 -0.000105733Z" fill="#fff"/>
</svg>
