<svg width="414" height="374" viewBox="0 0 414 374" fill="none" xmlns="http://www.w3.org/2000/svg">
<mask id="path-1-inside-1_302_9" fill="white">
<path fill-rule="evenodd" clip-rule="evenodd" d="M66.5763 0C29.8072 0 0 29.8072 0 66.5763V145.522V153.369V266.478C0 303.764 0 322.407 7.25639 336.649C13.6393 349.176 23.8242 359.361 36.3513 365.744C50.5928 373 69.2359 373 106.522 373H306.478C343.764 373 362.407 373 376.649 365.744C389.176 359.361 399.361 349.176 405.744 336.649C413 322.407 413 303.764 413 266.478V145.522C413 108.236 413 89.5928 405.744 75.3513C399.361 62.8242 389.176 52.6393 376.649 46.2564C362.407 39 343.764 39 306.478 39H261.793C227.43 39 194.417 0 160.054 0V0H66.5763Z"/>
</mask>
<path fill-rule="evenodd" clip-rule="evenodd" d="M66.5763 0C29.8072 0 0 29.8072 0 66.5763V145.522V153.369V266.478C0 303.764 0 322.407 7.25639 336.649C13.6393 349.176 23.8242 359.361 36.3513 365.744C50.5928 373 69.2359 373 106.522 373H306.478C343.764 373 362.407 373 376.649 365.744C389.176 359.361 399.361 349.176 405.744 336.649C413 322.407 413 303.764 413 266.478V145.522C413 108.236 413 89.5928 405.744 75.3513C399.361 62.8242 389.176 52.6393 376.649 46.2564C362.407 39 343.764 39 306.478 39H261.793C227.43 39 194.417 0 160.054 0V0H66.5763Z" fill="#D9D9D9"/>
<path fill-rule="evenodd" clip-rule="evenodd" d="M66.5763 0C29.8072 0 0 29.8072 0 66.5763V145.522V153.369V266.478C0 303.764 0 322.407 7.25639 336.649C13.6393 349.176 23.8242 359.361 36.3513 365.744C50.5928 373 69.2359 373 106.522 373H306.478C343.764 373 362.407 373 376.649 365.744C389.176 359.361 399.361 349.176 405.744 336.649C413 322.407 413 303.764 413 266.478V145.522C413 108.236 413 89.5928 405.744 75.3513C399.361 62.8242 389.176 52.6393 376.649 46.2564C362.407 39 343.764 39 306.478 39H261.793C227.43 39 194.417 0 160.054 0V0H66.5763Z" fill="url(#paint0_radial_302_9)"/>
<path d="M7.25639 336.649L9.62918 335.44L9.62918 335.44L7.25639 336.649ZM36.3513 365.744L35.1423 368.116L35.1423 368.116L36.3513 365.744ZM376.649 365.744L377.858 368.116L377.858 368.116L376.649 365.744ZM405.744 336.649L408.116 337.858L408.116 337.858L405.744 336.649ZM405.744 75.3513L408.116 74.1423L408.116 74.1423L405.744 75.3513ZM376.649 46.2564L375.44 48.6292L375.44 48.6292L376.649 46.2564ZM2.66305 66.5763C2.66305 31.278 31.278 2.66305 66.5763 2.66305V-2.66305C28.3365 -2.66305 -2.66305 28.3365 -2.66305 66.5763H2.66305ZM2.66305 145.522V66.5763H-2.66305V145.522H2.66305ZM2.66305 153.369V145.522H-2.66305V153.369H2.66305ZM2.66305 266.478V153.369H-2.66305V266.478H2.66305ZM9.62918 335.44C6.22416 328.757 4.45485 320.925 3.56126 309.988C2.66512 299.02 2.66305 285.165 2.66305 266.478H-2.66305C-2.66305 285.077 -2.66512 299.187 -1.74716 310.422C-0.826657 321.688 1.03223 330.299 4.88359 337.858L9.62918 335.44ZM37.5603 363.371C25.5343 357.243 15.7568 347.466 9.62918 335.44L4.88359 337.858C11.5218 350.886 22.1141 361.478 35.1423 368.116L37.5603 363.371ZM106.522 370.337C87.8351 370.337 73.9799 370.335 63.0118 369.439C52.0747 368.545 44.243 366.776 37.5603 363.371L35.1423 368.116C42.701 371.968 51.3116 373.827 62.5781 374.747C73.8134 375.665 87.9229 375.663 106.522 375.663V370.337ZM306.478 370.337H106.522V375.663H306.478V370.337ZM375.44 363.371C368.757 366.776 360.925 368.545 349.988 369.439C339.02 370.335 325.165 370.337 306.478 370.337V375.663C325.077 375.663 339.187 375.665 350.422 374.747C361.688 373.827 370.299 371.968 377.858 368.116L375.44 363.371ZM403.371 335.44C397.243 347.466 387.466 357.243 375.44 363.371L377.858 368.116C390.886 361.478 401.478 350.886 408.116 337.858L403.371 335.44ZM410.337 266.478C410.337 285.165 410.335 299.02 409.439 309.988C408.545 320.925 406.776 328.757 403.371 335.44L408.116 337.858C411.968 330.299 413.827 321.688 414.747 310.422C415.665 299.187 415.663 285.077 415.663 266.478H410.337ZM410.337 145.522V266.478H415.663V145.522H410.337ZM403.371 76.5603C406.776 83.243 408.545 91.0747 409.439 102.012C410.335 112.98 410.337 126.835 410.337 145.522H415.663C415.663 126.923 415.665 112.813 414.747 101.578C413.827 90.3116 411.968 81.701 408.116 74.1423L403.371 76.5603ZM375.44 48.6292C387.466 54.7568 397.243 64.5343 403.371 76.5603L408.116 74.1423C401.478 61.1141 390.886 50.5218 377.858 43.8836L375.44 48.6292ZM306.478 41.6631C325.165 41.6631 339.02 41.6651 349.988 42.5613C360.925 43.4548 368.757 45.2242 375.44 48.6292L377.858 43.8836C370.299 40.0322 361.688 38.1733 350.422 37.2528C339.187 36.3349 325.077 36.3369 306.478 36.3369V41.6631ZM261.793 41.6631H306.478V36.3369H261.793V41.6631ZM66.5763 2.66305H160.054V-2.66305H66.5763V2.66305ZM261.793 36.3369C245.468 36.3369 229.282 27.0498 212.258 17.1952C195.594 7.54976 178.092 -2.66305 160.054 -2.66305V2.66305C176.379 2.66305 192.565 11.9502 209.589 21.8048C226.253 31.4502 243.754 41.6631 261.793 41.6631V36.3369Z" fill="url(#paint1_linear_302_9)" mask="url(#path-1-inside-1_302_9)"/>
<path d="M7.25639 336.649L9.62918 335.44L9.62918 335.44L7.25639 336.649ZM36.3513 365.744L35.1423 368.116L35.1423 368.116L36.3513 365.744ZM376.649 365.744L377.858 368.116L377.858 368.116L376.649 365.744ZM405.744 336.649L408.116 337.858L408.116 337.858L405.744 336.649ZM405.744 75.3513L408.116 74.1423L408.116 74.1423L405.744 75.3513ZM376.649 46.2564L375.44 48.6292L375.44 48.6292L376.649 46.2564ZM2.66305 66.5763C2.66305 31.278 31.278 2.66305 66.5763 2.66305V-2.66305C28.3365 -2.66305 -2.66305 28.3365 -2.66305 66.5763H2.66305ZM2.66305 145.522V66.5763H-2.66305V145.522H2.66305ZM2.66305 153.369V145.522H-2.66305V153.369H2.66305ZM2.66305 266.478V153.369H-2.66305V266.478H2.66305ZM9.62918 335.44C6.22416 328.757 4.45485 320.925 3.56126 309.988C2.66512 299.02 2.66305 285.165 2.66305 266.478H-2.66305C-2.66305 285.077 -2.66512 299.187 -1.74716 310.422C-0.826657 321.688 1.03223 330.299 4.88359 337.858L9.62918 335.44ZM37.5603 363.371C25.5343 357.243 15.7568 347.466 9.62918 335.44L4.88359 337.858C11.5218 350.886 22.1141 361.478 35.1423 368.116L37.5603 363.371ZM106.522 370.337C87.8351 370.337 73.9799 370.335 63.0118 369.439C52.0747 368.545 44.243 366.776 37.5603 363.371L35.1423 368.116C42.701 371.968 51.3116 373.827 62.5781 374.747C73.8134 375.665 87.9229 375.663 106.522 375.663V370.337ZM306.478 370.337H106.522V375.663H306.478V370.337ZM375.44 363.371C368.757 366.776 360.925 368.545 349.988 369.439C339.02 370.335 325.165 370.337 306.478 370.337V375.663C325.077 375.663 339.187 375.665 350.422 374.747C361.688 373.827 370.299 371.968 377.858 368.116L375.44 363.371ZM403.371 335.44C397.243 347.466 387.466 357.243 375.44 363.371L377.858 368.116C390.886 361.478 401.478 350.886 408.116 337.858L403.371 335.44ZM410.337 266.478C410.337 285.165 410.335 299.02 409.439 309.988C408.545 320.925 406.776 328.757 403.371 335.44L408.116 337.858C411.968 330.299 413.827 321.688 414.747 310.422C415.665 299.187 415.663 285.077 415.663 266.478H410.337ZM410.337 145.522V266.478H415.663V145.522H410.337ZM403.371 76.5603C406.776 83.243 408.545 91.0747 409.439 102.012C410.335 112.98 410.337 126.835 410.337 145.522H415.663C415.663 126.923 415.665 112.813 414.747 101.578C413.827 90.3116 411.968 81.701 408.116 74.1423L403.371 76.5603ZM375.44 48.6292C387.466 54.7568 397.243 64.5343 403.371 76.5603L408.116 74.1423C401.478 61.1141 390.886 50.5218 377.858 43.8836L375.44 48.6292ZM306.478 41.6631C325.165 41.6631 339.02 41.6651 349.988 42.5613C360.925 43.4548 368.757 45.2242 375.44 48.6292L377.858 43.8836C370.299 40.0322 361.688 38.1733 350.422 37.2528C339.187 36.3349 325.077 36.3369 306.478 36.3369V41.6631ZM261.793 41.6631H306.478V36.3369H261.793V41.6631ZM66.5763 2.66305H160.054V-2.66305H66.5763V2.66305ZM261.793 36.3369C245.468 36.3369 229.282 27.0498 212.258 17.1952C195.594 7.54976 178.092 -2.66305 160.054 -2.66305V2.66305C176.379 2.66305 192.565 11.9502 209.589 21.8048C226.253 31.4502 243.754 41.6631 261.793 41.6631V36.3369Z" fill="url(#paint2_linear_302_9)" mask="url(#path-1-inside-1_302_9)"/>
<path d="M0.00116616 200.001C0.00116616 162.664 -0.259206 143.262 7.00117 129.001C13.3876 116.457 23.4671 106.393 36.0012 100.001C50.2504 92.735 69.6944 93.0012 107.001 93.0012H306.001C343.308 93.0012 362.752 92.735 377.001 100.001C389.535 106.393 399.615 116.457 406.001 129.001C413.262 143.262 413.001 162.664 413.001 200.001V266.001C413.001 303.338 413.262 322.74 406.001 337.001C399.615 349.545 389.535 359.61 377.001 366.001C362.752 373.267 343.308 373.001 306.001 373.001H107.001C69.6944 373.001 50.2504 373.267 36.0012 366.001C23.4671 359.61 13.3876 349.545 7.00117 337.001C-0.259206 322.74 0.00116616 303.338 0.00116616 266.001V200.001Z" fill="url(#paint3_radial_302_9)"/>
<path d="M107.001 94.3328H306.001C307.288 94.3328 308.553 94.3325 309.796 94.3322C326.613 94.328 339.58 94.3248 350.049 95.1043C361.281 95.9405 369.501 97.6711 376.396 101.187C388.681 107.452 398.556 117.313 404.815 129.605C408.328 136.507 410.059 144.72 410.896 155.947C411.677 166.427 411.674 179.414 411.67 196.28C411.67 197.5 411.67 198.74 411.67 200.001V266.001C411.67 267.262 411.67 268.503 411.67 269.723C411.674 286.588 411.677 299.576 410.896 310.056C410.059 321.282 408.328 329.495 404.815 336.397C398.556 348.69 388.681 358.551 376.396 364.815C369.501 368.331 361.281 370.062 350.049 370.898C339.58 371.678 326.612 371.674 309.796 371.67C308.552 371.67 307.287 371.67 306.001 371.67H107.001C105.715 371.67 104.45 371.67 103.207 371.67C86.3898 371.674 73.4225 371.678 62.9535 370.898C51.7215 370.062 43.5017 368.331 36.6061 364.815C24.3217 358.551 14.4461 348.69 8.18776 336.397C4.67382 329.495 2.94331 321.282 2.10637 310.056C1.32509 299.576 1.32814 286.588 1.33211 269.723C1.3324 268.503 1.33269 267.263 1.33269 266.001V200.001C1.33269 198.74 1.3324 197.499 1.33211 196.279C1.32814 179.414 1.32509 166.426 2.10637 155.947C2.94331 144.72 4.67382 136.507 8.18776 129.605C14.4461 117.313 24.3217 107.452 36.6061 101.187C43.5017 97.6711 51.7215 95.9405 62.9535 95.1043C73.4223 94.3248 86.3895 94.328 103.206 94.3322C104.45 94.3325 105.715 94.3328 107.001 94.3328Z" stroke="url(#paint4_linear_302_9)" stroke-width="2.66305"/>
<defs>
<radialGradient id="paint0_radial_302_9" cx="0" cy="0" r="1" gradientUnits="userSpaceOnUse" gradientTransform="translate(413 373.414) rotate(-135.976) scale(555.844 593.833)">
<stop stop-color="#0068E7"/>
<stop offset="1" stop-color="#158DEF"/>
</radialGradient>
<linearGradient id="paint1_linear_302_9" x1="0" y1="0" x2="399.156" y2="406.328" gradientUnits="userSpaceOnUse">
<stop offset="0.508799" stop-color="#85BFF8"/>
<stop offset="1" stop-color="#1050A9"/>
</linearGradient>
<linearGradient id="paint2_linear_302_9" x1="0" y1="0" x2="461.525" y2="318.701" gradientUnits="userSpaceOnUse">
<stop offset="0.228092" stop-color="#85BFF8"/>
<stop offset="0.99027" stop-color="#0567E4"/>
</linearGradient>
<radialGradient id="paint3_radial_302_9" cx="0" cy="0" r="1" gradientUnits="userSpaceOnUse" gradientTransform="translate(413.002 373.002) rotate(-145.864) scale(498.971 618.429)">
<stop stop-color="#0164E3"/>
<stop offset="1" stop-color="#3394F0"/>
<stop offset="1" stop-color="#3394F0"/>
</radialGradient>
<linearGradient id="paint4_linear_302_9" x1="0" y1="93" x2="368.817" y2="432.649" gradientUnits="userSpaceOnUse">
<stop offset="0.228092" stop-color="#85BFF8"/>
<stop offset="0.946844" stop-color="#0567E4"/>
</linearGradient>
</defs>
</svg>
