<svg width="100" height="125" viewBox="0 0 100 125" fill="none" xmlns="http://www.w3.org/2000/svg">
<path fill-rule="evenodd" clip-rule="evenodd" d="M53.0114 0.000865032C57.2538 -0.00565038 61.0191 -0.0114335 64.4965 1.42898C67.974 2.8694 70.6323 5.53589 73.6276 8.54038C79.5624 14.4935 85.5065 20.4376 91.4596 26.3724C94.4641 29.3677 97.1306 32.026 98.571 35.5035C100.011 38.9809 100.006 42.7462 99.9991 46.9886C99.975 62.7129 99.9982 78.4373 99.9983 94.1615C99.9986 99.702 99.9988 104.476 99.4849 108.299C98.9341 112.395 97.6919 116.323 94.5066 119.508C91.3213 122.693 87.3941 123.935 83.2972 124.486C79.4744 125 74.7006 125 69.1601 125H30.8382C25.2977 125 20.5239 125 16.701 124.486C12.6041 123.935 8.67701 122.693 5.49168 119.508C2.30635 116.323 1.06421 112.395 0.513399 108.299C-0.000564337 104.476 -0.000296178 99.7019 1.52505e-05 94.1615L3.31315e-05 31.2512C3.31315e-05 31.1136 2.56811e-05 30.9764 1.82306e-05 30.8398C-0.000292453 25.2993 -0.000559926 20.5256 0.513403 16.7028C1.06422 12.6059 2.30635 8.67873 5.49168 5.4934C8.67702 2.30807 12.6041 1.06593 16.701 0.515119C20.5238 0.00115639 25.2976 0.00142382 30.838 0.00173524C38.2291 0.00213814 45.6203 0.0122238 53.0114 0.000865032Z" fill="white"/>
<path d="M60 59.5H52.5V73.25C52.5 74.9076 51.8415 76.4973 50.6694 77.6694C49.4973 78.8415 47.9076 79.5 46.25 79.5C44.5924 79.5 43.0027 78.8415 41.8306 77.6694C40.6585 76.4973 40 74.9076 40 73.25C40 71.5924 40.6585 70.0027 41.8306 68.8306C43.0027 67.6585 44.5924 67 46.25 67C47.675 67 48.95 67.475 50 68.25V54.5H60M67.5 44.5H32.5C31.1739 44.5 29.9021 45.0268 28.9645 45.9645C28.0268 46.9021 27.5 48.1739 27.5 49.5V84.5C27.5 85.8261 28.0268 87.0979 28.9645 88.0355C29.9021 88.9732 31.1739 89.5 32.5 89.5H67.5C68.8261 89.5 70.0979 88.9732 71.0355 88.0355C71.9732 87.0979 72.5 85.8261 72.5 84.5V49.5C72.5 48.1739 71.9732 46.9021 71.0355 45.9645C70.0979 45.0268 68.8261 44.5 67.5 44.5Z" fill="#007ACC"/>
</svg>
