<svg width="100" height="125" viewBox="0 0 100 125" fill="none" xmlns="http://www.w3.org/2000/svg">
<path fill-rule="evenodd" clip-rule="evenodd" d="M53.0114 0.000865032C57.2538 -0.00565038 61.0191 -0.0114335 64.4965 1.42898C67.974 2.8694 70.6323 5.53589 73.6276 8.54038C79.5624 14.4935 85.5065 20.4376 91.4596 26.3724C94.4641 29.3677 97.1306 32.026 98.571 35.5035C100.011 38.9809 100.006 42.7462 99.9991 46.9886C99.975 62.7129 99.9982 78.4373 99.9983 94.1615C99.9986 99.702 99.9988 104.476 99.4849 108.299C98.9341 112.395 97.6919 116.323 94.5066 119.508C91.3213 122.693 87.3941 123.935 83.2972 124.486C79.4744 125 74.7006 125 69.1601 125H30.8382C25.2977 125 20.5239 125 16.701 124.486C12.6041 123.935 8.67701 122.693 5.49168 119.508C2.30635 116.323 1.06421 112.395 0.513399 108.299C-0.000564337 104.476 -0.000296178 99.7019 1.52505e-05 94.1615L3.31315e-05 31.2512C3.31315e-05 31.1136 2.56811e-05 30.9764 1.82306e-05 30.8398C-0.000292453 25.2993 -0.000559926 20.5256 0.513403 16.7028C1.06422 12.6059 2.30635 8.67873 5.49168 5.4934C8.67702 2.30807 12.6041 1.06593 16.701 0.515119C20.5238 0.00115639 25.2976 0.00142382 30.838 0.00173524C38.2291 0.00213814 45.6203 0.0122238 53.0114 0.000865032Z" fill="white"/>
<path d="M32 46C30.4087 46 28.8826 46.6321 27.7574 47.7574C26.6321 48.8826 26 50.4087 26 52V76C26 77.5913 26.6321 79.1174 27.7574 80.2426C28.8826 81.3679 30.4087 82 32 82H54.5V79.987C54.2432 79.6691 54.001 79.3398 53.774 79H32C31.2044 79 30.4413 78.6839 29.8787 78.1213C29.3161 77.5587 29 76.7956 29 76V52C29 51.2044 29.3161 50.4413 29.8787 49.8787C30.4413 49.3161 31.2044 49 32 49H68C68.7956 49 69.5587 49.3161 70.1213 49.8787C70.6839 50.4413 71 51.2044 71 52V59.404C72.092 59.944 73.1 60.634 74 61.438V52C74 50.4087 73.3679 48.8826 72.2426 47.7574C71.1174 46.6321 69.5913 46 68 46H32ZM75.5 71.5C75.5 74.2848 74.3938 76.9555 72.4246 78.9246C70.4555 80.8938 67.7848 82 65 82C62.2152 82 59.5445 80.8938 57.5754 78.9246C55.6062 76.9555 54.5 74.2848 54.5 71.5C54.5 68.7152 55.6062 66.0445 57.5754 64.0754C59.5445 62.1062 62.2152 61 65 61C67.7848 61 70.4555 62.1062 72.4246 64.0754C74.3938 66.0445 75.5 68.7152 75.5 71.5ZM65 85C67.775 85 70.355 84.16 72.5 82.726V91C72.5 91.2786 72.4224 91.5516 72.276 91.7886C72.1295 92.0256 71.92 92.2171 71.6708 92.3416C71.4217 92.4662 71.1427 92.519 70.8653 92.4939C70.5878 92.4689 70.3229 92.3671 70.1 92.2L65.9 89.05C65.6404 88.8553 65.3246 88.75 65 88.75C64.6754 88.75 64.3596 88.8553 64.1 89.05L59.9 92.2C59.6771 92.3671 59.4122 92.4689 59.1347 92.4939C58.8573 92.519 58.5783 92.4662 58.3292 92.3416C58.08 92.2171 57.8705 92.0256 57.724 91.7886C57.5776 91.5516 57.5 91.2786 57.5 91V82.726C59.7184 84.2126 62.3296 85.0043 65 85ZM35 56.5C35 56.1022 35.158 55.7206 35.4393 55.4393C35.7206 55.158 36.1022 55 36.5 55H63.5C63.8978 55 64.2794 55.158 64.5607 55.4393C64.842 55.7206 65 56.1022 65 56.5C65 56.8978 64.842 57.2794 64.5607 57.5607C64.2794 57.842 63.8978 58 63.5 58H36.5C36.1022 58 35.7206 57.842 35.4393 57.5607C35.158 57.2794 35 56.8978 35 56.5ZM36.5 70C36.1022 70 35.7206 70.158 35.4393 70.4393C35.158 70.7206 35 71.1022 35 71.5C35 71.8978 35.158 72.2794 35.4393 72.5607C35.7206 72.842 36.1022 73 36.5 73H48.5C48.8978 73 49.2794 72.842 49.5607 72.5607C49.842 72.2794 50 71.8978 50 71.5C50 71.1022 49.842 70.7206 49.5607 70.4393C49.2794 70.158 48.8978 70 48.5 70H36.5Z" fill="black"/>
</svg>
