<svg width="100" height="125" viewBox="0 0 100 125" fill="none" xmlns="http://www.w3.org/2000/svg">
<path fillRule="evenodd" clipRule="evenodd" d="M53.0114 0.000865032C57.2538 -0.00565038 61.0191 -0.0114335 64.4965 1.42898C67.974 2.8694 70.6323 5.53589 73.6276 8.54038C79.5624 14.4935 85.5065 20.4376 91.4596 26.3724C94.4641 29.3677 97.1306 32.026 98.571 35.5035C100.011 38.9809 100.006 42.7462 99.9991 46.9886C99.975 62.7129 99.9982 78.4373 99.9983 94.1615C99.9986 99.702 99.9988 104.476 99.4849 108.299C98.9341 112.395 97.6919 116.323 94.5066 119.508C91.3213 122.693 87.3941 123.935 83.2972 124.486C79.4744 125 74.7006 125 69.1601 125H30.8382C25.2977 125 20.5239 125 16.701 124.486C12.6041 123.935 8.67701 122.693 5.49168 119.508C2.30635 116.323 1.06421 112.395 0.513399 108.299C-0.000564337 104.476 -0.000296178 99.7019 1.52505e-05 94.1615L3.31315e-05 31.2512C3.31315e-05 31.1136 2.56811e-05 30.9764 1.82306e-05 30.8398C-0.000292453 25.2993 -0.000559926 20.5256 0.513403 16.7028C1.06422 12.6059 2.30635 8.67873 5.49168 5.4934C8.67702 2.30807 12.6041 1.06593 16.701 0.515119C20.5238 0.00115639 25.2976 0.00142382 30.838 0.00173524C38.2291 0.00213814 45.6203 0.0122238 53.0114 0.000865032Z" fill="white"/>
<path d="M74.375 55.185C74.3931 54.3676 74.1868 53.561 73.7788 52.8525C73.3506 52.1569 72.7448 51.588 72.0238 51.2044C65.5313 47.6194 59.0357 44.0363 52.5369 40.455C51.7534 39.9836 50.8546 39.7383 49.9402 39.7463C49.0259 39.7542 48.1315 40.0151 47.3563 40.5C44.7725 41.9606 31.8407 49.0594 27.9857 51.1988C27.2521 51.5673 26.6397 52.1386 26.2212 52.8449C25.8028 53.5512 25.5958 54.3627 25.625 55.1831V76.8188C25.6061 77.6177 25.8002 78.4072 26.1875 79.1063C26.6181 79.8218 27.2369 80.4055 27.9763 80.7938C31.8313 82.9331 44.765 90.0319 47.3488 91.4925C48.1237 91.978 49.0178 92.2395 49.9322 92.2481C50.8466 92.2567 51.7455 92.0121 52.5294 91.5413C59.0169 87.9525 65.5082 84.3694 72.0032 80.7919C72.7427 80.4031 73.3619 79.8196 73.7938 79.1044C74.1811 78.4054 74.3752 77.6158 74.3563 76.8169V55.185" fill="#659AD2"/>
<path d="M73.5294 79.4456C73.6274 79.337 73.7195 79.2231 73.805 79.1044C74.1923 78.4053 74.3864 77.6158 74.3675 76.8169V55.185C74.3855 54.3676 74.1793 53.5609 73.7712 52.8525C73.7037 52.7419 73.6044 52.6556 73.5275 52.5525L50 66L73.5294 79.4456Z" fill="#00599C"/>
<path d="M73.5293 79.4456L50 66L26.4706 79.4456C26.8685 80.0038 27.3869 80.4652 27.9875 80.7956C31.8425 82.935 44.7762 90.0338 47.36 91.4944C48.1349 91.9799 49.029 92.2414 49.9434 92.25C50.8578 92.2586 51.7567 92.0139 52.5406 91.5431C59.0281 87.9544 65.5193 84.3712 72.0143 80.7937C72.6142 80.4639 73.132 80.0031 73.5293 79.4456Z" fill="#004482"/>
<path d="M56.75 69.7875C55.9148 71.2729 54.6119 72.4404 53.0443 73.1085C51.4766 73.7766 49.7321 73.9078 48.0822 73.4815C46.4322 73.0553 44.9695 72.0955 43.9216 70.7517C42.8737 69.4079 42.2995 67.7554 42.2882 66.0513C42.277 64.3473 42.8293 62.6873 43.8594 61.3297C44.8894 59.9722 46.3393 58.9932 47.9835 58.5452C49.6276 58.0972 51.3737 58.2053 52.9501 58.8526C54.5264 59.4999 55.8446 60.6502 56.6994 62.1244L63.4775 58.2375C61.757 55.2849 59.1135 52.9799 55.9542 51.6776C52.7948 50.3752 49.2949 50.1477 45.9935 51.0302C42.6921 51.9127 39.7725 53.8561 37.6843 56.5612C35.5962 59.2662 34.4553 62.5828 34.4375 66C34.4341 68.7097 35.1456 71.3724 36.5 73.7194C37.8716 76.0899 39.8431 78.0575 42.2163 79.4244C44.5895 80.7912 47.2808 81.5091 50.0195 81.5059C52.7582 81.5026 55.4478 80.7784 57.8178 79.4059C60.1878 78.0335 62.1547 76.0612 63.5206 73.6875L56.75 69.7875Z" fill="white"/>
<path d="M65.1425 65.1337H63.4063V63.4069H61.6719V65.1337H59.9357V66.8644H61.6719V68.5894H63.4063V66.8644H65.1425V65.1337ZM71.6544 65.1337H69.9182V63.4069H68.1819V65.1337H66.4457V66.8644H68.1819V68.5894H69.9182V66.8644H71.6544V65.1337Z" fill="white"/>
</svg>
