<svg width="100" height="125" viewBox="0 0 100 125" fill="none" xmlns="http://www.w3.org/2000/svg">
<path fillRule="evenodd" clipRule="evenodd" d="M53.0114 0.000865032C57.2538 -0.00565038 61.0191 -0.0114335 64.4965 1.42898C67.974 2.8694 70.6323 5.53589 73.6276 8.54038C79.5624 14.4935 85.5065 20.4376 91.4596 26.3724C94.4641 29.3677 97.1306 32.026 98.571 35.5035C100.011 38.9809 100.006 42.7462 99.9991 46.9886C99.975 62.7129 99.9982 78.4373 99.9983 94.1615C99.9986 99.702 99.9988 104.476 99.4849 108.299C98.9341 112.395 97.6919 116.323 94.5066 119.508C91.3213 122.693 87.3941 123.935 83.2972 124.486C79.4744 125 74.7006 125 69.1601 125H30.8382C25.2977 125 20.5239 125 16.701 124.486C12.6041 123.935 8.67701 122.693 5.49168 119.508C2.30635 116.323 1.06421 112.395 0.513399 108.299C-0.000564337 104.476 -0.000296178 99.7019 1.52505e-05 94.1615L3.31315e-05 31.2512C3.31315e-05 31.1136 2.56811e-05 30.9764 1.82306e-05 30.8398C-0.000292453 25.2993 -0.000559926 20.5256 0.513403 16.7028C1.06422 12.6059 2.30635 8.67873 5.49168 5.4934C8.67702 2.30807 12.6041 1.06593 16.701 0.515119C20.5238 0.00115639 25.2976 0.00142382 30.838 0.00173524C38.2291 0.00213814 45.6203 0.0122238 53.0114 0.000865032Z" fill="white"/>
<g clipPath="url(#clip0_410_3649)">
<path fillRule="evenodd" clipRule="evenodd" d="M20.527 38.648C20.7141 38.444 20.9416 38.2811 21.195 38.1695C21.4484 38.058 21.7221 38.0002 21.999 38H77.999C78.2757 38.0001 78.5494 38.0577 78.8027 38.169C79.0561 38.2804 79.2836 38.4431 79.4708 38.6468C79.658 38.8506 79.8009 39.091 79.8905 39.3528C79.98 39.6147 80.0142 39.8923 79.991 40.168L75.991 87.832C75.9579 88.2214 75.8115 88.5926 75.5698 88.8997C75.3281 89.2068 75.0017 89.4363 74.631 89.56L50.631 97.56C50.2207 97.6966 49.7772 97.6966 49.367 97.56L25.367 89.56C24.9963 89.4363 24.6699 89.2068 24.4282 88.8997C24.1865 88.5926 24.0401 88.2214 24.007 87.832L20.007 40.168C19.9839 39.8925 20.0182 39.6151 20.1077 39.3535C20.1972 39.0919 20.34 38.8516 20.527 38.648ZM63.999 50H35.999V54H59.999V62H43.999V66H59.999V74.56L49.999 77.892L39.999 74.56V70H35.999V77.44L49.999 82.108L63.999 77.44V50Z" fill="#0277BD"/>
</g>
<defs>
<clipPath id="clip0_410_3649">
<rect width="60" height="60" fill="white" transform="translate(20 38)"/>
</clipPath>
</defs>
</svg>
