<svg width="100" height="125" viewBox="0 0 100 125" fill="none" xmlns="http://www.w3.org/2000/svg">
<path fillRule="evenodd" clipRule="evenodd" d="M53.0114 0.000865032C57.2538 -0.00565038 61.0191 -0.0114335 64.4965 1.42898C67.974 2.8694 70.6323 5.53589 73.6276 8.54038C79.5624 14.4935 85.5065 20.4376 91.4596 26.3724C94.4641 29.3677 97.1306 32.026 98.571 35.5035C100.011 38.9809 100.006 42.7462 99.9991 46.9886C99.975 62.7129 99.9982 78.4373 99.9983 94.1615C99.9986 99.702 99.9988 104.476 99.4849 108.299C98.9341 112.395 97.6919 116.323 94.5066 119.508C91.3213 122.693 87.3941 123.935 83.2972 124.486C79.4744 125 74.7006 125 69.1601 125H30.8382C25.2977 125 20.5239 125 16.701 124.486C12.6041 123.935 8.67701 122.693 5.49168 119.508C2.30635 116.323 1.06421 112.395 0.513399 108.299C-0.000564337 104.476 -0.000296178 99.7019 1.52505e-05 94.1615L3.31315e-05 31.2512C3.31315e-05 31.1136 2.56811e-05 30.9764 1.82306e-05 30.8398C-0.000292453 25.2993 -0.000559926 20.5256 0.513403 16.7028C1.06422 12.6059 2.30635 8.67873 5.49168 5.4934C8.67702 2.30807 12.6041 1.06593 16.701 0.515119C20.5238 0.00115639 25.2976 0.00142382 30.838 0.00173524C38.2291 0.00213814 45.6203 0.0122238 53.0114 0.000865032Z" fill="white"/>
<path d="M51.3856 39.8194C50.7428 39.822 50.1265 40.0756 49.6681 40.5263L49.6437 40.545L33.5375 49.8544L49.5987 65.9156V65.9269L68.9112 85.2394L72.5919 78.6094L59.315 46.74L53.1275 40.5525C52.9001 40.3226 52.6294 40.1399 52.3311 40.015C52.0328 39.8902 51.7127 39.8256 51.3894 39.825L51.3856 39.8194Z" fill="#66C3FA"/>
<path d="M33.5937 49.7812L24.29 65.8706L24.2713 65.895C23.8199 66.3553 23.5657 66.9734 23.5625 67.6181C23.5629 67.9405 23.6272 68.2597 23.7517 68.5571C23.8763 68.8545 24.0586 69.1242 24.2881 69.3506L32 77.0625L62.1575 88.9256L68.975 85.1381L68.7875 84.9506H68.7406L49.835 66.0131H49.8125L33.5937 49.7812Z" fill="#215896"/>
<path d="M33.485 49.8038L49.9175 66.2531H49.9419L68.855 85.1907L76.0531 83.8182L76.0625 62.5125L68.4612 55.0631C66.566 53.3718 64.191 52.3128 61.6662 52.0331V51.9506L33.485 49.8038Z" fill="#235997"/>
<path d="M33.605 49.8956L50.045 66.3356V66.36L68.9675 85.2825L67.5912 92.4806H46.2912L38.8456 84.8756C37.1554 82.9793 36.0977 80.6037 35.8194 78.0788H35.7369L33.605 49.8956Z" fill="#58B6F0"/>
</svg>
