<svg width="100" height="125" viewBox="0 0 100 125" fill="none" xmlns="http://www.w3.org/2000/svg">
<path fillRule="evenodd" clipRule="evenodd" d="M53.0114 0.000865032C57.2538 -0.00565038 61.0191 -0.0114335 64.4965 1.42898C67.974 2.8694 70.6323 5.53589 73.6276 8.54038C79.5624 14.4935 85.5065 20.4376 91.4596 26.3724C94.4641 29.3677 97.1306 32.026 98.571 35.5035C100.011 38.9809 100.006 42.7462 99.9991 46.9886C99.975 62.7129 99.9982 78.4373 99.9983 94.1615C99.9986 99.702 99.9988 104.476 99.4849 108.299C98.9341 112.395 97.6919 116.323 94.5066 119.508C91.3213 122.693 87.3941 123.935 83.2972 124.486C79.4744 125 74.7006 125 69.1601 125H30.8382C25.2977 125 20.5239 125 16.701 124.486C12.6041 123.935 8.67701 122.693 5.49168 119.508C2.30635 116.323 1.06421 112.395 0.513399 108.299C-0.000564337 104.476 -0.000296178 99.7019 1.52505e-05 94.1615L3.31315e-05 31.2512C3.31315e-05 31.1136 2.56811e-05 30.9764 1.82306e-05 30.8398C-0.000292453 25.2993 -0.000559926 20.5256 0.513403 16.7028C1.06422 12.6059 2.30635 8.67873 5.49168 5.4934C8.67702 2.30807 12.6041 1.06593 16.701 0.515119C20.5238 0.00115639 25.2976 0.00142382 30.838 0.00173524C38.2291 0.00213814 45.6203 0.0122238 53.0114 0.000865032Z" fill="white"/>
<g clipPath="url(#clip0_410_3731)">
<path d="M55.8275 72.9702C54.6994 72.9859 56.0408 73.5516 57.5136 73.7783C57.897 73.479 58.2658 73.1614 58.6185 72.8265C57.7014 73.0512 56.7679 73.0562 55.8275 72.9702ZM61.8824 71.461C62.5543 70.5339 63.0439 69.5188 63.2166 68.469C63.0658 69.2173 62.6595 69.8634 62.2773 70.5451C60.1686 71.8728 62.079 69.7566 62.276 68.9524C60.0086 71.8064 61.9645 70.6639 61.8824 71.4612M64.1172 65.6451C64.2537 63.6138 63.7176 64.256 63.5372 65.0313C63.7477 65.1405 63.914 66.463 64.1172 65.6451ZM51.5497 37.8783C52.1517 37.9864 52.8504 38.0691 52.7524 38.2128C53.4111 38.0684 53.5605 37.9354 51.5497 37.8783ZM52.7524 38.2128L52.327 38.3009L52.723 38.2657L52.7524 38.2128Z" fill="#A80030"/>
<path d="M71.5259 66.4156C71.5929 68.24 70.9922 69.1252 70.4504 70.692L69.4754 71.1793C68.6775 72.7285 69.5528 72.1631 68.9813 73.3954C67.7358 74.5027 65.2015 76.8608 64.3905 77.0761C63.7984 77.0628 64.7916 76.3772 64.9216 76.1087C63.2542 77.2538 63.5838 77.8274 61.0336 78.5231L60.959 78.3574C54.6697 81.3161 45.9335 75.4528 46.0484 67.452C45.9812 67.9599 45.8574 67.8331 45.7182 68.0385C45.3936 63.9221 47.6192 59.7874 51.3727 58.0994C55.0439 56.2818 59.3481 57.0278 61.9778 59.4787C60.5332 57.5863 57.6579 55.5806 54.2503 55.7683C50.9125 55.821 47.79 57.9426 46.7477 60.245C45.0376 61.3218 44.8393 64.3954 44.094 64.9578C43.0915 72.3261 45.9799 75.5097 50.8659 79.2544C51.635 79.773 51.0827 79.8517 51.1869 80.2463C49.5633 79.486 48.0768 78.3385 46.8545 76.9335C47.5029 77.8828 48.2029 78.8056 49.1076 79.5307C47.577 79.0121 45.5324 75.8216 44.9353 75.6919C47.5738 80.4159 55.6403 83.9767 59.864 82.2102C57.9097 82.2822 55.4268 82.2502 53.2309 81.4385C52.3085 80.9639 51.0545 79.9808 51.2784 79.7969C57.0426 81.9503 62.9972 81.4278 67.9851 77.4293C69.2539 76.4412 70.6401 74.7601 71.0406 74.7369C70.4373 75.644 71.1437 75.173 70.6803 75.9744C71.9446 73.9353 70.1309 75.1442 71.9872 72.4531L72.6727 73.3971C72.4179 71.7046 74.7745 69.6494 74.5354 66.9724C75.076 66.1539 75.1387 67.8533 74.5649 69.7366C75.3611 67.6473 74.7745 67.3115 74.9793 65.5876C75.2004 66.167 75.4904 66.7829 75.6391 67.3944C75.1204 65.3753 76.1715 63.9943 76.4314 62.8208C76.1751 62.7074 75.6309 63.7137 75.5065 61.3287C75.5248 60.2927 75.7948 60.7856 75.899 60.5308C75.6956 60.4139 75.1621 59.6198 74.8375 58.0966C75.0727 57.7389 75.4663 59.0247 75.7867 59.0774C75.5806 57.8663 75.2259 56.9429 75.2115 56.0137C74.2761 54.0588 74.8807 56.2743 74.1216 55.1745C73.126 52.0687 74.9479 54.4537 75.071 53.0424C76.5801 55.2291 77.4408 58.6178 77.8356 60.0216C77.5344 58.3102 77.0472 56.6522 76.4527 55.0482C76.911 55.2409 75.7145 51.5269 77.0485 53.9869C75.6234 48.7434 70.9495 43.8441 66.6498 41.5453C67.176 42.0265 67.84 42.6313 67.6016 42.726C65.4632 41.4529 65.8394 41.3536 65.533 40.8156C63.7909 40.1069 63.6768 40.8728 62.5227 40.8169C59.2394 39.0754 58.6067 39.2606 55.5851 38.1696L55.7226 38.812C53.5473 38.0873 53.1881 39.0868 50.8371 38.8142C50.694 38.7024 51.5905 38.41 52.3281 38.3028C50.225 38.58 50.3236 37.8882 48.2656 38.3793C48.7729 38.0233 49.3091 37.7879 49.8503 37.4854C48.1352 37.5896 45.7558 38.4835 46.4901 37.6705C43.6929 38.9186 38.7246 40.6706 35.9366 43.2848L35.8485 42.699C34.5713 44.2329 30.2776 47.2794 29.9356 49.2657L29.594 49.3454C28.9293 50.4712 28.4991 51.7467 27.9719 52.9049C27.1024 54.3865 26.6975 53.4751 26.8212 53.7073C25.111 57.1745 24.2616 60.0882 23.5276 62.4775C24.0508 63.2591 23.5403 67.1826 23.7382 70.3229C22.8793 85.8319 34.6226 100.89 47.4591 104.367C49.3405 105.04 52.1384 105.014 54.5184 105.083C51.7104 104.28 51.3473 104.657 48.6124 103.704C46.639 102.774 46.2066 101.714 44.8092 100.501L45.3622 101.478C42.6212 100.508 43.7681 100.278 41.5384 99.5715L42.1293 98.8C41.2409 98.7328 39.7761 97.3026 39.3756 96.5111L38.4039 96.5493C37.2362 95.1086 36.614 94.07 36.6593 93.2661L36.3452 93.8253C35.9892 93.2145 32.0494 88.422 34.0934 89.5377C33.7136 89.1905 33.2089 88.9727 32.6615 87.9781L33.0777 87.5023C32.0939 86.2368 31.2672 84.6145 31.3299 84.074C31.8548 84.7828 32.2189 84.9151 32.5792 85.0365C30.095 78.8726 29.9558 84.6968 28.0742 78.7622L28.4723 78.7302C28.1672 78.2706 27.982 77.7716 27.7364 77.2821L27.9098 75.5554C26.1212 73.4876 27.4092 66.7628 27.6675 63.0745C27.8462 61.5749 29.1602 59.9782 30.1597 57.4746L29.5508 57.3698C30.7146 55.3395 36.1966 49.216 38.7354 49.5312C39.9651 47.9865 38.4911 49.5256 38.2507 49.1363C40.9519 46.3408 41.8014 47.1613 43.6246 46.6585C45.5906 45.4915 41.937 47.1136 42.8692 46.2134C46.268 45.3452 45.278 44.2396 49.7119 43.799C50.1799 44.0652 48.6268 44.2102 48.2368 44.5554C51.0687 43.1699 57.1984 43.4851 61.1799 45.3246C65.7999 47.4835 70.9903 53.8655 71.195 59.8703L71.4279 59.9331C71.3098 62.32 71.7932 65.0803 70.9557 67.6159L71.5259 66.4156Z" fill="#A80030"/>
<path d="M43.5139 74.519L43.3558 75.3101C44.097 76.317 44.6855 77.408 45.6321 78.1954C44.951 76.8655 44.4451 76.3164 43.5139 74.519ZM45.2668 74.4501C44.8743 74.0161 44.6421 73.494 44.3823 72.9734C44.6309 73.888 45.1399 74.6741 45.614 75.4734L45.2668 74.4501ZM76.2819 67.7089L76.1163 68.1244C75.8125 70.2827 75.1563 72.4185 74.1504 74.3985C75.2618 72.3091 75.9807 70.0243 76.2819 67.7089ZM51.7725 37.3373C52.5352 37.0578 53.6477 37.1839 54.457 37C53.4021 37.0885 52.3526 37.1412 51.316 37.275L51.7725 37.3373ZM24.9942 51.5765C25.1701 53.2037 23.77 53.8354 25.3044 52.7624C26.1268 50.9098 24.983 52.2509 24.9942 51.5765ZM23.1912 59.1074C23.5446 58.0227 23.6087 57.3711 23.7438 56.7433C22.7669 57.992 23.2943 58.2579 23.1912 59.1074Z" fill="#A80030"/>
</g>
<defs>
<clipPath id="clip0_410_3731">
<rect width="55" height="68.1055" fill="white" transform="translate(23 37)"/>
</clipPath>
</defs>
</svg>
