<svg width="100" height="125" viewBox="0 0 100 125" fill="none" xmlns="http://www.w3.org/2000/svg">
<path fillRule="evenodd" clipRule="evenodd" d="M53.0114 0.000865032C57.2538 -0.00565038 61.0191 -0.0114335 64.4965 1.42898C67.974 2.8694 70.6323 5.53589 73.6276 8.54038C79.5624 14.4935 85.5065 20.4376 91.4596 26.3724C94.4641 29.3677 97.1306 32.026 98.571 35.5035C100.011 38.9809 100.006 42.7462 99.9991 46.9886C99.975 62.7129 99.9982 78.4373 99.9983 94.1615C99.9986 99.702 99.9988 104.476 99.4849 108.299C98.9341 112.395 97.6919 116.323 94.5066 119.508C91.3213 122.693 87.3941 123.935 83.2972 124.486C79.4744 125 74.7006 125 69.1601 125H30.8382C25.2977 125 20.5239 125 16.701 124.486C12.6041 123.935 8.67701 122.693 5.49168 119.508C2.30635 116.323 1.06421 112.395 0.513399 108.299C-0.000564337 104.476 -0.000296178 99.7019 1.52505e-05 94.1615L3.31315e-05 31.2512C3.31315e-05 31.1136 2.56811e-05 30.9764 1.82306e-05 30.8398C-0.000292453 25.2993 -0.000559926 20.5256 0.513403 16.7028C1.06422 12.6059 2.30635 8.67873 5.49168 5.4934C8.67702 2.30807 12.6041 1.06593 16.701 0.515119C20.5238 0.00115639 25.2976 0.00142382 30.838 0.00173524C38.2291 0.00213814 45.6203 0.0122238 53.0114 0.000865032Z" fill="white"/>
<g clipPath="url(#clip0_851_4)">
<path d="M78.7617 61.5227C77.4106 60.5852 74.3142 60.2337 71.8936 60.7024C71.6124 58.3587 70.3174 56.3081 68.0656 54.4917L66.7709 53.5542L65.8699 54.9019C64.7442 56.6597 64.1813 59.1206 64.35 61.4644C64.4063 62.2845 64.6878 63.7493 65.5322 65.0384C64.7442 65.5071 63.1116 66.093 60.9724 66.093H20.2709L20.1584 66.5618C19.7642 68.9053 19.7642 76.2293 24.3804 81.8541C27.8707 86.1312 33.0499 88.2991 39.8616 88.2991C54.6108 88.2991 65.5322 81.2093 70.6552 68.378C72.6818 68.4366 77.0166 68.378 79.2122 63.9834C79.2685 63.8663 79.381 63.6319 79.7749 62.7532L80.0002 62.2845L78.7617 61.5227ZM52.8094 45H46.6172V50.8591H52.8094V45ZM52.8094 52.031H46.6172V57.8902H52.8094V52.031ZM45.491 52.031H39.2989V57.8902H45.491V52.031ZM38.1727 52.031H31.9803V57.8902H38.1727V52.031ZM30.8543 59.062H24.6619V64.9212H30.8541L30.8543 59.062ZM38.1727 59.062H31.9803V64.9212H38.1727V59.062ZM45.491 59.062H39.2989V64.9212H45.491V59.062ZM52.8096 59.062H46.617V64.9212H52.8096V59.062ZM60.128 59.062H53.9353V64.9212H60.128V59.062Z" fill="#2396ED"/>
</g>
<defs>
<clipPath id="clip0_851_4">
<rect width="60" height="43.3594" fill="white" transform="translate(20 45)"/>
</clipPath>
</defs>
</svg>
