<svg width="100" height="125" viewBox="0 0 100 125" fill="none" xmlns="http://www.w3.org/2000/svg">
<path fill-rule="evenodd" clip-rule="evenodd" d="M53.0114 0.000865032C57.2538 -0.00565038 61.0191 -0.0114335 64.4965 1.42898C67.974 2.8694 70.6323 5.53589 73.6276 8.54038C79.5624 14.4935 85.5065 20.4376 91.4596 26.3724C94.4641 29.3677 97.1306 32.026 98.571 35.5035C100.011 38.9809 100.006 42.7462 99.9991 46.9886C99.975 62.7129 99.9982 78.4373 99.9983 94.1615C99.9986 99.702 99.9988 104.476 99.4849 108.299C98.9341 112.395 97.6919 116.323 94.5066 119.508C91.3213 122.693 87.3941 123.935 83.2972 124.486C79.4744 125 74.7006 125 69.1601 125H30.8382C25.2977 125 20.5239 125 16.701 124.486C12.6041 123.935 8.67701 122.693 5.49168 119.508C2.30635 116.323 1.06421 112.395 0.513399 108.299C-0.000564337 104.476 -0.000296178 99.7019 1.52505e-05 94.1615L3.31315e-05 31.2512C3.31315e-05 31.1136 2.56811e-05 30.9764 1.82306e-05 30.8398C-0.000292453 25.2993 -0.000559926 20.5256 0.513403 16.7028C1.06422 12.6059 2.30635 8.67873 5.49168 5.4934C8.67702 2.30807 12.6041 1.06593 16.701 0.515119C20.5238 0.00115639 25.2976 0.00142382 30.838 0.00173524C38.2291 0.00213814 45.6203 0.0122238 53.0114 0.000865032Z" fill="white"/>
<path d="M56.7144 65.7813L35.96 62.125V89.1419C35.9603 89.4354 36.0183 89.726 36.1309 89.997C36.2434 90.2681 36.4083 90.5143 36.616 90.7217C36.8237 90.9291 37.0702 91.0935 37.3415 91.2056C37.6127 91.3177 37.9034 91.3752 38.1969 91.375H74.0094C74.3032 91.3757 74.5943 91.3185 74.866 91.2067C75.1377 91.0948 75.3846 90.9305 75.5928 90.723C75.8009 90.5156 75.966 90.2692 76.0788 89.9979C76.1916 89.7266 76.2498 89.4357 76.25 89.1419V79.1875L56.7144 65.7813Z" fill="#185C37"/>
<path d="M56.7144 42.625H38.1969C37.9034 42.6248 37.6127 42.6823 37.3415 42.7944C37.0702 42.9065 36.8237 43.0709 36.616 43.2783C36.4083 43.4857 36.2434 43.7319 36.1309 44.003C36.0183 44.274 35.9603 44.5646 35.96 44.8581V54.8125L56.7144 67L67.7038 70.6563L76.25 67V54.8125L56.7144 42.625Z" fill="#21A366"/>
<path d="M35.96 54.8125H56.7144V67H35.96V54.8125Z" fill="#107C41"/>
<path opacity="0.1" d="M50.8138 52.375H35.96V82.8438H50.8138C51.4056 82.8408 51.9725 82.6048 52.3916 82.1868C52.8106 81.7688 53.0481 81.2025 53.0525 80.6106V54.6081C53.0481 54.0163 52.8106 53.45 52.3916 53.032C51.9725 52.614 51.4056 52.3779 50.8138 52.375Z" fill="black"/>
<path opacity="0.2" d="M49.5931 53.5938H35.96V84.0625H49.5931C50.185 84.0596 50.7519 83.8235 51.1709 83.4055C51.59 82.9875 51.8275 82.4212 51.8319 81.8294V55.8269C51.8275 55.235 51.59 54.6687 51.1709 54.2507C50.7519 53.8327 50.185 53.5967 49.5931 53.5938Z" fill="black"/>
<path opacity="0.2" d="M49.5931 53.5938H35.96V81.625H49.5931C50.185 81.6221 50.7519 81.386 51.1709 80.968C51.59 80.55 51.8275 79.9837 51.8319 79.3919V55.8269C51.8275 55.235 51.59 54.6687 51.1709 54.2507C50.7519 53.8327 50.185 53.5967 49.5931 53.5938Z" fill="black"/>
<path opacity="0.2" d="M48.3725 53.5938H35.96V81.625H48.3725C48.9644 81.6221 49.5313 81.386 49.9503 80.968C50.3694 80.55 50.6068 79.9837 50.6113 79.3919V55.8269C50.6068 55.235 50.3694 54.6687 49.9503 54.2507C49.5313 53.8327 48.9644 53.5967 48.3725 53.5938Z" fill="black"/>
<path d="M25.9888 53.5938H48.3725C48.9654 53.5933 49.5343 53.8282 49.9541 54.2469C50.3739 54.6657 50.6103 55.2339 50.6113 55.8269V78.1731C50.6103 78.7661 50.3739 79.3343 49.9541 79.7531C49.5343 80.1718 48.9654 80.4067 48.3725 80.4063H25.9888C25.6951 80.4067 25.4042 80.3494 25.1327 80.2374C24.8613 80.1254 24.6145 79.961 24.4066 79.7536C24.1987 79.5462 24.0337 79.2999 23.921 79.0287C23.8084 78.7575 23.7502 78.4668 23.75 78.1731V55.8269C23.7502 55.5332 23.8084 55.2425 23.921 54.9713C24.0337 54.7001 24.1987 54.4538 24.4066 54.2464C24.6145 54.039 24.8613 53.8746 25.1327 53.7626C25.4042 53.6506 25.6951 53.5933 25.9888 53.5938Z" fill="url(#paint0_linear_410_3727)"/>
<path d="M30.6875 74.2619L35.3956 66.9794L31.0831 59.7382H34.5463L36.8994 64.375C37.1169 64.8138 37.2744 65.14 37.3456 65.3575H37.3775C37.5312 65.005 37.6944 64.6657 37.865 64.3338L40.3813 59.7457H43.5687L39.1456 66.9457L43.6813 74.2675H40.2894L37.5706 69.1844C37.4444 68.9659 37.3371 68.7369 37.25 68.5H37.205C37.1257 68.7308 37.02 68.9517 36.89 69.1582L34.0906 74.2619H30.6875Z" fill="white"/>
<path d="M74.0112 42.625H56.7144V54.8125H76.25V44.8581C76.2497 44.5645 76.1916 44.2737 76.079 44.0025C75.9663 43.7313 75.8013 43.485 75.5934 43.2776C75.3855 43.0702 75.1387 42.9059 74.8672 42.7939C74.5958 42.6819 74.3049 42.6245 74.0112 42.625Z" fill="#33C481"/>
<path d="M56.7144 67H76.25V79.1875H56.7144V67Z" fill="#107C41"/>
<defs>
<linearGradient id="paint0_linear_410_3727" x1="28.4262" y1="51.8388" x2="45.935" y2="82.1613" gradientUnits="userSpaceOnUse">
<stop stop-color="#18884F"/>
<stop offset="0.5" stop-color="#117E43"/>
<stop offset="1" stop-color="#0B6631"/>
</linearGradient>
</defs>
</svg>
