<svg width="100" height="125" viewBox="0 0 100 125" fill="none" xmlns="http://www.w3.org/2000/svg">
<path fillRule="evenodd" clipRule="evenodd" d="M53.0114 0.000865032C57.2538 -0.00565038 61.0191 -0.0114335 64.4965 1.42898C67.974 2.8694 70.6323 5.53589 73.6276 8.54038C79.5624 14.4935 85.5065 20.4376 91.4596 26.3724C94.4641 29.3677 97.1306 32.026 98.571 35.5035C100.011 38.9809 100.006 42.7462 99.9991 46.9886C99.975 62.7129 99.9982 78.4373 99.9983 94.1615C99.9986 99.702 99.9988 104.476 99.4849 108.299C98.9341 112.395 97.6919 116.323 94.5066 119.508C91.3213 122.693 87.3941 123.935 83.2972 124.486C79.4744 125 74.7006 125 69.1601 125H30.8382C25.2977 125 20.5239 125 16.701 124.486C12.6041 123.935 8.67701 122.693 5.49168 119.508C2.30635 116.323 1.06421 112.395 0.513399 108.299C-0.000564337 104.476 -0.000296178 99.7019 1.52505e-05 94.1615L3.31315e-05 31.2512C3.31315e-05 31.1136 2.56811e-05 30.9764 1.82306e-05 30.8398C-0.000292453 25.2993 -0.000559926 20.5256 0.513403 16.7028C1.06422 12.6059 2.30635 8.67873 5.49168 5.4934C8.67702 2.30807 12.6041 1.06593 16.701 0.515119C20.5238 0.00115639 25.2976 0.00142382 30.838 0.00173524C38.2291 0.00213814 45.6203 0.0122238 53.0114 0.000865032Z" fill="white"/>
<path fillRule="evenodd" clipRule="evenodd" d="M31.2256 69.1563C31.3006 70.705 32.8475 69.9888 33.5488 69.505C34.2144 69.0456 34.4094 69.4281 34.4675 68.5206C34.5278 67.9258 34.5523 67.3278 34.5406 66.73C33.5076 66.6264 32.4713 66.8921 31.6156 67.48C31.19 67.7894 30.395 68.7738 31.2256 69.1675" fill="#F6D2A2"/>
<path d="M32.03 70.2475C31.8771 70.2503 31.7256 70.2175 31.5875 70.1519C31.4297 70.0606 31.2994 69.9285 31.2103 69.7695C31.1212 69.6104 31.0766 69.4303 31.0812 69.2481C30.9789 69.1986 30.8908 69.124 30.8253 69.0312C30.7597 68.9384 30.7187 68.8304 30.7062 68.7175C30.7342 68.4451 30.8212 68.1821 30.961 67.9467C31.1009 67.7113 31.2904 67.5092 31.5162 67.3543C32.3997 66.7436 33.4724 66.4689 34.5406 66.58L34.6681 66.5912V66.7187C34.6846 67.186 34.6702 67.6539 34.625 68.1194C34.6141 68.2555 34.6041 68.3918 34.595 68.5281C34.5537 69.1712 34.4337 69.2687 34.1019 69.3831C33.9276 69.4388 33.7626 69.5203 33.6125 69.625C33.1473 69.965 32.6022 70.1794 32.03 70.2475ZM34.1112 66.8575C33.2501 66.846 32.4069 67.1043 31.7 67.5962C31.3962 67.8175 30.9744 68.335 31.01 68.6912C31.0206 68.7667 31.052 68.8377 31.1007 68.8963C31.1494 68.9549 31.2134 68.9988 31.2856 69.0231L31.3662 69.0606V69.1487C31.385 69.535 31.5012 69.7825 31.7131 69.8875C32.1219 70.09 32.8831 69.7787 33.4587 69.3831C33.6314 69.2631 33.821 69.1696 34.0212 69.1056C34.2387 69.0306 34.2837 69.0137 34.3156 68.5094C34.3156 68.3725 34.3344 68.2356 34.3456 68.0968C34.3839 67.6868 34.4002 67.2749 34.3944 66.8631C34.2981 66.8594 34.2025 66.8575 34.1112 66.8575Z" fill="black"/>
<path fillRule="evenodd" clipRule="evenodd" d="M31.2256 69.1563C31.4611 69.1042 31.6757 68.9835 31.8425 68.8094Z" fill="#C6B198"/>
<path d="M31.2256 69.3044C31.1919 69.3031 31.1595 69.2902 31.1341 69.268C31.1086 69.2458 31.0914 69.2155 31.0855 69.1823C31.0796 69.149 31.0853 69.1147 31.1016 69.085C31.1178 69.0554 31.1438 69.0322 31.175 69.0194L31.2744 68.9837C31.4477 68.9441 31.6052 68.8533 31.7263 68.7231C31.7369 68.7054 31.7512 68.69 31.7681 68.6781C31.7851 68.6662 31.8043 68.658 31.8246 68.654C31.8449 68.65 31.8659 68.6503 31.8861 68.6549C31.9063 68.6594 31.9253 68.6682 31.9419 68.6806C31.9585 68.693 31.9723 68.7087 31.9824 68.7267C31.9926 68.7448 31.9988 68.7648 32.0008 68.7854C32.0027 68.806 32.0003 68.8268 31.9937 68.8464C31.9871 68.8661 31.9765 68.8841 31.9625 68.8994C31.8079 69.0773 31.6024 69.2036 31.3738 69.2612L31.2781 69.295C31.2614 69.3013 31.2436 69.3045 31.2256 69.3044Z" fill="black"/>
<path fillRule="evenodd" clipRule="evenodd" d="M34.8013 50.7044C28.8706 49.0375 33.2806 41.5 38.0413 44.5975L34.8013 50.7044Z" fill="#6AD7E5"/>
<path d="M34.8763 50.875L34.7619 50.8431C34.0481 50.7217 33.3873 50.3887 32.8651 49.8872C32.3428 49.3857 31.9833 48.7389 31.8331 48.0306C31.7627 47.3029 31.8969 46.57 32.2205 45.9144C32.5442 45.2588 33.0445 44.7066 33.665 44.32C34.3378 43.8954 35.1227 43.6828 35.9178 43.7099C36.7129 43.737 37.4815 44.0025 38.1238 44.4719L38.2363 44.545L34.8763 50.875ZM35.7181 44.0013C35.0457 44.0015 34.3879 44.1969 33.8244 44.5638C33.251 44.9188 32.788 45.4269 32.4875 46.0308C32.1871 46.6346 32.0611 47.3103 32.1238 47.9819C32.2585 48.6157 32.5773 49.1956 33.0403 49.6489C33.5033 50.1022 34.0898 50.4087 34.7263 50.53L37.8481 44.6481C37.2117 44.24 36.4741 44.0173 35.7181 44.005V44.0013Z" fill="black"/>
<path fillRule="evenodd" clipRule="evenodd" d="M61.145 44.0313C65.8325 40.735 70.0794 48.1732 64.625 50.0444L61.145 44.0313Z" fill="#6AD7E5"/>
<path d="M64.5594 50.2225L60.95 43.9881L61.0606 43.9113C61.661 43.4306 62.3908 43.1395 63.1571 43.0751C63.9234 43.0106 64.6916 43.1758 65.3638 43.5494C65.9991 43.9221 66.5185 44.4639 66.8642 45.1144C67.2098 45.7649 67.368 46.4986 67.3213 47.2338C67.2261 47.9343 66.9226 48.59 66.4502 49.1159C65.9778 49.6419 65.3582 50.0137 64.6719 50.1831L64.5594 50.2225ZM61.3419 44.0744L64.6925 49.8625C65.2997 49.6971 65.8448 49.3569 66.2602 48.8842C66.6756 48.4115 66.9428 47.8271 67.0288 47.2038C67.0709 46.5246 66.9237 45.847 66.6036 45.2465C66.2835 44.646 65.803 44.1461 65.2156 43.8025C64.616 43.458 63.9272 43.2998 63.2373 43.3483C62.5474 43.3967 61.8876 43.6495 61.3419 44.0744Z" fill="black"/>
<path fillRule="evenodd" clipRule="evenodd" d="M62.1556 88.2194C63.3481 88.9562 65.5306 91.1875 63.7381 92.2694C62.0206 93.8425 61.0588 90.5425 59.5494 90.085C59.8394 89.6176 60.2189 89.2121 60.6662 88.8919C61.1135 88.5717 61.6197 88.3432 62.1556 88.2194Z" fill="#F6D2A2"/>
<path d="M62.8325 92.8394H62.7612C62.0844 92.7982 61.5219 92.1382 60.9781 91.4988C60.6049 90.956 60.0979 90.5188 59.5062 90.2294L59.3075 90.1694L59.4312 90.0007C60.0429 89.0282 61.014 88.3367 62.1331 88.0769H62.1875L62.2344 88.105C62.9975 88.5775 64.5725 89.9575 64.565 91.2063C64.5611 91.453 64.4905 91.6941 64.3608 91.904C64.2311 92.1139 64.047 92.2849 63.8281 92.3988C63.5641 92.6666 63.2082 92.8241 62.8325 92.8394ZM59.7856 90.0269C60.3416 90.3544 60.8241 90.7929 61.2031 91.315C61.73 91.9338 62.2287 92.5188 62.78 92.5525C62.9409 92.5521 63.1 92.5186 63.2474 92.4541C63.3948 92.3896 63.5274 92.2954 63.6369 92.1775L63.6594 92.1607C63.8379 92.0734 63.9889 91.9387 64.0961 91.7714C64.2032 91.6041 64.2623 91.4105 64.2669 91.2119C64.2669 90.2144 63.0069 88.9619 62.1219 88.3994C61.1654 88.6214 60.3297 89.2002 59.7856 90.0175V90.0269Z" fill="black"/>
<path d="M63.7381 92.4175C63.711 92.4174 63.6844 92.4098 63.6612 92.3956C63.6381 92.3814 63.6193 92.3611 63.6069 92.3369C63.5196 92.1538 63.4427 91.966 63.3763 91.7744C63.274 91.414 63.0905 91.0817 62.84 90.8031C62.8168 90.7751 62.8047 90.7395 62.8061 90.7031C62.8075 90.6667 62.8223 90.6321 62.8475 90.6059C62.8728 90.5797 62.9069 90.5637 62.9432 90.561C62.9795 90.5583 63.0155 90.5691 63.0444 90.5913C63.3284 90.8999 63.537 91.2703 63.6538 91.6731C63.7167 91.8519 63.7894 92.0272 63.8713 92.1981C63.8889 92.2332 63.8919 92.2738 63.8796 92.3111C63.8673 92.3484 63.8407 92.3792 63.8056 92.3969C63.7852 92.4092 63.762 92.4163 63.7381 92.4175Z" fill="black"/>
<path fillRule="evenodd" clipRule="evenodd" d="M40.8575 90.7412C39.4588 90.9569 38.6713 92.2206 37.505 92.8619C36.4063 93.5181 35.9844 92.6519 35.8869 92.4756C35.7144 92.3969 35.7294 92.5487 35.4631 92.2881C34.4375 90.6719 36.5225 89.5 37.6063 88.6975C39.1156 88.3919 40.0625 89.7006 40.8575 90.7412Z" fill="#F6D2A2"/>
<path d="M36.7606 93.25C36.6714 93.2506 36.5825 93.2392 36.4963 93.2163C36.3422 93.166 36.1998 93.0853 36.0774 92.979C35.955 92.8727 35.8552 92.743 35.7838 92.5975H35.75C35.6263 92.5975 35.5344 92.5713 35.3506 92.3856L35.33 92.3613C34.3494 90.8125 36.0181 89.6369 37.1244 88.8588C37.2631 88.7613 37.3944 88.6713 37.5125 88.5813L37.5388 88.5625H37.5706C39.125 88.2475 40.1075 89.5338 40.895 90.5669L41.1181 90.8575L40.8725 90.895C40.0823 91.0847 39.3632 91.4973 38.8006 92.0838C38.4222 92.4298 38.0094 92.7364 37.5688 92.9988C37.3266 93.153 37.0476 93.2398 36.7606 93.25ZM35.7725 92.3013C35.8322 92.3013 35.8912 92.3148 35.945 92.3406L35.9881 92.3613L36.0256 92.4269C36.0785 92.5433 36.1541 92.648 36.2482 92.7347C36.3422 92.8213 36.4527 92.8882 36.5731 92.9313C36.721 92.9587 36.8728 92.9563 37.0196 92.9241C37.1665 92.8919 37.3054 92.8306 37.4281 92.7438C37.8525 92.4902 38.2502 92.1943 38.615 91.8606C39.1696 91.3064 39.8484 90.8924 40.595 90.6531C39.845 89.6669 38.9788 88.6019 37.6663 88.8475C37.5432 88.9371 37.4182 89.024 37.2913 89.1081C36.1663 89.9031 34.7563 90.8931 35.5681 92.1981C35.6844 92.3144 35.7125 92.3125 35.7369 92.3125L35.7725 92.3013Z" fill="black"/>
<path d="M35.885 92.6218H35.8719C35.8329 92.6185 35.7968 92.5999 35.7715 92.57C35.7462 92.5401 35.7337 92.5015 35.7369 92.4625C35.7974 92.0693 35.9611 91.6993 36.2112 91.39C36.3292 91.2268 36.4327 91.0536 36.5206 90.8725C36.5383 90.8395 36.5677 90.8144 36.6031 90.8022C36.6385 90.7901 36.6772 90.7918 36.7114 90.807C36.7456 90.8222 36.7728 90.8497 36.7875 90.8841C36.8022 90.9186 36.8033 90.9573 36.7906 90.9925C36.696 91.1894 36.5843 91.3776 36.4569 91.555C36.2362 91.8251 36.0901 92.1483 36.0331 92.4925C36.0285 92.5284 36.0109 92.5614 35.9836 92.5853C35.9563 92.6091 35.9212 92.6221 35.885 92.6218Z" fill="black"/>
<path fillRule="evenodd" clipRule="evenodd" d="M35.0488 48.625C34.2669 48.2106 33.6932 47.65 34.1713 46.75C34.6138 45.9119 35.4369 46 36.2188 46.4162L35.0488 48.625ZM63.3894 47.8337C64.1713 47.4194 64.745 46.8587 64.2669 45.9587C63.8244 45.1206 63.0013 45.2087 62.2194 45.625L63.3894 47.8337Z" fill="black"/>
<path fillRule="evenodd" clipRule="evenodd" d="M68.7744 68.9612C68.6994 70.51 67.1525 69.7938 66.4512 69.31C65.7856 68.8506 65.5906 69.2331 65.5325 68.3256C65.4722 67.7308 65.4477 67.1328 65.4594 66.535C66.4924 66.4314 67.5287 66.6971 68.3844 67.285C68.81 67.5944 69.605 68.5787 68.7744 68.9725" fill="#F6D2A2"/>
<path d="M67.97 70.0506C67.3914 69.9863 66.8396 69.7724 66.3688 69.43C66.2187 69.3253 66.0537 69.2438 65.8794 69.1881C65.5475 69.0718 65.4275 68.9743 65.3863 68.3331C65.3863 68.1962 65.3675 68.0612 65.3563 67.9243C65.3111 67.4589 65.2967 66.991 65.3131 66.5237V66.3962L65.4406 66.385C66.5089 66.2739 67.5816 66.5486 68.465 67.1593C68.6909 67.3141 68.8803 67.5163 69.0202 67.7517C69.1601 67.9871 69.247 68.2501 69.275 68.5225C69.2625 68.6354 69.2216 68.7434 69.156 68.8362C69.0904 68.929 69.0023 69.0036 68.9 69.0531C68.9046 69.2353 68.86 69.4154 68.7709 69.5745C68.6819 69.7335 68.5516 69.8656 68.3938 69.9568C68.2612 70.0191 68.1165 70.0511 67.97 70.0506ZM65.6019 66.6756C65.5961 67.0874 65.6124 67.4993 65.6506 67.9093L65.6806 68.3218C65.7125 68.8262 65.7575 68.8412 65.975 68.9181C66.1753 68.9821 66.3649 69.0756 66.5375 69.1956C67.1113 69.5931 67.8744 69.9025 68.2831 69.7C68.495 69.595 68.6113 69.3475 68.63 68.9612V68.8731L68.7106 68.8356C68.7828 68.8113 68.8469 68.7674 68.8955 68.7088C68.9442 68.6502 68.9756 68.5792 68.9863 68.5037C69.02 68.1475 68.6 67.63 68.2963 67.4087C67.5093 66.8611 66.5581 66.6003 65.6019 66.67V66.6756Z" fill="black"/>
<path fillRule="evenodd" clipRule="evenodd" d="M68.7743 68.9613C68.5389 68.9092 68.3243 68.7885 68.1575 68.6144Z" fill="#C6B198"/>
<path d="M68.7744 69.1075C68.7576 69.1104 68.7405 69.1104 68.7238 69.1075L68.6281 69.0737C68.3995 69.0163 68.1939 68.8899 68.0394 68.7119C68.0254 68.6966 68.0148 68.6786 68.0082 68.6589C68.0016 68.6393 67.9992 68.6185 68.0011 68.5979C68.0031 68.5773 68.0093 68.5573 68.0195 68.5392C68.0296 68.5212 68.0434 68.5055 68.06 68.4931C68.0766 68.4807 68.0956 68.4719 68.1158 68.4674C68.136 68.4628 68.157 68.4625 68.1773 68.4665C68.1976 68.4705 68.2168 68.4787 68.2338 68.4906C68.2507 68.5025 68.265 68.5179 68.2756 68.5356C68.3967 68.6658 68.5542 68.7566 68.7275 68.7962L68.8269 68.8319C68.8582 68.8447 68.8841 68.8679 68.9004 68.8975C68.9166 68.9272 68.9223 68.9615 68.9164 68.9948C68.9105 69.028 68.8933 69.0583 68.8679 69.0805C68.8424 69.1027 68.81 69.1156 68.7763 69.1169L68.7744 69.1075Z" fill="black"/>
<path fillRule="evenodd" clipRule="evenodd" d="M49.4056 40.8981C55.3419 40.8981 60.9069 41.7475 63.8075 47.4513C66.4119 53.8431 65.4856 60.7375 65.8831 67.4931C66.2244 73.2944 66.98 79.9956 64.2894 85.3731C61.4581 91.0281 54.3838 92.4513 48.5544 92.2431C43.9756 92.08 38.4463 90.5856 35.8625 86.4025C32.8306 81.4956 34.2669 74.1981 34.4863 68.7381C34.7469 62.2713 32.735 55.7819 34.8613 49.4538C37.0663 42.8913 43.01 41.4044 49.4075 40.8981" fill="#6AD7E5"/>
<path d="M49.5687 92.4062C49.1937 92.4062 48.8562 92.4063 48.5506 92.3875C45.7381 92.2863 38.8456 91.5081 35.7387 86.4775C33.2881 82.51 33.725 77.0256 34.1094 72.1863C34.2069 70.9694 34.2969 69.8181 34.3419 68.7306C34.3856 66.4355 34.2873 64.1399 34.0475 61.8569C33.4098 57.7042 33.6396 53.4644 34.7225 49.405C35.1711 47.9584 35.9164 46.6211 36.9107 45.4786C37.905 44.3361 39.1266 43.4134 40.4975 42.7694C43.3089 41.5401 46.3278 40.8548 49.3944 40.75H49.4056C55.2012 40.75 60.9744 41.5544 63.9387 47.3838V47.395C65.5197 52.0756 66.1843 57.0168 65.8962 61.9487C65.9056 63.7656 65.9169 65.6462 66.0237 67.4837C66.0556 68.0462 66.0931 68.6088 66.1306 69.1713C66.4756 74.4981 66.8656 80.5375 64.415 85.4331C61.3606 91.5475 53.6506 92.4062 49.5687 92.4062ZM49.4112 41.0444C43.235 41.5338 37.2237 42.8969 34.9981 49.4987C33.9298 53.5204 33.7044 57.7196 34.3362 61.8325C34.5752 64.1281 34.6716 66.4362 34.625 68.7438C34.58 69.8388 34.49 70.9938 34.3925 72.2125C34.0175 77.0069 33.5787 82.4406 35.9787 86.3256C39.0125 91.2362 45.7812 91.9975 48.5506 92.095C52.1544 92.2244 60.8862 91.8194 64.1469 85.3056C66.5619 80.4813 66.1737 74.485 65.8344 69.1956L65.7275 67.5081C65.6187 65.6631 65.6094 63.7787 65.6 61.9581C65.886 57.0662 65.2297 52.165 63.6669 47.5206C60.7812 41.83 55.1094 41.0463 49.4112 41.0444Z" fill="black"/>
<path fillRule="evenodd" clipRule="evenodd" d="M50.4537 48.8669C51.5187 55.0544 61.6475 53.425 60.1925 47.1794C58.88 41.5769 50.0994 43.1275 50.4537 48.8669Z" fill="white"/>
<path d="M55.265 52.9094C54.6349 52.9117 54.0088 52.8091 53.4125 52.6056C52.6006 52.3371 51.88 51.8467 51.3323 51.19C50.7846 50.5332 50.4315 49.7363 50.3131 48.8894V48.8744C50.2384 47.5796 50.6688 46.3063 51.5136 45.3223C52.3584 44.3383 53.552 43.7202 54.8431 43.5981C56.0403 43.3497 57.2871 43.5824 58.314 44.2459C59.341 44.9093 60.0656 45.9503 60.3313 47.1437C60.551 47.9209 60.5493 48.7439 60.3264 49.5201C60.1034 50.2963 59.668 50.9948 59.0694 51.5369C58.0088 52.4392 56.6573 52.9268 55.265 52.9094ZM50.5963 48.85C50.7088 49.6445 51.0408 50.3918 51.5549 51.0079C52.069 51.624 52.7448 52.0845 53.5063 52.3375C54.4136 52.6417 55.3837 52.7084 56.3241 52.5311C57.2645 52.3539 58.1438 51.9386 58.8781 51.325C59.4397 50.8158 59.8475 50.1595 60.0552 49.4304C60.263 48.7014 60.2625 47.9288 60.0538 47.2C59.8002 46.077 59.1146 45.0991 58.1454 44.478C57.1761 43.8569 56.0012 43.6425 54.875 43.8812C53.6582 43.9966 52.5332 44.5783 51.7356 45.5045C50.9381 46.4307 50.5298 47.6295 50.5963 48.85Z" fill="black"/>
<path fillRule="evenodd" clipRule="evenodd" d="M38.3525 49.8681C39.7325 55.2625 48.3687 53.875 48.0425 48.4713C47.6525 41.9913 37.0306 43.2419 38.3506 49.8681" fill="white"/>
<path d="M42.9594 53.4269C42.0811 53.4353 41.2145 53.2252 40.4375 52.8156C39.8829 52.5145 39.3983 52.0993 39.0157 51.5974C38.633 51.0955 38.361 50.5183 38.2175 49.9037C38.0043 49.064 38.037 48.1806 38.3116 47.3589C38.5862 46.5372 39.0911 45.8117 39.7662 45.2687C40.5809 44.6475 41.5449 44.2521 42.5611 44.1224C43.5774 43.9927 44.6098 44.1333 45.5544 44.53C46.3232 44.8658 46.9793 45.4155 47.4447 46.1135C47.9101 46.8116 48.1651 47.6286 48.1794 48.4675C48.223 49.6768 47.8026 50.857 47.0044 51.7665C46.2061 52.6759 45.0904 53.2458 43.8856 53.3594C43.5791 53.4058 43.2694 53.4283 42.9594 53.4269ZM38.4875 49.8381C38.7847 50.9687 39.5102 51.9392 40.5103 52.5443C41.5105 53.1493 42.7069 53.3415 43.8462 53.08C44.9821 52.9754 46.035 52.4407 46.7896 51.5854C47.5442 50.7301 47.9434 49.6187 47.9056 48.4787C47.8937 47.6899 47.655 46.9211 47.2182 46.2642C46.7813 45.6073 46.1647 45.0899 45.4419 44.7737C44.544 44.3962 43.5624 44.2623 42.5961 44.3854C41.6299 44.5085 40.7133 44.8844 39.9387 45.475C39.3043 45.9868 38.8302 46.6701 38.5729 47.4436C38.3156 48.2171 38.286 49.0482 38.4875 49.8381Z" fill="black"/>
<path fillRule="evenodd" clipRule="evenodd" d="M51.6762 56.3012C51.765 57.1541 51.775 58.0134 51.7062 58.8681C51.5 59.2562 51.0968 59.2975 50.75 59.455C50.5135 59.4179 50.2905 59.3211 50.1018 59.1738C49.9132 59.0265 49.7652 58.8335 49.6718 58.6131C49.6201 57.6445 49.6458 56.6733 49.7487 55.7087L51.6762 56.3012Z" fill="white"/>
<path d="M50.7706 59.6069H50.7275C50.4655 59.5654 50.2185 59.4574 50.01 59.2933C49.8016 59.1292 49.6387 58.9144 49.5369 58.6694V58.63C49.4744 57.9668 49.4801 57.299 49.5537 56.6369C49.5781 56.3313 49.6025 56.0163 49.6119 55.6994V55.5119L51.8263 56.1907V56.2994C51.8263 56.5657 51.8487 56.8413 51.8712 57.1319C51.9401 57.7171 51.9351 58.3086 51.8562 58.8925V58.915L51.845 58.9357C51.7597 59.0765 51.6471 59.1988 51.5137 59.2954C51.3804 59.392 51.2291 59.4609 51.0687 59.4982C50.9806 59.53 50.8981 59.5582 50.8175 59.5957L50.7706 59.6069ZM49.8162 58.5738C49.8985 58.76 50.0248 58.9235 50.1841 59.0502C50.3435 59.177 50.5312 59.2631 50.7312 59.3013C50.8081 59.2694 50.8869 59.2413 50.9619 59.2132C51.206 59.1625 51.4217 59.0211 51.5656 58.8175C51.6326 58.2652 51.6326 57.7068 51.5656 57.1544C51.5469 56.8975 51.5281 56.6519 51.5225 56.4044L49.8819 55.9019C49.8687 56.1569 49.85 56.41 49.8312 56.6519C49.7598 57.2902 49.7535 57.9342 49.8125 58.5738H49.8162Z" fill="black"/>
<path d="M40.7338 50.5675C41.5394 50.5675 42.1925 49.8606 42.1925 48.9887C42.1925 48.1168 41.5394 47.41 40.7338 47.41C39.9281 47.41 39.275 48.1168 39.275 48.9887C39.275 49.8606 39.9281 50.5675 40.7338 50.5675Z" fill="black"/>
<path d="M41.3975 49.7462C41.587 49.7462 41.7406 49.5666 41.7406 49.345C41.7406 49.1234 41.587 48.9437 41.3975 48.9437C41.208 48.9437 41.0544 49.1234 41.0544 49.345C41.0544 49.5666 41.208 49.7462 41.3975 49.7462Z" fill="white"/>
<path d="M52.9512 50.1737C53.7434 50.1737 54.3856 49.4669 54.3856 48.595C54.3856 47.7231 53.7434 47.0162 52.9512 47.0162C52.159 47.0162 51.5168 47.7231 51.5168 48.595C51.5168 49.4669 52.159 50.1737 52.9512 50.1737Z" fill="black"/>
<path d="M53.6037 49.3525C53.7901 49.3525 53.9412 49.1728 53.9412 48.9512C53.9412 48.7296 53.7901 48.55 53.6037 48.55C53.4173 48.55 53.2662 48.7296 53.2662 48.9512C53.2662 49.1728 53.4173 49.3525 53.6037 49.3525Z" fill="white"/>
<path fillRule="evenodd" clipRule="evenodd" d="M47.5082 56.2131C46.8725 57.7543 47.8625 60.8387 49.5894 58.5643C49.5377 57.5957 49.5634 56.6245 49.6663 55.66L47.5082 56.2131Z" fill="white"/>
<path d="M48.4363 59.5244C48.2872 59.5236 48.1411 59.4835 48.0125 59.4081C47.5988 58.989 47.3175 58.4575 47.2038 57.8797C47.0901 57.3018 47.149 56.7033 47.3731 56.1588L47.4013 56.0912L49.8125 55.4688V55.6562C49.8031 55.975 49.7769 56.2937 49.7525 56.5937C49.6797 57.2358 49.6734 57.8836 49.7338 58.5269V58.5869L49.6981 58.6356C49.2013 59.3125 48.7719 59.5244 48.4363 59.5244ZM47.6188 56.3369C47.4399 56.8098 47.3957 57.323 47.491 57.8195C47.5863 58.316 47.8175 58.7764 48.1588 59.1494C48.605 59.4044 49.0963 58.9619 49.4356 58.5212C49.3815 57.8776 49.3897 57.2302 49.46 56.5881C49.4788 56.3462 49.4975 56.0987 49.5106 55.8531L47.6188 56.3369Z" fill="black"/>
<path fillRule="evenodd" clipRule="evenodd" d="M47.7256 53.2431C47.4297 53.2709 47.1446 53.3687 46.8939 53.5284C46.6432 53.688 46.4341 53.905 46.2837 54.1614C46.1334 54.4178 46.0461 54.7062 46.0292 55.003C46.0122 55.2997 46.0661 55.5963 46.1863 55.8681C47.0019 57.3456 48.8244 55.7369 49.9606 55.8887C51.2731 55.915 52.3381 57.2706 53.3863 56.1344C54.5525 54.8706 52.8838 53.6387 51.5788 53.0894L47.7256 53.2431Z" fill="#F6D2A2"/>
<path d="M52.4525 56.7363C52.0339 56.7034 51.6257 56.5894 51.2507 56.4006C50.8465 56.1998 50.4083 56.0764 49.9588 56.0369H49.9419C49.4818 56.0372 49.027 56.1343 48.6069 56.3219C47.6863 56.6406 46.6419 57.0006 46.0569 55.9469C45.9151 55.6816 45.8431 55.3846 45.8477 55.0838C45.8523 54.783 45.9333 54.4884 46.0832 54.2275C46.241 53.9202 46.4724 53.6568 46.7566 53.4605C47.0409 53.2642 47.3693 53.1413 47.7125 53.1025L51.6069 52.9375L51.6369 52.9506C52.6063 53.3594 53.7107 54.1075 53.9 54.9813C53.9255 55.1922 53.9077 55.4062 53.8479 55.6101C53.788 55.814 53.6874 56.0036 53.552 56.1674C53.4166 56.3312 53.2493 56.4658 53.0603 56.5629C52.8713 56.6601 52.6645 56.7178 52.4525 56.7325V56.7363ZM49.9719 55.75C50.4565 55.7897 50.9292 55.9208 51.365 56.1363C52.1019 56.4456 52.6775 56.6894 53.2794 56.0425C53.4137 55.9188 53.5146 55.7632 53.5729 55.5902C53.6313 55.4172 53.6451 55.2323 53.6132 55.0525C53.45 54.3025 52.4094 53.6106 51.5507 53.245L47.7332 53.3969C47.4401 53.4338 47.1604 53.5413 46.9181 53.7101C46.6757 53.879 46.478 54.1041 46.3419 54.3663C46.2158 54.5839 46.147 54.8301 46.1421 55.0817C46.1372 55.3332 46.1963 55.5819 46.3138 55.8044C46.7788 56.6463 47.6263 56.3556 48.5075 56.0481C48.9683 55.8439 49.4679 55.7422 49.9719 55.75Z" fill="#231F20"/>
<path fillRule="evenodd" clipRule="evenodd" d="M47.5775 53.1812C47.4894 51.1281 51.4063 50.875 51.875 52.5906C52.3438 54.3062 47.7763 54.7056 47.5831 53.1831L47.5775 53.1812Z" fill="black"/>
</svg>
