<svg width="100" height="125" viewBox="0 0 100 125" fill="none" xmlns="http://www.w3.org/2000/svg">
<path fill-rule="evenodd" clip-rule="evenodd" d="M53.0114 0.000865032C57.2538 -0.00565038 61.0191 -0.0114335 64.4965 1.42898C67.974 2.8694 70.6323 5.53589 73.6276 8.54038C79.5624 14.4935 85.5065 20.4376 91.4596 26.3724C94.4641 29.3677 97.1306 32.026 98.571 35.5035C100.011 38.9809 100.006 42.7462 99.9991 46.9886C99.975 62.7129 99.9982 78.4373 99.9983 94.1615C99.9986 99.702 99.9988 104.476 99.4849 108.299C98.9341 112.395 97.6919 116.323 94.5066 119.508C91.3213 122.693 87.3941 123.935 83.2972 124.486C79.4744 125 74.7006 125 69.1601 125H30.8382C25.2977 125 20.5239 125 16.701 124.486C12.6041 123.935 8.67701 122.693 5.49168 119.508C2.30635 116.323 1.06421 112.395 0.513399 108.299C-0.000564337 104.476 -0.000296178 99.7019 1.52505e-05 94.1615L3.31315e-05 31.2512C3.31315e-05 31.1136 2.56811e-05 30.9764 1.82306e-05 30.8398C-0.000292453 25.2993 -0.000559926 20.5256 0.513403 16.7028C1.06422 12.6059 2.30635 8.67873 5.49168 5.4934C8.67702 2.30807 12.6041 1.06593 16.701 0.515119C20.5238 0.00115639 25.2976 0.00142382 30.838 0.00173524C38.2291 0.00213814 45.6203 0.0122238 53.0114 0.000865032Z" fill="#E14E1D"/>
<g clip-path="url(#clip0_410_3693)">
<path d="M65.9375 35H34.0625C26.296 35 20 41.296 20 49.0625V80.9375C20 88.704 26.296 95 34.0625 95H65.9375C73.704 95 80 88.704 80 80.9375V49.0625C80 41.296 73.704 35 65.9375 35Z" fill="#E14E1D"/>
<path d="M31.25 43.9062L33.268 66.5452H59.2156L58.3449 76.2554L49.9904 78.5143L41.6516 76.2587L41.094 70.0238H33.5797L34.6543 82.0428L49.9888 86.3019L65.3427 82.0428L67.4012 59.0598H40.115L39.4299 51.3934H68.0795L68.75 43.9062H31.25Z" fill="white"/>
<path d="M50 43.9062H31.25L33.268 66.5452H50V59.0598H40.115L39.4299 51.3934H50V43.9062ZM50 78.511L49.9904 78.5143L41.6516 76.2587L41.094 70.0238H33.5797L34.6543 82.0428L49.9888 86.3019L50.0002 86.2986V78.511H50Z" fill="#EBEBEB"/>
</g>
<defs>
<clipPath id="clip0_410_3693">
<rect width="60" height="60" fill="white" transform="translate(20 35)"/>
</clipPath>
</defs>
</svg>
