<svg width="100" height="125" viewBox="0 0 100 125" fill="none" xmlns="http://www.w3.org/2000/svg">
<path fillRule="evenodd" clipRule="evenodd" d="M53.0114 0.000865032C57.2538 -0.00565038 61.0191 -0.0114335 64.4965 1.42898C67.974 2.8694 70.6323 5.53589 73.6276 8.54038C79.5624 14.4935 85.5065 20.4376 91.4596 26.3724C94.4641 29.3677 97.1306 32.026 98.571 35.5035C100.011 38.9809 100.006 42.7462 99.9991 46.9886C99.975 62.7129 99.9982 78.4373 99.9983 94.1615C99.9986 99.702 99.9988 104.476 99.4849 108.299C98.9341 112.395 97.6919 116.323 94.5066 119.508C91.3213 122.693 87.3941 123.935 83.2972 124.486C79.4744 125 74.7006 125 69.1601 125H30.8382C25.2977 125 20.5239 125 16.701 124.486C12.6041 123.935 8.67701 122.693 5.49168 119.508C2.30635 116.323 1.06421 112.395 0.513399 108.299C-0.000564337 104.476 -0.000296178 99.7019 1.52505e-05 94.1615L3.31315e-05 31.2512C3.31315e-05 31.1136 2.56811e-05 30.9764 1.82306e-05 30.8398C-0.000292453 25.2993 -0.000559926 20.5256 0.513403 16.7028C1.06422 12.6059 2.30635 8.67873 5.49168 5.4934C8.67702 2.30807 12.6041 1.06593 16.701 0.515119C20.5238 0.00115639 25.2976 0.00142382 30.838 0.00173524C38.2291 0.00213814 45.6203 0.0122238 53.0114 0.000865032Z" fill="white"/>
<path d="M50 70.75C52.0711 70.75 53.75 69.0711 53.75 67C53.75 64.9289 52.0711 63.25 50 63.25C47.9289 63.25 46.25 64.9289 46.25 67C46.25 69.0711 47.9289 70.75 50 70.75Z" fill="#756C6C"/>
<path d="M68.5613 48.4387C66.1282 45.9814 63.2335 44.0292 60.0435 42.694C56.8536 41.3589 53.4313 40.6672 49.9732 40.6587C46.5152 40.6502 43.0895 41.325 39.893 42.6444C36.6966 43.9639 33.7923 45.9019 31.3471 48.3471C28.9019 50.7923 26.9639 53.6966 25.6444 56.893C24.325 60.0895 23.6502 63.5152 23.6587 66.9732C23.6672 70.4313 24.3589 73.8536 25.694 77.0435C27.0292 80.2335 28.9814 83.1282 31.4387 85.5613C33.8718 88.0186 36.7665 89.9708 39.9565 91.306C43.1464 92.6411 46.5687 93.3328 50.0268 93.3413C53.4848 93.3498 56.9105 92.675 60.107 91.3555C63.3034 90.0361 66.2077 88.0981 68.6529 85.6529C71.0981 83.2077 73.0361 80.3034 74.3555 77.107C75.675 73.9105 76.3498 70.4848 76.3413 67.0268C76.3328 63.5687 75.6411 60.1464 74.306 56.9565C72.9708 53.7665 71.0186 50.8718 68.5613 48.4387ZM50 76.375C48.1458 76.375 46.3332 75.8252 44.7915 74.795C43.2498 73.7649 42.0482 72.3007 41.3386 70.5877C40.6291 68.8746 40.4434 66.9896 40.8051 65.171C41.1669 63.3525 42.0598 61.682 43.3709 60.3709C44.682 59.0598 46.3525 58.1669 48.171 57.8051C49.9896 57.4434 51.8746 57.6291 53.5877 58.3386C55.3007 59.0482 56.7649 60.2498 57.795 61.7915C58.8252 63.3332 59.375 65.1458 59.375 67C59.3722 69.4855 58.3836 71.8685 56.626 73.626C54.8685 75.3836 52.4855 76.3722 50 76.375Z" fill="#756C6C"/>
</svg>
