<svg width="100" height="125" viewBox="0 0 100 125" fill="none" xmlns="http://www.w3.org/2000/svg">
<path fillRule="evenodd" clipRule="evenodd" d="M53.0114 0.000865032C57.2538 -0.00565038 61.0191 -0.0114335 64.4965 1.42898C67.974 2.8694 70.6323 5.53589 73.6276 8.54038C79.5624 14.4935 85.5065 20.4376 91.4596 26.3724C94.4641 29.3677 97.1306 32.026 98.571 35.5035C100.011 38.9809 100.006 42.7462 99.9991 46.9886C99.975 62.7129 99.9982 78.4373 99.9983 94.1615C99.9986 99.702 99.9988 104.476 99.4849 108.299C98.9341 112.395 97.6919 116.323 94.5066 119.508C91.3213 122.693 87.3941 123.935 83.2972 124.486C79.4744 125 74.7006 125 69.1601 125H30.8382C25.2977 125 20.5239 125 16.701 124.486C12.6041 123.935 8.67701 122.693 5.49168 119.508C2.30635 116.323 1.06421 112.395 0.513399 108.299C-0.000564337 104.476 -0.000296178 99.7019 1.52505e-05 94.1615L3.31315e-05 31.2512C3.31315e-05 31.1136 2.56811e-05 30.9764 1.82306e-05 30.8398C-0.000292453 25.2993 -0.000559926 20.5256 0.513403 16.7028C1.06422 12.6059 2.30635 8.67873 5.49168 5.4934C8.67702 2.30807 12.6041 1.06593 16.701 0.515119C20.5238 0.00115639 25.2976 0.00142382 30.838 0.00173524C38.2291 0.00213814 45.6203 0.0122238 53.0114 0.000865032Z" fill="white"/>
<g clipPath="url(#clip0_413_3815)">
<path d="M39.3486 83.689C39.3486 83.689 36.2553 85.4878 41.5501 86.0965C47.9647 86.8282 51.2429 86.7234 58.3119 85.3854C58.3119 85.3854 60.1705 86.5507 62.7657 87.5602C46.9194 94.3516 26.9019 87.1666 39.3486 83.689ZM37.4122 74.8263C37.4122 74.8263 33.9428 77.3946 39.2415 77.9426C46.0937 78.6495 51.5049 78.7073 60.8687 76.9043C60.8687 76.9043 62.1639 78.2173 64.2003 78.9354C45.0409 84.5379 23.7008 79.3772 37.4122 74.8263Z" fill="#5382A1"/>
<path d="M53.7364 59.7926C57.6411 64.2879 52.7105 68.3332 52.7105 68.3332C52.7105 68.3332 62.6248 63.2152 58.0716 56.806C53.8191 50.8294 50.5578 47.8594 68.2126 37.6205C68.2126 37.6205 40.5005 44.5418 53.7364 59.7926Z" fill="#E76F00"/>
<path d="M74.6947 90.2442C74.6947 90.2442 76.9838 92.1302 72.1735 93.5894C63.0268 96.3605 34.1035 97.1972 26.0686 93.6998C23.1804 92.4436 28.5968 90.6998 30.3005 90.3337C32.0773 89.9484 33.0929 90.0204 33.0929 90.0204C29.8808 87.7575 12.3312 94.4634 24.1786 96.3837C56.4879 101.623 83.0752 94.0244 74.6947 90.2442ZM40.8359 65.6437C40.8359 65.6437 26.124 69.1383 35.6262 70.4069C39.6383 70.9441 47.6363 70.8227 55.0864 70.1983C61.175 69.6851 67.2886 68.5929 67.2886 68.5929C67.2886 68.5929 65.1418 69.5123 63.5886 70.5729C48.6486 74.5022 19.7872 72.6743 28.096 68.655C35.1228 65.2584 40.8359 65.6437 40.8359 65.6437ZM67.2279 80.3958C82.4154 72.5039 75.3933 64.92 70.4921 65.9419C69.2907 66.1917 68.7551 66.4083 68.7551 66.4083C68.7551 66.4083 69.2011 65.7098 70.0529 65.4075C79.749 61.9985 87.2061 75.4615 66.9228 80.7935C66.9228 80.7937 67.1579 80.5837 67.2279 80.3958Z" fill="#5382A1"/>
<path d="M58.0716 21.087C58.0716 21.087 66.4826 29.501 50.0942 42.4388C36.9526 52.8174 47.0975 58.7349 50.0888 65.4959C42.4177 58.5748 36.788 52.482 40.565 46.8115C46.1082 38.4872 61.4651 34.4517 58.0716 21.087Z" fill="#E76F00"/>
<path d="M42.3285 101.781C56.9063 102.714 79.2922 101.263 79.8224 94.3652C79.8224 94.3652 78.8033 96.9804 67.7745 99.057C55.332 101.398 39.9861 101.125 30.8842 99.6244C30.8844 99.6244 32.7472 101.167 42.3285 101.781Z" fill="#5382A1"/>
</g>
<defs>
<clipPath id="clip0_413_3815">
<rect width="60" height="81.0938" fill="white" transform="translate(20 21)"/>
</clipPath>
</defs>
</svg>
