<svg width="100" height="125" viewBox="0 0 100 125" fill="none" xmlns="http://www.w3.org/2000/svg">
<path fillRule="evenodd" clipRule="evenodd" d="M53.0114 0.000865032C57.2538 -0.00565038 61.0191 -0.0114335 64.4965 1.42898C67.974 2.8694 70.6323 5.53589 73.6276 8.54038C79.5624 14.4935 85.5065 20.4376 91.4596 26.3724C94.4641 29.3677 97.1306 32.026 98.571 35.5035C100.011 38.9809 100.006 42.7462 99.9991 46.9886C99.975 62.7129 99.9982 78.4373 99.9983 94.1615C99.9986 99.702 99.9988 104.476 99.4849 108.299C98.9341 112.395 97.6919 116.323 94.5066 119.508C91.3213 122.693 87.3941 123.935 83.2972 124.486C79.4744 125 74.7006 125 69.1601 125H30.8382C25.2977 125 20.5239 125 16.701 124.486C12.6041 123.935 8.67701 122.693 5.49168 119.508C2.30635 116.323 1.06421 112.395 0.513399 108.299C-0.000564337 104.476 -0.000296178 99.7019 1.52505e-05 94.1615L3.31315e-05 31.2512C3.31315e-05 31.1136 2.56811e-05 30.9764 1.82306e-05 30.8398C-0.000292453 25.2993 -0.000559926 20.5256 0.513403 16.7028C1.06422 12.6059 2.30635 8.67873 5.49168 5.4934C8.67702 2.30807 12.6041 1.06593 16.701 0.515119C20.5238 0.00115639 25.2976 0.00142382 30.838 0.00173524C38.2291 0.00213814 45.6203 0.0122238 53.0114 0.000865032Z" fill="#F5DE19"/>
<path d="M56.6948 75.6094C57.4403 77.1237 58.5986 78.3966 60.0361 79.2812C61.4737 80.1659 63.1319 80.6263 64.8198 80.6094C68.226 80.6094 70.4042 78.9062 70.4042 76.5469C70.4042 73.7344 68.1667 72.7281 64.4167 71.0875L62.3604 70.2063C56.4229 67.6781 52.4854 64.5125 52.4854 57.8188C52.4854 51.6531 57.1729 46.9563 64.526 46.9563C66.9064 46.7844 69.2846 47.3171 71.3642 48.488C73.4437 49.6589 75.1324 51.4162 76.2198 53.5406L69.7917 57.65C69.373 56.5966 68.644 55.6954 67.7013 55.0659C66.7587 54.4363 65.6469 54.1082 64.5135 54.125C64.019 54.0755 63.5197 54.1295 63.0472 54.2837C62.5747 54.4379 62.1396 54.6887 61.7694 55.0204C61.3993 55.352 61.1023 55.7571 60.8974 56.2098C60.6924 56.6626 60.5841 57.1531 60.5792 57.65C60.5792 60.1156 62.1073 61.1156 65.6354 62.65L67.6917 63.5313C74.6792 66.5281 78.6292 69.5813 78.6292 76.4469C78.6292 83.85 72.8135 87.9062 65.0042 87.9062C61.9614 88.1001 58.9275 87.4093 56.2686 85.9171C53.6097 84.4249 51.4395 82.1951 50.0198 79.4969L56.6948 75.6094ZM27.6479 76.3219C28.9385 78.6125 30.1135 80.55 32.9385 80.55C35.6385 80.55 37.3448 79.4937 37.3448 75.3844V47.425H45.5667V75.4937C45.5667 84.0062 40.5667 87.8813 33.2885 87.8813C30.7159 88.0219 28.1609 87.3807 25.9594 86.0421C23.758 84.7035 22.0131 82.7301 20.9542 80.3813L27.6479 76.3219Z" fill="black"/>
</svg>
