<svg width="100" height="125" viewBox="0 0 100 125" fill="none" xmlns="http://www.w3.org/2000/svg">
<path fill-rule="evenodd" clip-rule="evenodd" d="M53.0114 0.000865032C57.2538 -0.00565038 61.0191 -0.0114335 64.4965 1.42898C67.974 2.8694 70.6323 5.53589 73.6276 8.54038C79.5624 14.4935 85.5065 20.4376 91.4596 26.3724C94.4641 29.3677 97.1306 32.026 98.571 35.5035C100.011 38.9809 100.006 42.7462 99.9991 46.9886C99.975 62.7129 99.9982 78.4373 99.9983 94.1615C99.9986 99.702 99.9988 104.476 99.4849 108.299C98.9341 112.395 97.6919 116.323 94.5066 119.508C91.3213 122.693 87.3941 123.935 83.2972 124.486C79.4744 125 74.7006 125 69.1601 125H30.8382C25.2977 125 20.5239 125 16.701 124.486C12.6041 123.935 8.67701 122.693 5.49168 119.508C2.30635 116.323 1.06421 112.395 0.513399 108.299C-0.000564337 104.476 -0.000296178 99.7019 1.52505e-05 94.1615L3.31315e-05 31.2512C3.31315e-05 31.1136 2.56811e-05 30.9764 1.82306e-05 30.8398C-0.000292453 25.2993 -0.000559926 20.5256 0.513403 16.7028C1.06422 12.6059 2.30635 8.67873 5.49168 5.4934C8.67702 2.30807 12.6041 1.06593 16.701 0.515119C20.5238 0.00115639 25.2976 0.00142382 30.838 0.00173524C38.2291 0.00213814 45.6203 0.0122238 53.0114 0.000865032Z" fill="white"/>
<path d="M32.5 45.5H37.5V50.5H32.5V63C32.5 64.3261 31.9732 65.5979 31.0355 66.5355C30.0979 67.4732 28.8261 68 27.5 68C28.8261 68 30.0979 68.5268 31.0355 69.4645C31.9732 70.4021 32.5 71.6739 32.5 73V85.5H37.5V90.5H32.5C29.825 89.825 27.5 88.25 27.5 85.5V75.5C27.5 74.1739 26.9732 72.9021 26.0355 71.9645C25.0979 71.0268 23.8261 70.5 22.5 70.5H20V65.5H22.5C23.8261 65.5 25.0979 64.9732 26.0355 64.0355C26.9732 63.0979 27.5 61.8261 27.5 60.5V50.5C27.5 49.1739 28.0268 47.9021 28.9645 46.9645C29.9021 46.0268 31.1739 45.5 32.5 45.5ZM67.5 45.5C68.8261 45.5 70.0979 46.0268 71.0355 46.9645C71.9732 47.9021 72.5 49.1739 72.5 50.5V60.5C72.5 61.8261 73.0268 63.0979 73.9645 64.0355C74.9021 64.9732 76.1739 65.5 77.5 65.5H80V70.5H77.5C76.1739 70.5 74.9021 71.0268 73.9645 71.9645C73.0268 72.9021 72.5 74.1739 72.5 75.5V85.5C72.5 86.8261 71.9732 88.0979 71.0355 89.0355C70.0979 89.9732 68.8261 90.5 67.5 90.5H62.5V85.5H67.5V73C67.5 71.6739 68.0268 70.4021 68.9645 69.4645C69.9021 68.5268 71.1739 68 72.5 68C71.1739 68 69.9021 67.4732 68.9645 66.5355C68.0268 65.5979 67.5 64.3261 67.5 63V50.5H62.5V45.5H67.5ZM50 75.5C50.663 75.5 51.2989 75.7634 51.7678 76.2322C52.2366 76.7011 52.5 77.337 52.5 78C52.5 78.663 52.2366 79.2989 51.7678 79.7678C51.2989 80.2366 50.663 80.5 50 80.5C49.337 80.5 48.7011 80.2366 48.2322 79.7678C47.7634 79.2989 47.5 78.663 47.5 78C47.5 77.337 47.7634 76.7011 48.2322 76.2322C48.7011 75.7634 49.337 75.5 50 75.5ZM40 75.5C40.663 75.5 41.2989 75.7634 41.7678 76.2322C42.2366 76.7011 42.5 77.337 42.5 78C42.5 78.663 42.2366 79.2989 41.7678 79.7678C41.2989 80.2366 40.663 80.5 40 80.5C39.337 80.5 38.7011 80.2366 38.2322 79.7678C37.7634 79.2989 37.5 78.663 37.5 78C37.5 77.337 37.7634 76.7011 38.2322 76.2322C38.7011 75.7634 39.337 75.5 40 75.5ZM60 75.5C60.663 75.5 61.2989 75.7634 61.7678 76.2322C62.2366 76.7011 62.5 77.337 62.5 78C62.5 78.663 62.2366 79.2989 61.7678 79.7678C61.2989 80.2366 60.663 80.5 60 80.5C59.337 80.5 58.7011 80.2366 58.2322 79.7678C57.7634 79.2989 57.5 78.663 57.5 78C57.5 77.337 57.7634 76.7011 58.2322 76.2322C58.7011 75.7634 59.337 75.5 60 75.5Z" fill="black"/>
</svg>
