<svg width="100" height="125" viewBox="0 0 100 125" fill="none" xmlns="http://www.w3.org/2000/svg">
<path fill-rule="evenodd" clip-rule="evenodd" d="M53.0114 0.000865032C57.2538 -0.00565038 61.0191 -0.0114335 64.4965 1.42898C67.974 2.8694 70.6323 5.53589 73.6276 8.54038C79.5624 14.4935 85.5065 20.4376 91.4596 26.3724C94.4641 29.3677 97.1306 32.026 98.571 35.5035C100.011 38.9809 100.006 42.7462 99.9991 46.9886C99.975 62.7129 99.9982 78.4373 99.9983 94.1615C99.9986 99.702 99.9988 104.476 99.4849 108.299C98.9341 112.395 97.6919 116.323 94.5066 119.508C91.3213 122.693 87.3941 123.935 83.2972 124.486C79.4744 125 74.7006 125 69.1601 125H30.8382C25.2977 125 20.5239 125 16.701 124.486C12.6041 123.935 8.67701 122.693 5.49168 119.508C2.30635 116.323 1.06421 112.395 0.513399 108.299C-0.000564337 104.476 -0.000296178 99.7019 1.52505e-05 94.1615L3.31315e-05 31.2512C3.31315e-05 31.1136 2.56811e-05 30.9764 1.82306e-05 30.8398C-0.000292453 25.2993 -0.000559926 20.5256 0.513403 16.7028C1.06422 12.6059 2.30635 8.67873 5.49168 5.4934C8.67702 2.30807 12.6041 1.06593 16.701 0.515119C20.5238 0.00115639 25.2976 0.00142382 30.838 0.00173524C38.2291 0.00213814 45.6203 0.0122238 53.0114 0.000865032Z" fill="white"/>
<path d="M68.1959 69.35C68.2959 68.6 68.3459 67.825 68.3459 67C68.3459 66.2 68.2959 65.4 68.1709 64.65L73.2459 60.7C73.4645 60.5198 73.614 60.2692 73.6687 59.9912C73.7234 59.7131 73.68 59.4247 73.5459 59.175L68.7459 50.875C68.6045 50.6239 68.3789 50.4309 68.1089 50.3303C67.839 50.2296 67.5421 50.2277 67.2709 50.325L61.2959 52.725C60.0459 51.775 58.7209 50.975 57.2459 50.375L56.3459 44.025C56.3016 43.7388 56.1561 43.478 55.936 43.2899C55.7158 43.1019 55.4354 42.999 55.1459 43H45.5459C44.9459 43 44.4709 43.425 44.3709 44.025L43.4709 50.375C41.9959 50.975 40.6459 51.8 39.4209 52.725L33.4459 50.325C32.8959 50.125 32.2709 50.325 31.9709 50.875L27.1959 59.175C26.8959 59.7 26.9959 60.35 27.4959 60.7L32.5709 64.65C32.4459 65.4 32.3459 66.225 32.3459 67C32.3459 67.775 32.3959 68.6 32.5209 69.35L27.4459 73.3C27.2272 73.4803 27.0777 73.7308 27.023 74.0088C26.9683 74.2869 27.0117 74.5753 27.1459 74.825L31.9459 83.125C32.2459 83.675 32.8709 83.85 33.4209 83.675L39.3959 81.275C40.6459 82.225 41.9709 83.025 43.4459 83.625L44.3459 89.975C44.4709 90.575 44.9459 91 45.5459 91H55.1459C55.7459 91 56.2459 90.575 56.3209 89.975L57.2209 83.625C58.6959 83.025 60.0459 82.225 61.2709 81.275L67.2459 83.675C67.7959 83.875 68.4209 83.675 68.7209 83.125L73.5209 74.825C73.8209 74.275 73.6959 73.65 73.2209 73.3L68.1959 69.35ZM50.3459 76C45.3959 76 41.3459 71.95 41.3459 67C41.3459 62.05 45.3959 58 50.3459 58C55.2959 58 59.3459 62.05 59.3459 67C59.3459 71.95 55.2959 76 50.3459 76Z" fill="#756C6C"/>
</svg>
