<svg width="100" height="125" viewBox="0 0 100 125" fill="none" xmlns="http://www.w3.org/2000/svg">
<path fillRule="evenodd" clipRule="evenodd" d="M53.0114 0.000865032C57.2538 -0.00565038 61.0191 -0.0114335 64.4965 1.42898C67.974 2.8694 70.6323 5.53589 73.6276 8.54038C79.5624 14.4935 85.5065 20.4376 91.4596 26.3724C94.4641 29.3677 97.1306 32.026 98.571 35.5035C100.011 38.9809 100.006 42.7462 99.9991 46.9886C99.975 62.7129 99.9982 78.4373 99.9983 94.1615C99.9986 99.702 99.9988 104.476 99.4849 108.299C98.9341 112.395 97.6919 116.323 94.5066 119.508C91.3213 122.693 87.3941 123.935 83.2972 124.486C79.4744 125 74.7006 125 69.1601 125H30.8382C25.2977 125 20.5239 125 16.701 124.486C12.6041 123.935 8.67701 122.693 5.49168 119.508C2.30635 116.323 1.06421 112.395 0.513399 108.299C-0.000564337 104.476 -0.000296178 99.7019 1.52505e-05 94.1615L3.31315e-05 31.2512C3.31315e-05 31.1136 2.56811e-05 30.9764 1.82306e-05 30.8398C-0.000292453 25.2993 -0.000559926 20.5256 0.513403 16.7028C1.06422 12.6059 2.30635 8.67873 5.49168 5.4934C8.67702 2.30807 12.6041 1.06593 16.701 0.515119C20.5238 0.00115639 25.2976 0.00142382 30.838 0.00173524C38.2291 0.00213814 45.6203 0.0122238 53.0114 0.000865032Z" fill="white"/>
<path d="M27.5 45.5H72.5C73.163 45.5 73.7989 45.7634 74.2678 46.2322C74.7366 46.7011 75 47.337 75 48V88C75 88.663 74.7366 89.2989 74.2678 89.7678C73.7989 90.2366 73.163 90.5 72.5 90.5H27.5C26.837 90.5 26.2011 90.2366 25.7322 89.7678C25.2634 89.2989 25 88.663 25 88V48C25 47.337 25.2634 46.7011 25.7322 46.2322C26.2011 45.7634 26.837 45.5 27.5 45.5ZM37.5 76.75V66.75L42.5 71.75L47.5 66.75V76.75H52.5V59.25H47.5L42.5 64.25L37.5 59.25H32.5V76.75H37.5ZM65 69.25V59.25H60V69.25H55L62.5 76.75L70 69.25H65Z" fill="black"/>
</svg>
