<svg width="100" height="125" viewBox="0 0 100 125" fill="none" xmlns="http://www.w3.org/2000/svg">
<path fill-rule="evenodd" clip-rule="evenodd" d="M53.0114 0.000865032C57.2538 -0.00565038 61.0191 -0.0114335 64.4965 1.42898C67.974 2.8694 70.6323 5.53589 73.6276 8.54038C79.5624 14.4935 85.5065 20.4376 91.4596 26.3724C94.4641 29.3677 97.1306 32.026 98.571 35.5035C100.011 38.9809 100.006 42.7462 99.9991 46.9886C99.975 62.7129 99.9982 78.4373 99.9983 94.1615C99.9986 99.702 99.9988 104.476 99.4849 108.299C98.9341 112.395 97.6919 116.323 94.5066 119.508C91.3213 122.693 87.3941 123.935 83.2972 124.486C79.4744 125 74.7006 125 69.1601 125H30.8382C25.2977 125 20.5239 125 16.701 124.486C12.6041 123.935 8.67701 122.693 5.49168 119.508C2.30635 116.323 1.06421 112.395 0.513399 108.299C-0.000564337 104.476 -0.000296178 99.7019 1.52505e-05 94.1615L3.31315e-05 31.2512C3.31315e-05 31.1136 2.56811e-05 30.9764 1.82306e-05 30.8398C-0.000292453 25.2993 -0.000559926 20.5256 0.513403 16.7028C1.06422 12.6059 2.30635 8.67873 5.49168 5.4934C8.67702 2.30807 12.6041 1.06593 16.701 0.515119C20.5238 0.00115639 25.2976 0.00142382 30.838 0.00173524C38.2291 0.00213814 45.6203 0.0122238 53.0114 0.000865032Z" fill="#0E74CD"/>
<path d="M0 47H92V87H0V47Z" fill="white"/>
<path d="M39.9 57.06V78H35.7V64.38L30.09 78H26.91L21.27 64.38V78H17.07V57.06H21.84L28.5 72.63L35.16 57.06H39.9ZM51.2824 78.21C49.8224 78.21 48.5024 77.96 47.3224 77.46C46.1624 76.96 45.2424 76.24 44.5624 75.3C43.8824 74.36 43.5324 73.25 43.5124 71.97H48.0124C48.0724 72.83 48.3724 73.51 48.9124 74.01C49.4724 74.51 50.2324 74.76 51.1924 74.76C52.1724 74.76 52.9424 74.53 53.5024 74.07C54.0624 73.59 54.3424 72.97 54.3424 72.21C54.3424 71.59 54.1524 71.08 53.7724 70.68C53.3924 70.28 52.9124 69.97 52.3324 69.75C51.7724 69.51 50.9924 69.25 49.9924 68.97C48.6324 68.57 47.5224 68.18 46.6624 67.8C45.8224 67.4 45.0924 66.81 44.4724 66.03C43.8724 65.23 43.5724 64.17 43.5724 62.85C43.5724 61.61 43.8824 60.53 44.5024 59.61C45.1224 58.69 45.9924 57.99 47.1124 57.51C48.2324 57.01 49.5124 56.76 50.9524 56.76C53.1124 56.76 54.8624 57.29 56.2024 58.35C57.5624 59.39 58.3124 60.85 58.4524 62.73H53.8324C53.7924 62.01 53.4824 61.42 52.9024 60.96C52.3424 60.48 51.5924 60.24 50.6524 60.24C49.8324 60.24 49.1724 60.45 48.6724 60.87C48.1924 61.29 47.9524 61.9 47.9524 62.7C47.9524 63.26 48.1324 63.73 48.4924 64.11C48.8724 64.47 49.3324 64.77 49.8724 65.01C50.4324 65.23 51.2124 65.49 52.2124 65.79C53.5724 66.19 54.6824 66.59 55.5424 66.99C56.4024 67.39 57.1424 67.99 57.7624 68.79C58.3824 69.59 58.6924 70.64 58.6924 71.94C58.6924 73.06 58.4024 74.1 57.8224 75.06C57.2424 76.02 56.3924 76.79 55.2724 77.37C54.1524 77.93 52.8224 78.21 51.2824 78.21ZM66.5337 57.06V78H62.3337V57.06H66.5337Z" fill="#0E74CD"/>
</svg>
