<svg width="100" height="125" viewBox="0 0 100 125" fill="none" xmlns="http://www.w3.org/2000/svg">
<path fill-rule="evenodd" clip-rule="evenodd" d="M53.0114 0.000865032C57.2538 -0.00565038 61.0191 -0.0114335 64.4965 1.42898C67.974 2.8694 70.6323 5.53589 73.6276 8.54038C79.5624 14.4935 85.5065 20.4376 91.4596 26.3724C94.4641 29.3677 97.1306 32.026 98.571 35.5035C100.011 38.9809 100.006 42.7462 99.9991 46.9886C99.975 62.7129 99.9982 78.4373 99.9983 94.1615C99.9986 99.702 99.9988 104.476 99.4849 108.299C98.9341 112.395 97.6919 116.323 94.5066 119.508C91.3213 122.693 87.3941 123.935 83.2972 124.486C79.4744 125 74.7006 125 69.1601 125H30.8382C25.2977 125 20.5239 125 16.701 124.486C12.6041 123.935 8.67701 122.693 5.49168 119.508C2.30635 116.323 1.06421 112.395 0.513399 108.299C-0.000564337 104.476 -0.000296178 99.7019 1.52505e-05 94.1615L3.31315e-05 31.2512C3.31315e-05 31.1136 2.56811e-05 30.9764 1.82306e-05 30.8398C-0.000292453 25.2993 -0.000559926 20.5256 0.513403 16.7028C1.06422 12.6059 2.30635 8.67873 5.49168 5.4934C8.67702 2.30807 12.6041 1.06593 16.701 0.515119C20.5238 0.00115639 25.2976 0.00142382 30.838 0.00173524C38.2291 0.00213814 45.6203 0.0122238 53.0114 0.000865032Z" fill="white"/>
<g clip-path="url(#clip0_410_3696)">
<path d="M34.5544 76.9673H35.0544V76.4673V70.9891H37.5435C40.2109 70.9891 42.5272 68.6728 42.5272 66.0054V63.0163C42.5272 60.3488 40.2109 58.0326 37.5435 58.0326H30.0707H29.5707V58.5326V76.4673V76.9673H30.0707H34.5544ZM44.5163 76.4673V76.9673H45.0163H52.4891C55.1566 76.9673 57.4728 74.6511 57.4728 71.9836V63.0163C57.4728 60.3488 55.1566 58.0326 52.4891 58.0326H45.0163H44.5163V58.5326V76.4673ZM68.9294 63.5163H69.4294V63.0163V58.5326V58.0326H68.9294H59.962H59.462V58.5326V76.4673V76.9673H59.962H64.4457H64.9457V76.4673V70.9891H68.9294H69.4294V70.4891V66.0054V65.5054H68.9294H64.9457V63.5163H68.9294ZM28.5761 41.0978H70.4239C73.4358 41.0978 75.9022 43.5641 75.9022 46.576V88.4239C75.9022 91.4358 73.4358 93.9021 70.4239 93.9021H28.5761C25.5642 93.9021 23.0978 91.4358 23.0978 88.4239V46.576C23.0978 43.5641 25.5642 41.0978 28.5761 41.0978ZM50 63.5163H51.9891V71.4836H50V63.5163ZM35.0544 63.5163H37.0435V65.5054H35.0544V63.5163Z" fill="#DD2025" stroke="#DD2025"/>
</g>
<defs>
<clipPath id="clip0_410_3696">
<rect width="55" height="55" fill="white" transform="translate(22 40)"/>
</clipPath>
</defs>
</svg>
