<svg width="100" height="125" viewBox="0 0 100 125" fill="none" xmlns="http://www.w3.org/2000/svg">
<path fillRule="evenodd" clipRule="evenodd" d="M53.0114 0.000865032C57.2538 -0.00565038 61.0191 -0.0114335 64.4965 1.42898C67.974 2.8694 70.6323 5.53589 73.6276 8.54038C79.5624 14.4935 85.5065 20.4376 91.4596 26.3724C94.4641 29.3677 97.1306 32.026 98.571 35.5035C100.011 38.9809 100.006 42.7462 99.9991 46.9886C99.975 62.7129 99.9982 78.4373 99.9983 94.1615C99.9986 99.702 99.9988 104.476 99.4849 108.299C98.9341 112.395 97.6919 116.323 94.5066 119.508C91.3213 122.693 87.3941 123.935 83.2972 124.486C79.4744 125 74.7006 125 69.1601 125H30.8382C25.2977 125 20.5239 125 16.701 124.486C12.6041 123.935 8.67701 122.693 5.49168 119.508C2.30635 116.323 1.06421 112.395 0.513399 108.299C-0.000564337 104.476 -0.000296178 99.7019 1.52505e-05 94.1615L3.31315e-05 31.2512C3.31315e-05 31.1136 2.56811e-05 30.9764 1.82306e-05 30.8398C-0.000292453 25.2993 -0.000559926 20.5256 0.513403 16.7028C1.06422 12.6059 2.30635 8.67873 5.49168 5.4934C8.67702 2.30807 12.6041 1.06593 16.701 0.515119C20.5238 0.00115639 25.2976 0.00142382 30.838 0.00173524C38.2291 0.00213814 45.6203 0.0122238 53.0114 0.000865032Z" fill="#C64732"/>
<path d="M63.7148 51.2539H49.7461V37.2852C49.7461 37.1133 49.6055 36.9727 49.4336 36.9727H48.418C46.3683 36.9706 44.3384 37.3732 42.4447 38.1575C40.551 38.9418 38.8308 40.0923 37.3828 41.543C35.9572 42.9642 34.8215 44.6492 34.0391 46.5039C33.2266 48.4297 32.8125 50.4727 32.8125 52.5821C32.8125 54.6914 33.2266 56.7305 34.0391 58.6563C34.8242 60.5117 35.9492 62.1836 37.3828 63.6172C38.8164 65.0508 40.4844 66.1758 42.3438 66.961C44.2662 67.7765 46.3336 68.1951 48.4219 68.1914C50.4716 68.1935 52.5015 67.7909 54.3952 67.0066C56.2888 66.2223 58.009 65.0718 59.457 63.6211C60.8906 62.1875 62.0156 60.5196 62.8008 58.6602C63.6164 56.7378 64.0349 54.6703 64.0313 52.5821V51.5664C64.0273 51.3946 63.8867 51.2539 63.7148 51.2539ZM67.1484 49.086L67.0469 47.9844C66.7148 44.3907 65.1211 41 62.5508 38.4414C59.9829 35.8757 56.599 34.288 52.9844 33.9532L51.8789 33.8516C51.6953 33.836 51.5391 33.9766 51.5391 34.1602V49.1485C51.5391 49.3203 51.6797 49.461 51.8516 49.461L66.8359 49.4219C67.0195 49.418 67.1641 49.2657 67.1484 49.086Z" fill="white"/>
<path d="M40.34 84.54C40.34 85.66 40.07 86.71 39.53 87.69C39.01 88.67 38.18 89.46 37.04 90.06C35.92 90.66 34.5 90.96 32.78 90.96H29.27V99H25.07V78.06H32.78C34.4 78.06 35.78 78.34 36.92 78.9C38.06 79.46 38.91 80.23 39.47 81.21C40.05 82.19 40.34 83.3 40.34 84.54ZM32.6 87.57C33.76 87.57 34.62 87.31 35.18 86.79C35.74 86.25 36.02 85.5 36.02 84.54C36.02 82.5 34.88 81.48 32.6 81.48H29.27V87.57H32.6ZM58.592 84.54C58.592 85.66 58.322 86.71 57.782 87.69C57.262 88.67 56.432 89.46 55.292 90.06C54.172 90.66 52.752 90.96 51.032 90.96H47.522V99H43.322V78.06H51.032C52.652 78.06 54.032 78.34 55.172 78.9C56.312 79.46 57.162 80.23 57.722 81.21C58.302 82.19 58.592 83.3 58.592 84.54ZM50.852 87.57C52.012 87.57 52.872 87.31 53.432 86.79C53.992 86.25 54.272 85.5 54.272 84.54C54.272 82.5 53.132 81.48 50.852 81.48H47.522V87.57H50.852ZM75.8239 78.06V81.45H70.2439V99H66.0439V81.45H60.4639V78.06H75.8239Z" fill="white"/>
</svg>
