<svg width="100" height="125" viewBox="0 0 100 125" fill="none" xmlns="http://www.w3.org/2000/svg">
<path fill-rule="evenodd" clip-rule="evenodd" d="M53.0114 0.000865032C57.2538 -0.00565038 61.0191 -0.0114335 64.4965 1.42898C67.974 2.8694 70.6323 5.53589 73.6276 8.54038C79.5624 14.4935 85.5065 20.4376 91.4596 26.3724C94.4641 29.3677 97.1306 32.026 98.571 35.5035C100.011 38.9809 100.006 42.7462 99.9991 46.9886C99.975 62.7129 99.9982 78.4373 99.9983 94.1615C99.9986 99.702 99.9988 104.476 99.4849 108.299C98.9341 112.395 97.6919 116.323 94.5066 119.508C91.3213 122.693 87.3941 123.935 83.2972 124.486C79.4744 125 74.7006 125 69.1601 125H30.8382C25.2977 125 20.5239 125 16.701 124.486C12.6041 123.935 8.67701 122.693 5.49168 119.508C2.30635 116.323 1.06421 112.395 0.513399 108.299C-0.000564337 104.476 -0.000296178 99.7019 1.52505e-05 94.1615L3.31315e-05 31.2512C3.31315e-05 31.1136 2.56811e-05 30.9764 1.82306e-05 30.8398C-0.000292453 25.2993 -0.000559926 20.5256 0.513403 16.7028C1.06422 12.6059 2.30635 8.67873 5.49168 5.4934C8.67702 2.30807 12.6041 1.06593 16.701 0.515119C20.5238 0.00115639 25.2976 0.00142382 30.838 0.00173524C38.2291 0.00213814 45.6203 0.0122238 53.0114 0.000865032Z" fill="white"/>
<path d="M60.7138 52.0706H62.8569C63.1408 52.0706 63.4131 52.1834 63.6139 52.3842C63.8147 52.585 63.9275 52.8573 63.9275 53.1412C63.9275 53.4252 63.8147 53.6975 63.6139 53.8983C63.4131 54.0991 63.1408 54.2119 62.8569 54.2119H60.7138C60.4298 54.2119 60.1575 54.0991 59.9567 53.8983C59.7559 53.6975 59.6431 53.4252 59.6431 53.1412C59.6431 52.8573 59.7559 52.585 59.9567 52.3842C60.1575 52.1834 60.4298 52.0706 60.7138 52.0706Z" fill="#56B3B4"/>
<path d="M28.5706 86.3569H39.2844C39.5683 86.3569 39.8406 86.4697 40.0414 86.6705C40.2422 86.8712 40.355 87.1435 40.355 87.4275C40.355 87.5681 40.3273 87.7073 40.2735 87.8372C40.2197 87.9671 40.1408 88.0851 40.0414 88.1845C39.942 88.284 39.824 88.3628 39.6941 88.4166C39.5642 88.4704 39.425 88.4981 39.2844 88.4981H28.5706C28.287 88.4981 28.015 88.3856 27.8142 88.1852C27.6135 87.9848 27.5005 87.713 27.5 87.4294C27.4998 87.2886 27.5273 87.1492 27.581 87.0191C27.6347 86.889 27.7135 86.7707 27.8129 86.6711C27.9124 86.5715 28.0305 86.4925 28.1605 86.4385C28.2905 86.3846 28.4299 86.3569 28.5706 86.3569Z" fill="#EA5E5E"/>
<path d="M54.2863 69.2137H60.7156C60.9996 69.2137 61.2719 69.3265 61.4727 69.5273C61.6735 69.7281 61.7863 70.0004 61.7863 70.2844C61.7863 70.5683 61.6735 70.8406 61.4727 71.0414C61.2719 71.2422 60.9996 71.355 60.7156 71.355H54.2863C54.0023 71.355 53.73 71.2422 53.5292 71.0414C53.3284 70.8406 53.2156 70.5683 53.2156 70.2844C53.2156 70.0004 53.3284 69.7281 53.5292 69.5273C53.73 69.3265 54.0023 69.2137 54.2863 69.2137Z" fill="#BF85BF"/>
<path d="M41.4294 69.2137H50C50.284 69.2137 50.5563 69.3265 50.7571 69.5273C50.9578 69.7281 51.0706 70.0004 51.0706 70.2844C51.0706 70.5683 50.9578 70.8406 50.7571 71.0414C50.5563 71.2422 50.284 71.355 50 71.355H41.4294C41.1454 71.355 40.8731 71.2422 40.6723 71.0414C40.4716 70.8406 40.3588 70.5683 40.3588 70.2844C40.3588 70.0004 40.4716 69.7281 40.6723 69.5273C40.8731 69.3265 41.1454 69.2137 41.4294 69.2137Z" fill="#EA5E5E"/>
<path d="M28.5706 69.2137H37.1431C37.4271 69.2137 37.6994 69.3265 37.9002 69.5273C38.101 69.7281 38.2138 70.0004 38.2138 70.2844C38.2138 70.5683 38.101 70.8406 37.9002 71.0414C37.6994 71.2422 37.4271 71.355 37.1431 71.355H28.5706C28.287 71.355 28.015 71.2425 27.8142 71.0421C27.6135 70.8417 27.5005 70.5699 27.5 70.2862C27.4998 70.1455 27.5273 70.0061 27.581 69.876C27.6347 69.7458 27.7135 69.6276 27.8129 69.528C27.9124 69.4284 28.0305 69.3493 28.1605 69.2954C28.2905 69.2415 28.4299 69.2137 28.5706 69.2137Z" fill="#56B3B4"/>
<path d="M28.5706 77.7863H39.2844C39.5683 77.7863 39.8406 77.899 40.0414 78.0998C40.2422 78.3006 40.355 78.5729 40.355 78.8569C40.355 79.1408 40.2422 79.4131 40.0414 79.6139C39.8406 79.8147 39.5683 79.9275 39.2844 79.9275H28.5706C28.2867 79.9275 28.0144 79.8147 27.8136 79.6139C27.6128 79.4131 27.5 79.1408 27.5 78.8569C27.5 78.5729 27.6128 78.3006 27.8136 78.0998C28.0144 77.899 28.2867 77.7863 28.5706 77.7863ZM28.5706 60.6431H39.2844C39.5683 60.6431 39.8406 60.7559 40.0414 60.9567C40.2422 61.1575 40.355 61.4298 40.355 61.7138C40.355 61.9977 40.2422 62.27 40.0414 62.4708C39.8406 62.6716 39.5683 62.7844 39.2844 62.7844H28.5706C28.2867 62.7844 28.0144 62.6716 27.8136 62.4708C27.6128 62.27 27.5 61.9977 27.5 61.7138C27.5 61.4298 27.6128 61.1575 27.8136 60.9567C28.0144 60.7559 28.2867 60.6431 28.5706 60.6431Z" fill="#BF85BF"/>
<path d="M39.2863 47.7863H60.7138C60.9977 47.7863 61.27 47.8991 61.4708 48.0998C61.6716 48.3006 61.7844 48.5729 61.7844 48.8569C61.7844 49.1408 61.6716 49.4131 61.4708 49.6139C61.27 49.8147 60.9977 49.9275 60.7138 49.9275H39.2863C39.0023 49.9275 38.73 49.8147 38.5292 49.6139C38.3284 49.4131 38.2156 49.1408 38.2156 48.8569C38.2156 48.5729 38.3284 48.3006 38.5292 48.0998C38.73 47.8991 39.0023 47.7863 39.2863 47.7863Z" fill="#F7BA3E"/>
<path d="M28.5706 47.7863H35C35.2839 47.7863 35.5563 47.8991 35.757 48.0998C35.9578 48.3006 36.0706 48.5729 36.0706 48.8569C36.0709 48.9976 36.0434 49.1371 35.9897 49.2672C35.936 49.3973 35.8572 49.5155 35.7577 49.6151C35.6583 49.7148 35.5402 49.7938 35.4101 49.8477C35.2801 49.9016 35.1408 49.9294 35 49.9294H28.5706C28.4299 49.9294 28.2905 49.9016 28.1605 49.8477C28.0305 49.7938 27.9124 49.7148 27.8129 49.6151C27.7135 49.5155 27.6347 49.3973 27.581 49.2672C27.5273 49.1371 27.4998 48.9976 27.5 48.8569C27.5 48.5729 27.6128 48.3006 27.8136 48.0998C28.0144 47.8991 28.2867 47.7863 28.5706 47.7863Z" fill="#EA5E5E"/>
<path d="M37.1431 82.0706H39.2863C39.5702 82.0706 39.8425 82.1834 40.0433 82.3842C40.2441 82.585 40.3569 82.8573 40.3569 83.1412C40.3569 83.4252 40.2441 83.6975 40.0433 83.8983C39.8425 84.0991 39.5702 84.2119 39.2863 84.2119H37.1431C36.8592 84.2119 36.5869 84.0991 36.3861 83.8983C36.1853 83.6975 36.0725 83.4252 36.0725 83.1412C36.0725 82.8573 36.1853 82.585 36.3861 82.3842C36.5869 82.1834 36.8592 82.0706 37.1431 82.0706Z" fill="#F7BA3E"/>
<path d="M37.1431 56.3569H39.2863C39.5702 56.3569 39.8425 56.4697 40.0433 56.6705C40.2441 56.8712 40.3569 57.1436 40.3569 57.4275C40.3569 57.7114 40.2441 57.9838 40.0433 58.1845C39.8425 58.3853 39.5702 58.4981 39.2863 58.4981H37.1431C36.8592 58.4981 36.5869 58.3853 36.3861 58.1845C36.1853 57.9838 36.0725 57.7114 36.0725 57.4275C36.0725 57.1436 36.1853 56.8712 36.3861 56.6705C36.5869 56.4697 36.8592 56.3569 37.1431 56.3569ZM28.5706 82.0706H32.8569C33.1408 82.0706 33.4131 82.1834 33.6139 82.3842C33.8147 82.585 33.9275 82.8573 33.9275 83.1412C33.9275 83.4252 33.8147 83.6975 33.6139 83.8983C33.4131 84.0991 33.1408 84.2119 32.8569 84.2119H28.5706C28.287 84.2119 28.015 84.0993 27.8142 83.899C27.6135 83.6986 27.5005 83.4267 27.5 83.1431C27.4998 83.0024 27.5273 82.8629 27.581 82.7328C27.6347 82.6027 27.7135 82.4845 27.8129 82.3849C27.9124 82.2852 28.0305 82.2062 28.1605 82.1523C28.2905 82.0984 28.4299 82.0706 28.5706 82.0706Z" fill="#56B3B4"/>
<path d="M28.5706 56.3569H32.8569C33.1408 56.3569 33.4131 56.4697 33.6139 56.6705C33.8147 56.8712 33.9275 57.1436 33.9275 57.4275C33.9277 57.5683 33.9002 57.7077 33.8465 57.8378C33.7929 57.9679 33.714 58.0861 33.6146 58.1858C33.5151 58.2854 33.397 58.3644 33.267 58.4183C33.137 58.4722 32.9976 58.5 32.8569 58.5H28.5706C28.2867 58.5 28.0144 58.3872 27.8136 58.1864C27.6128 57.9856 27.5 57.7133 27.5 57.4294C27.4998 57.2886 27.5273 57.1492 27.581 57.0191C27.6347 56.889 27.7135 56.7707 27.8129 56.6711C27.9124 56.5715 28.0305 56.4925 28.1605 56.4385C28.2905 56.3846 28.4299 56.3569 28.5706 56.3569Z" fill="#F7BA3E"/>
<path opacity="0.5" d="M56.4294 82.0706H58.5725C58.8565 82.0706 59.1288 82.1834 59.3295 82.3842C59.5303 82.585 59.6431 82.8573 59.6431 83.1412C59.6431 83.4252 59.5303 83.6975 59.3295 83.8983C59.1288 84.0991 58.8565 84.2119 58.5725 84.2119H56.4294C56.1454 84.2119 55.8731 84.0991 55.6723 83.8983C55.4715 83.6975 55.3588 83.4252 55.3588 83.1412C55.3588 82.8573 55.4715 82.585 55.6723 82.3842C55.8731 82.1834 56.1454 82.0706 56.4294 82.0706ZM43.5706 82.0706H52.1413C52.4252 82.0706 52.6975 82.1834 52.8983 82.3842C53.0991 82.585 53.2119 82.8573 53.2119 83.1412C53.2119 83.4252 53.0991 83.6975 52.8983 83.8983C52.6975 84.0991 52.4252 84.2119 52.1413 84.2119H43.5706C43.287 84.2119 43.015 84.0993 42.8142 83.899C42.6135 83.6986 42.5005 83.4267 42.5 83.1431C42.4998 83.0024 42.5273 82.8629 42.581 82.7328C42.6347 82.6027 42.7135 82.4845 42.8129 82.3849C42.9124 82.2852 43.0305 82.2062 43.1605 82.1523C43.2905 82.0984 43.4299 82.0706 43.5706 82.0706ZM62.8569 82.0706H71.4275C71.7114 82.0706 71.9838 82.1834 72.1845 82.3842C72.3853 82.585 72.4981 82.8573 72.4981 83.1412C72.4981 83.4252 72.3853 83.6975 72.1845 83.8983C71.9838 84.0991 71.7114 84.2119 71.4275 84.2119H62.8569C62.5729 84.2119 62.3006 84.0991 62.0998 83.8983C61.899 83.6975 61.7863 83.4252 61.7863 83.1412C61.7863 82.8573 61.899 82.585 62.0998 82.3842C62.3006 82.1834 62.5729 82.0706 62.8569 82.0706Z" fill="#D0D4D8"/>
<path d="M45.7138 64.9294H62.8569C63.1408 64.9294 63.4131 65.0422 63.6139 65.243C63.8147 65.4437 63.9275 65.7161 63.9275 66C63.9275 66.284 63.8147 66.5563 63.6139 66.7571C63.4131 66.9578 63.1408 67.0706 62.8569 67.0706H45.7138C45.4298 67.0706 45.1575 66.9578 44.9567 66.7571C44.7559 66.5563 44.6431 66.284 44.6431 66C44.6431 65.7161 44.7559 65.4437 44.9567 65.243C45.1575 65.0422 45.4298 64.9294 45.7138 64.9294Z" fill="#56B3B4"/>
<path d="M35 64.9294H41.4294C41.7133 64.9294 41.9856 65.0422 42.1864 65.243C42.3872 65.4437 42.5 65.7161 42.5 66C42.5 66.284 42.3872 66.5563 42.1864 66.7571C41.9856 66.9578 41.7133 67.0706 41.4294 67.0706H35C34.7161 67.0706 34.4437 66.9578 34.243 66.7571C34.0422 66.5563 33.9294 66.284 33.9294 66C33.9294 65.7161 34.0422 65.4437 34.243 65.243C34.4437 65.0422 34.7161 64.9294 35 64.9294Z" fill="#F7BA3E"/>
<path d="M28.5706 64.9294H30.7138C30.8545 64.9291 30.9939 64.9566 31.124 65.0103C31.2541 65.064 31.3724 65.1429 31.472 65.2423C31.5716 65.3417 31.6507 65.4598 31.7046 65.5899C31.7585 65.7199 31.7862 65.8593 31.7862 66C31.7862 66.284 31.6735 66.5563 31.4727 66.7571C31.2719 66.9578 30.9996 67.0706 30.7156 67.0706H28.5706C28.2867 67.0706 28.0144 66.9578 27.8136 66.7571C27.6128 66.5563 27.5 66.284 27.5 66C27.5 65.7161 27.6128 65.4437 27.8136 65.243C28.0144 65.0422 28.2867 64.9294 28.5706 64.9294Z" fill="#EA5E5E"/>
<path d="M47.8569 52.0706H56.4275C56.5684 52.0704 56.708 52.0979 56.8382 52.1518C56.9685 52.2056 57.0868 52.2846 57.1864 52.3842C57.2861 52.4838 57.3651 52.6022 57.4189 52.7324C57.4727 52.8626 57.5003 53.0022 57.5 53.1431C57.5 53.4271 57.3872 53.6994 57.1864 53.9002C56.9856 54.1009 56.7133 54.2137 56.4294 54.2137H47.8569C47.5729 54.2137 47.3006 54.1009 47.0998 53.9002C46.8991 53.6994 46.7863 53.4271 46.7863 53.1431C46.786 53.0024 46.8135 52.8629 46.8672 52.7328C46.9209 52.6027 46.9997 52.4845 47.0992 52.3849C47.1986 52.2852 47.3167 52.2062 47.4467 52.1523C47.5768 52.0984 47.7161 52.0706 47.8569 52.0706Z" fill="#BF85BF"/>
<path d="M28.5706 52.0706H43.5706C43.8546 52.0706 44.1269 52.1834 44.3277 52.3842C44.5285 52.585 44.6413 52.8573 44.6413 53.1412C44.6413 53.4252 44.5285 53.6975 44.3277 53.8983C44.1269 54.0991 43.8546 54.2119 43.5706 54.2119H28.5706C28.287 54.2119 28.015 54.0993 27.8142 53.899C27.6135 53.6986 27.5005 53.4267 27.5 53.1431C27.4998 53.0024 27.5273 52.8629 27.581 52.7328C27.6347 52.6027 27.7135 52.4845 27.8129 52.3849C27.9124 52.2852 28.0305 52.2062 28.1605 52.1523C28.2905 52.0984 28.4299 52.0706 28.5706 52.0706Z" fill="#56B3B4"/>
<path d="M35 73.5H54.2863C54.4269 73.5 54.5661 73.5277 54.696 73.5815C54.8259 73.6353 54.9439 73.7142 55.0433 73.8136C55.1427 73.913 55.2216 74.031 55.2754 74.1609C55.3292 74.2908 55.3569 74.43 55.3569 74.5706C55.3569 74.8546 55.2441 75.1269 55.0433 75.3277C54.8425 75.5285 54.5702 75.6413 54.2863 75.6413H35C34.7161 75.6413 34.4437 75.5285 34.243 75.3277C34.0422 75.1269 33.9294 74.8546 33.9294 74.5706C33.9294 74.43 33.9571 74.2908 34.0109 74.1609C34.0647 74.031 34.1435 73.913 34.243 73.8136C34.3424 73.7142 34.4604 73.6353 34.5903 73.5815C34.7202 73.5277 34.8594 73.5 35 73.5Z" fill="#F7BA3E"/>
<path d="M28.5706 73.5H30.7138C30.8543 73.5 30.9936 73.5277 31.1235 73.5815C31.2534 73.6353 31.3714 73.7142 31.4708 73.8136C31.5702 73.913 31.6491 74.031 31.7029 74.1609C31.7567 74.2908 31.7844 74.43 31.7844 74.5706C31.7844 74.8546 31.6716 75.1269 31.4708 75.3277C31.27 75.5285 30.9977 75.6413 30.7138 75.6413H28.5706C28.2867 75.6413 28.0144 75.5285 27.8136 75.3277C27.6128 75.1269 27.5 74.8546 27.5 74.5706C27.5 74.43 27.5277 74.2908 27.5815 74.1609C27.6353 74.031 27.7142 73.913 27.8136 73.8136C27.913 73.7142 28.031 73.6353 28.1609 73.5815C28.2908 73.5277 28.43 73.5 28.5706 73.5Z" fill="#BF85BF"/>
<path d="M54.2863 56.3569H65C65.284 56.3569 65.5563 56.4697 65.7571 56.6705C65.9578 56.8712 66.0706 57.1436 66.0706 57.4275C66.0709 57.5683 66.0434 57.7077 65.9897 57.8378C65.936 57.9679 65.8572 58.0861 65.7577 58.1858C65.6583 58.2854 65.5402 58.3644 65.4102 58.4183C65.2801 58.4722 65.1408 58.5 65 58.5H54.2863C54.0023 58.5 53.73 58.3872 53.5292 58.1864C53.3284 57.9856 53.2156 57.7133 53.2156 57.4294C53.2154 57.2886 53.2429 57.1492 53.2966 57.0191C53.3503 56.889 53.4291 56.7707 53.5286 56.6711C53.628 56.5715 53.7461 56.4925 53.8761 56.4385C54.0061 56.3846 54.1455 56.3569 54.2863 56.3569Z" fill="#EA5E5E"/>
<path d="M54.2863 60.6431H65C65.284 60.6431 65.5563 60.7559 65.7571 60.9567C65.9578 61.1575 66.0706 61.4298 66.0706 61.7138C66.0706 61.9977 65.9578 62.27 65.7571 62.4708C65.5563 62.6716 65.284 62.7844 65 62.7844H54.2863C54.0023 62.7844 53.73 62.6716 53.5292 62.4708C53.3284 62.27 53.2156 61.9977 53.2156 61.7138C53.2156 61.4298 53.3284 61.1575 53.5292 60.9567C53.73 60.7559 54.0023 60.6431 54.2863 60.6431Z" fill="#F7BA3E"/>
<path d="M28.5706 43.5H54.2862C54.5702 43.5 54.8425 43.6128 55.0433 43.8136C55.2441 44.0144 55.3569 44.2867 55.3569 44.5706C55.3569 44.8546 55.2441 45.1269 55.0433 45.3277C54.8425 45.5285 54.5702 45.6413 54.2862 45.6413H28.5706C28.2867 45.6413 28.0144 45.5285 27.8136 45.3277C27.6128 45.1269 27.5 44.8546 27.5 44.5706C27.5 44.2867 27.6128 44.0144 27.8136 43.8136C28.0144 43.6128 28.2867 43.5 28.5706 43.5Z" fill="#56B3B4"/>
<path opacity="0.5" d="M58.5706 43.5H71.4275C71.5683 43.4998 71.7077 43.5273 71.8378 43.581C71.9679 43.6347 72.0861 43.7135 72.1858 43.8129C72.2854 43.9124 72.3644 44.0305 72.4183 44.1605C72.4722 44.2905 72.5 44.4299 72.5 44.5706C72.5 44.8546 72.3872 45.1269 72.1864 45.3277C71.9856 45.5285 71.7133 45.6413 71.4294 45.6413H58.5706C58.2867 45.6413 58.0144 45.5285 57.8136 45.3277C57.6128 45.1269 57.5 44.8546 57.5 44.5706C57.5 44.43 57.5277 44.2908 57.5815 44.1609C57.6353 44.031 57.7142 43.913 57.8136 43.8136C57.913 43.7142 58.031 43.6353 58.1609 43.5815C58.2908 43.5277 58.43 43.5 58.5706 43.5ZM58.5706 73.5H62.8569C62.9975 73.5 63.1367 73.5277 63.2666 73.5815C63.3965 73.6353 63.5145 73.7142 63.6139 73.8136C63.7133 73.913 63.7922 74.031 63.846 74.1609C63.8998 74.2908 63.9275 74.43 63.9275 74.5706C63.9275 74.8546 63.8147 75.1269 63.6139 75.3277C63.4131 75.5285 63.1408 75.6413 62.8569 75.6413H58.5706C58.43 75.6413 58.2908 75.6136 58.1609 75.5598C58.031 75.506 57.913 75.4271 57.8136 75.3277C57.7142 75.2283 57.6353 75.1102 57.5815 74.9803C57.5277 74.8504 57.5 74.7112 57.5 74.5706C57.5 74.43 57.5277 74.2908 57.5815 74.1609C57.6353 74.031 57.7142 73.913 57.8136 73.8136C57.913 73.7142 58.031 73.6353 58.1609 73.5815C58.2908 73.5277 58.43 73.5 58.5706 73.5ZM67.1431 73.5H71.4294C71.57 73.5 71.7092 73.5277 71.8391 73.5815C71.969 73.6353 72.087 73.7142 72.1864 73.8136C72.2858 73.913 72.3647 74.031 72.4185 74.1609C72.4723 74.2908 72.5 74.43 72.5 74.5706C72.5 74.7112 72.4723 74.8504 72.4185 74.9803C72.3647 75.1102 72.2858 75.2283 72.1864 75.3277C72.087 75.4271 71.969 75.506 71.8391 75.5598C71.7092 75.6136 71.57 75.6413 71.4294 75.6413H67.1431C66.8592 75.6413 66.5869 75.5285 66.3861 75.3277C66.1853 75.1269 66.0725 74.8546 66.0725 74.5706C66.0725 74.43 66.1002 74.2908 66.154 74.1609C66.2078 74.031 66.2867 73.913 66.3861 73.8136C66.4855 73.7142 66.6035 73.6353 66.7334 73.5815C66.8633 73.5277 67.0025 73.5 67.1431 73.5ZM65 69.2138H71.4294C71.7133 69.2138 71.9856 69.3266 72.1864 69.5273C72.3872 69.7281 72.5 70.0004 72.5 70.2844C72.5 70.5683 72.3872 70.8406 72.1864 71.0414C71.9856 71.2422 71.7133 71.355 71.4294 71.355H65C64.7161 71.355 64.4437 71.2422 64.243 71.0414C64.0422 70.8406 63.9294 70.5683 63.9294 70.2844C63.9294 70.0004 64.0422 69.7281 64.243 69.5273C64.4437 69.3266 64.7161 69.2138 65 69.2138ZM65 47.7863H71.4294C71.7133 47.7863 71.9856 47.899 72.1864 48.0998C72.3872 48.3006 72.5 48.5729 72.5 48.8569C72.5 49.1408 72.3872 49.4131 72.1864 49.6139C71.9856 49.8147 71.7133 49.9275 71.4294 49.9275H65C64.7161 49.9275 64.4437 49.8147 64.243 49.6139C64.0422 49.4131 63.9294 49.1408 63.9294 48.8569C63.9294 48.5729 64.0422 48.3006 64.243 48.0998C64.4437 47.899 64.7161 47.7863 65 47.7863ZM67.1431 64.9294H71.4294C71.7133 64.9294 71.9856 65.0422 72.1864 65.243C72.3872 65.4437 72.5 65.7161 72.5 66C72.5 66.2839 72.3872 66.5563 72.1864 66.757C71.9856 66.9578 71.7133 67.0706 71.4294 67.0706H67.1431C67.0024 67.0709 66.863 67.0434 66.7328 66.9897C66.6027 66.936 66.4845 66.8572 66.3849 66.7577C66.2853 66.6583 66.2062 66.5402 66.1523 66.4101C66.0984 66.2801 66.0706 66.1408 66.0706 66C66.0706 65.8592 66.0984 65.7199 66.1523 65.5899C66.2062 65.4598 66.2853 65.3417 66.3849 65.2423C66.4845 65.1429 66.6027 65.064 66.7328 65.0103C66.863 64.9566 67.0024 64.9291 67.1431 64.9294ZM67.1431 52.0706H71.4294C71.5701 52.0706 71.7095 52.0984 71.8395 52.1523C71.9695 52.2062 72.0876 52.2853 72.1871 52.3849C72.2865 52.4845 72.3654 52.6027 72.419 52.7328C72.4727 52.863 72.5002 53.0024 72.5 53.1431C72.5 53.2837 72.4723 53.4229 72.4185 53.5528C72.3647 53.6827 72.2858 53.8008 72.1864 53.9002C72.087 53.9996 71.969 54.0785 71.8391 54.1323C71.7092 54.1861 71.57 54.2138 71.4294 54.2138H67.1431C66.8592 54.2138 66.5869 54.101 66.3861 53.9002C66.1853 53.6994 66.0725 53.4271 66.0725 53.1431C66.0723 53.0024 66.0998 52.863 66.1535 52.7328C66.2072 52.6027 66.286 52.4845 66.3854 52.3849C66.4849 52.2853 66.603 52.2062 66.733 52.1523C66.863 52.0984 67.0024 52.0706 67.1431 52.0706ZM69.2863 56.3569H71.4294C71.57 56.3569 71.7092 56.3846 71.8391 56.4384C71.969 56.4922 72.087 56.571 72.1864 56.6705C72.2858 56.7699 72.3647 56.8879 72.4185 57.0178C72.4723 57.1477 72.5 57.2869 72.5 57.4275C72.5 57.5681 72.4723 57.7073 72.4185 57.8372C72.3647 57.9671 72.2858 58.0851 72.1864 58.1845C72.087 58.284 71.969 58.3628 71.8391 58.4166C71.7092 58.4704 71.57 58.4981 71.4294 58.4981H69.2863C69.0023 58.4981 68.73 58.3853 68.5292 58.1845C68.3284 57.9838 68.2156 57.7115 68.2156 57.4275C68.2156 57.1436 68.3284 56.8712 68.5292 56.6705C68.73 56.4697 69.0023 56.3569 69.2863 56.3569ZM69.2863 60.6431H71.4294C71.57 60.6431 71.7092 60.6708 71.8391 60.7246C71.969 60.7784 72.087 60.8573 72.1864 60.9567C72.2858 61.0561 72.3647 61.1741 72.4185 61.304C72.4723 61.4339 72.5 61.5732 72.5 61.7138C72.5 61.8543 72.4723 61.9936 72.4185 62.1235C72.3647 62.2534 72.2858 62.3714 72.1864 62.4708C72.087 62.5702 71.969 62.6491 71.8391 62.7029C71.7092 62.7567 71.57 62.7844 71.4294 62.7844H69.2863C69.0023 62.7844 68.73 62.6716 68.5292 62.4708C68.3284 62.27 68.2156 61.9977 68.2156 61.7138C68.2156 61.4298 68.3284 61.1575 68.5292 60.9567C68.73 60.7559 69.0023 60.6431 69.2863 60.6431ZM52.1431 77.7862H71.4294C71.57 77.7862 71.7092 77.8139 71.8391 77.8677C71.969 77.9215 72.087 78.0004 72.1864 78.0998C72.2858 78.1992 72.3647 78.3173 72.4185 78.4472C72.4723 78.5771 72.5 78.7163 72.5 78.8569C72.5 78.9975 72.4723 79.1367 72.4185 79.2666C72.3647 79.3965 72.2858 79.5145 72.1864 79.6139C72.087 79.7133 71.969 79.7922 71.8391 79.846C71.7092 79.8998 71.57 79.9275 71.4294 79.9275H52.1431C51.8592 79.9275 51.5869 79.8147 51.3861 79.6139C51.1853 79.4131 51.0725 79.1408 51.0725 78.8569C51.0725 78.5729 51.1853 78.3006 51.3861 78.0998C51.5869 77.899 51.8592 77.7862 52.1431 77.7862ZM43.5706 77.7862H47.8569C48.1408 77.7862 48.4131 77.899 48.6139 78.0998C48.8147 78.3006 48.9275 78.5729 48.9275 78.8569C48.9275 79.1408 48.8147 79.4131 48.6139 79.6139C48.4131 79.8147 48.1408 79.9275 47.8569 79.9275H43.5706C43.2867 79.9275 43.0144 79.8147 42.8136 79.6139C42.6128 79.4131 42.5 79.1408 42.5 78.8569C42.5 78.5729 42.6128 78.3006 42.8136 78.0998C43.0144 77.899 43.2867 77.7862 43.5706 77.7862ZM60.7138 86.3569H71.4275C71.7114 86.3569 71.9838 86.4697 72.1845 86.6705C72.3853 86.8712 72.4981 87.1436 72.4981 87.4275C72.4981 87.5681 72.4704 87.7073 72.4166 87.8372C72.3628 87.9671 72.284 88.0851 72.1845 88.1845C72.0851 88.284 71.9671 88.3628 71.8372 88.4166C71.7073 88.4704 71.5681 88.4981 71.4275 88.4981H60.7138C60.5732 88.4981 60.4339 88.4704 60.304 88.4166C60.1741 88.3628 60.0561 88.284 59.9567 88.1845C59.8573 88.0851 59.7784 87.9671 59.7246 87.8372C59.6708 87.7073 59.6431 87.5681 59.6431 87.4275C59.6431 87.1436 59.7559 86.8712 59.9567 86.6705C60.1575 86.4697 60.4298 86.3569 60.7138 86.3569ZM43.5706 86.3569H56.4275C56.7114 86.3569 56.9838 86.4697 57.1845 86.6705C57.3853 86.8712 57.4981 87.1436 57.4981 87.4275C57.4981 87.5681 57.4704 87.7073 57.4166 87.8372C57.3628 87.9671 57.284 88.0851 57.1845 88.1845C57.0851 88.284 56.9671 88.3628 56.8372 88.4166C56.7073 88.4704 56.5681 88.4981 56.4275 88.4981H43.5706C43.287 88.4981 43.015 88.3856 42.8142 88.1852C42.6135 87.9848 42.5005 87.713 42.5 87.4294C42.4998 87.2886 42.5273 87.1492 42.581 87.0191C42.6347 86.889 42.7135 86.7707 42.8129 86.6711C42.9124 86.5715 43.0305 86.4925 43.1605 86.4386C43.2905 86.3846 43.4299 86.3569 43.5706 86.3569ZM43.5706 56.3569H50C50.2839 56.3569 50.5563 56.4697 50.757 56.6705C50.9578 56.8712 51.0706 57.1436 51.0706 57.4275C51.0709 57.5683 51.0434 57.7077 50.9897 57.8378C50.936 57.9679 50.8572 58.0861 50.7577 58.1858C50.6583 58.2854 50.5402 58.3644 50.4101 58.4183C50.2801 58.4722 50.1408 58.5 50 58.5H43.5706C43.2867 58.5 43.0144 58.3872 42.8136 58.1864C42.6128 57.9856 42.5 57.7133 42.5 57.4294C42.4998 57.2886 42.5273 57.1492 42.581 57.0191C42.6347 56.889 42.7135 56.7707 42.8129 56.6711C42.9124 56.5715 43.0305 56.4925 43.1605 56.4386C43.2905 56.3846 43.4299 56.3569 43.5706 56.3569ZM43.5706 60.6431H50C50.2839 60.6431 50.5563 60.7559 50.757 60.9567C50.9578 61.1575 51.0706 61.4298 51.0706 61.7138C51.0706 61.9977 50.9578 62.27 50.757 62.4708C50.5563 62.6716 50.2839 62.7844 50 62.7844H43.5706C43.2867 62.7844 43.0144 62.6716 42.8136 62.4708C42.6128 62.27 42.5 61.9977 42.5 61.7138C42.5 61.4298 42.6128 61.1575 42.8136 60.9567C43.0144 60.7559 43.2867 60.6431 43.5706 60.6431Z" fill="#D0D4D8"/>
</svg>
