<svg width="100" height="125" viewBox="0 0 100 125" fill="none" xmlns="http://www.w3.org/2000/svg">
<path fillRule="evenodd" clipRule="evenodd" d="M53.0114 0.000865032C57.2538 -0.00565038 61.0191 -0.0114335 64.4965 1.42898C67.974 2.8694 70.6323 5.53589 73.6276 8.54038C79.5624 14.4935 85.5065 20.4376 91.4596 26.3724C94.4641 29.3677 97.1306 32.026 98.571 35.5035C100.011 38.9809 100.006 42.7462 99.9991 46.9886C99.975 62.7129 99.9982 78.4373 99.9983 94.1615C99.9986 99.702 99.9988 104.476 99.4849 108.299C98.9341 112.395 97.6919 116.323 94.5066 119.508C91.3213 122.693 87.3941 123.935 83.2972 124.486C79.4744 125 74.7006 125 69.1601 125H30.8382C25.2977 125 20.5239 125 16.701 124.486C12.6041 123.935 8.67701 122.693 5.49168 119.508C2.30635 116.323 1.06421 112.395 0.513399 108.299C-0.000564337 104.476 -0.000296178 99.7019 1.52505e-05 94.1615L3.31315e-05 31.2512C3.31315e-05 31.1136 2.56811e-05 30.9764 1.82306e-05 30.8398C-0.000292453 25.2993 -0.000559926 20.5256 0.513403 16.7028C1.06422 12.6059 2.30635 8.67873 5.49168 5.4934C8.67702 2.30807 12.6041 1.06593 16.701 0.515119C20.5238 0.00115639 25.2976 0.00142382 30.838 0.00173524C38.2291 0.00213814 45.6203 0.0122238 53.0114 0.000865032Z" fill="#001833"/>
<path d="M39.025 93.8C39.025 94.6833 38.8167 95.5167 38.4 96.3C37.9833 97.0833 37.3167 97.725 36.4 98.225C35.4833 98.7083 34.3083 98.95 32.875 98.95H29.725V106H26.875V88.625H32.875C34.2083 88.625 35.3333 88.8583 36.25 89.325C37.1833 89.775 37.875 90.3917 38.325 91.175C38.7917 91.9583 39.025 92.8333 39.025 93.8ZM32.875 96.625C33.9583 96.625 34.7667 96.3833 35.3 95.9C35.8333 95.4 36.1 94.7 36.1 93.8C36.1 91.9 35.025 90.95 32.875 90.95H29.725V96.625H32.875ZM47.4682 106.175C46.3015 106.175 45.2515 105.975 44.3182 105.575C43.3848 105.158 42.6515 104.575 42.1182 103.825C41.5848 103.075 41.3182 102.2 41.3182 101.2H44.3682C44.4348 101.95 44.7265 102.567 45.2432 103.05C45.7765 103.533 46.5182 103.775 47.4682 103.775C48.4515 103.775 49.2182 103.542 49.7682 103.075C50.3182 102.592 50.5932 101.975 50.5932 101.225C50.5932 100.642 50.4182 100.167 50.0682 99.8C49.7348 99.4333 49.3098 99.15 48.7932 98.95C48.2932 98.75 47.5932 98.5333 46.6932 98.3C45.5598 98 44.6348 97.7 43.9182 97.4C43.2182 97.0833 42.6182 96.6 42.1182 95.95C41.6182 95.3 41.3682 94.4333 41.3682 93.35C41.3682 92.35 41.6182 91.475 42.1182 90.725C42.6182 89.975 43.3182 89.4 44.2182 89C45.1182 88.6 46.1598 88.4 47.3432 88.4C49.0265 88.4 50.4015 88.825 51.4682 89.675C52.5515 90.5083 53.1515 91.6583 53.2682 93.125H50.1182C50.0682 92.4917 49.7682 91.95 49.2182 91.5C48.6682 91.05 47.9432 90.825 47.0432 90.825C46.2265 90.825 45.5598 91.0333 45.0432 91.45C44.5265 91.8667 44.2682 92.4667 44.2682 93.25C44.2682 93.7833 44.4265 94.225 44.7432 94.575C45.0765 94.9083 45.4932 95.175 45.9932 95.375C46.4932 95.575 47.1765 95.7917 48.0432 96.025C49.1932 96.3417 50.1265 96.6583 50.8432 96.975C51.5765 97.2917 52.1932 97.7833 52.6932 98.45C53.2098 99.1 53.4682 99.975 53.4682 101.075C53.4682 101.958 53.2265 102.792 52.7432 103.575C52.2765 104.358 51.5848 104.992 50.6682 105.475C49.7682 105.942 48.7015 106.175 47.4682 106.175ZM62.5061 88.625C64.3561 88.625 65.9727 88.9833 67.3561 89.7C68.7561 90.4 69.8311 91.4167 70.5811 92.75C71.3477 94.0667 71.7311 95.6083 71.7311 97.375C71.7311 99.1417 71.3477 100.675 70.5811 101.975C69.8311 103.275 68.7561 104.275 67.3561 104.975C65.9727 105.658 64.3561 106 62.5061 106H56.8311V88.625H62.5061ZM62.5061 103.675C64.5394 103.675 66.0977 103.125 67.1811 102.025C68.2644 100.925 68.8061 99.375 68.8061 97.375C68.8061 95.3583 68.2644 93.7833 67.1811 92.65C66.0977 91.5167 64.5394 90.95 62.5061 90.95H59.6811V103.675H62.5061Z" fill="white"/>
<path d="M48.9 44.9C48.9 46.7667 48.45 48.5167 47.55 50.15C46.6833 51.7833 45.3 53.1 43.4 54.1C41.5333 55.1 39.1667 55.6 36.3 55.6H30.45V69H23.45V34.1H36.3C39 34.1 41.3 34.5667 43.2 35.5C45.1 36.4333 46.5167 37.7167 47.45 39.35C48.4167 40.9833 48.9 42.8333 48.9 44.9ZM36 49.95C37.9333 49.95 39.3667 49.5167 40.3 48.65C41.2333 47.75 41.7 46.5 41.7 44.9C41.7 41.5 39.8 39.8 36 39.8H30.45V49.95H36ZM64.4699 69.45C62.2033 69.45 60.1699 69.05 58.3699 68.25C56.5699 67.4167 55.1366 66.3 54.0699 64.9C53.0366 63.5 52.4699 61.95 52.3699 60.25H59.4199C59.5533 61.3167 60.0699 62.2 60.9699 62.9C61.9033 63.6 63.0533 63.95 64.4199 63.95C65.7533 63.95 66.7866 63.6833 67.5199 63.15C68.2866 62.6167 68.6699 61.9333 68.6699 61.1C68.6699 60.2 68.2033 59.5333 67.2699 59.1C66.3699 58.6333 64.9199 58.1333 62.9199 57.6C60.8533 57.1 59.1533 56.5833 57.8199 56.05C56.5199 55.5167 55.3866 54.7 54.4199 53.6C53.4866 52.5 53.0199 51.0167 53.0199 49.15C53.0199 47.6167 53.4533 46.2167 54.3199 44.95C55.2199 43.6833 56.4866 42.6833 58.1199 41.95C59.7866 41.2167 61.7366 40.85 63.9699 40.85C67.2699 40.85 69.9033 41.6833 71.8699 43.35C73.8366 44.9833 74.9199 47.2 75.1199 50H68.4199C68.3199 48.9 67.8533 48.0333 67.0199 47.4C66.2199 46.7333 65.1366 46.4 63.7699 46.4C62.5033 46.4 61.5199 46.6333 60.8199 47.1C60.1533 47.5667 59.8199 48.2167 59.8199 49.05C59.8199 49.9833 60.2866 50.7 61.2199 51.2C62.1533 51.6667 63.6033 52.15 65.5699 52.65C67.5699 53.15 69.2199 53.6667 70.5199 54.2C71.8199 54.7333 72.9366 55.5667 73.8699 56.7C74.8366 57.8 75.3366 59.2667 75.3699 61.1C75.3699 62.7 74.9199 64.1333 74.0199 65.4C73.1533 66.6667 71.8866 67.6667 70.2199 68.4C68.5866 69.1 66.6699 69.45 64.4699 69.45Z" fill="#36A9FB"/>
</svg>
