<svg width="101" height="126" viewBox="0 0 101 126" fill="none" xmlns="http://www.w3.org/2000/svg">
    <path fill-rule="evenodd" clip-rule="evenodd"
        d="M53.2614 0.250865C57.5038 0.24435 61.2691 0.238567 64.7465 1.67898C68.224 3.1194 70.8823 5.78589 73.8776 8.79038C79.8124 14.7435 85.7565 20.6876 91.7096 26.6224C94.7141 29.6177 97.3806 32.276 98.821 35.7535C100.261 39.2309 100.256 42.9962 100.249 47.2386C100.225 62.9629 100.248 78.6873 100.248 94.4115C100.249 99.952 100.249 104.726 99.7349 108.549C99.1841 112.645 97.9419 116.573 94.7566 119.758C91.5713 122.943 87.6441 124.185 83.5472 124.736C79.7244 125.25 74.9506 125.25 69.4101 125.25H31.0882C25.5477 125.25 20.7739 125.25 16.951 124.736C12.8541 124.185 8.92701 122.943 5.74168 119.758C2.55635 116.573 1.31421 112.645 0.763399 108.549C0.249436 104.726 0.249704 99.9519 0.250015 94.4115L0.250033 31.5012C0.250033 31.3636 0.250026 31.2264 0.250018 31.0898C0.249708 25.5493 0.24944 20.7756 0.763403 16.9528C1.31422 12.8559 2.55635 8.92873 5.74168 5.7434C8.92702 2.55807 12.8541 1.31593 16.951 0.765119C20.7738 0.251156 25.5476 0.251424 31.088 0.251735C38.4791 0.252138 45.8703 0.262224 53.2614 0.250865Z"
        fill="white" stroke="#17181F" stroke-opacity="0.5" stroke-width="0.5" stroke-linejoin="round" />
    <path
        d="M50.0344 41.1875C36.7219 41.1875 37.5638 46.9438 37.5638 46.9438V52.925H50.2238V54.8H32.5219C32.5219 54.8 24 53.75 24 67.2594C24 80.7688 31.5244 80.2194 31.5244 80.2194H35.8687V73.9175C35.8687 73.9175 35.625 66.3932 43.1812 66.3932H55.86C55.86 66.3932 62.9325 66.5057 62.9325 59.5457V48.125C62.9325 48.125 64.005 41.165 50.1038 41.165L50.0344 41.1875ZM43.0369 45.1944C43.4869 45.1831 43.9303 45.3054 44.3108 45.546C44.6913 45.7867 44.992 46.1347 45.1747 46.5462C45.3574 46.9577 45.414 47.4141 45.3373 47.8577C45.2606 48.3014 45.054 48.7123 44.7438 49.0385C44.4335 49.3648 44.0335 49.5917 43.5943 49.6906C43.155 49.7895 42.6964 49.7559 42.2762 49.5941C41.8561 49.4323 41.4934 49.1495 41.2339 48.7816C40.9745 48.4136 40.83 47.977 40.8188 47.5269V47.4894C40.8188 46.8857 41.0586 46.3067 41.4854 45.8799C41.9123 45.453 42.4913 45.2132 43.095 45.2132L43.0369 45.1944Z"
        fill="url(#paint0_linear_411_3887)" />
    <path
        d="M50.4094 93.3312C63.7219 93.3312 62.88 87.5562 62.88 87.5562V81.5937H50.2219V79.7187H67.9781C67.9781 79.7187 76.5 80.6712 76.5 67.2406C76.5 53.81 68.9756 54.2806 68.9756 54.2806H64.575V60.5C64.575 60.5 64.8188 68.0243 57.2625 68.0243H44.5781C44.5781 68.0243 37.5 67.9175 37.5 74.8775V86.375C37.5 86.375 36.4275 93.335 50.3287 93.335H50.4038L50.4094 93.3312ZM57.4069 89.3056C56.9568 89.3169 56.5135 89.1946 56.1329 88.954C55.7524 88.7133 55.4518 88.3653 55.2691 87.9538C55.0864 87.5423 55.0298 87.0859 55.1065 86.6423C55.1832 86.1986 55.3897 85.7877 55.7 85.4615C56.0102 85.1352 56.4103 84.9083 56.8495 84.8094C57.2887 84.7105 57.7474 84.7441 58.1675 84.9059C58.5877 85.0677 58.9504 85.3505 59.2098 85.7184C59.4692 86.0864 59.6137 86.523 59.625 86.9731V87.0293C59.625 87.633 59.3852 88.212 58.9583 88.6389C58.5314 89.0658 57.9524 89.3056 57.3487 89.3056H57.4069Z"
        fill="url(#paint1_linear_411_3887)" />
    <defs>
        <linearGradient id="paint0_linear_411_3887" x1="29.1884" y1="46.293" x2="54.1009" y2="71.149"
            gradientUnits="userSpaceOnUse">
            <stop stop-color="#387EB8" />
            <stop offset="1" stop-color="#366994" />
        </linearGradient>
        <linearGradient id="paint1_linear_411_3887" x1="43.9266" y1="62.4848" x2="72.3894" y2="87.3334"
            gradientUnits="userSpaceOnUse">
            <stop stop-color="#FFE052" />
            <stop offset="1" stop-color="#FFC331" />
        </linearGradient>
    </defs>
</svg>