<svg width="100" height="125" viewBox="0 0 100 125" fill="none" xmlns="http://www.w3.org/2000/svg">
<path fill-rule="evenodd" clip-rule="evenodd" d="M53.0114 0.000865032C57.2538 -0.00565038 61.0191 -0.0114335 64.4965 1.42898C67.974 2.8694 70.6323 5.53589 73.6276 8.54038C79.5624 14.4935 85.5065 20.4376 91.4596 26.3724C94.4641 29.3677 97.1306 32.026 98.571 35.5035C100.011 38.9809 100.006 42.7462 99.9991 46.9886C99.975 62.7129 99.9982 78.4373 99.9983 94.1615C99.9986 99.702 99.9988 104.476 99.4849 108.299C98.9341 112.395 97.6919 116.323 94.5066 119.508C91.3213 122.693 87.3941 123.935 83.2972 124.486C79.4744 125 74.7006 125 69.1601 125H30.8382C25.2977 125 20.5239 125 16.701 124.486C12.6041 123.935 8.67701 122.693 5.49168 119.508C2.30635 116.323 1.06421 112.395 0.513399 108.299C-0.000564337 104.476 -0.000296178 99.7019 1.52505e-05 94.1615L3.31315e-05 31.2512C3.31315e-05 31.1136 2.56811e-05 30.9764 1.82306e-05 30.8398C-0.000292453 25.2993 -0.000559926 20.5256 0.513403 16.7028C1.06422 12.6059 2.30635 8.67873 5.49168 5.4934C8.67702 2.30807 12.6041 1.06593 16.701 0.515119C20.5238 0.00115639 25.2976 0.00142382 30.838 0.00173524C38.2291 0.00213814 45.6203 0.0122238 53.0114 0.000865032Z" fill="white"/>
<path d="M49.7844 40.9375C36.4719 40.9375 37.3138 46.6937 37.3138 46.6937V52.675H49.9738V54.55H32.2719C32.2719 54.55 23.75 53.5 23.75 67.0094C23.75 80.5187 31.2744 79.9694 31.2744 79.9694H35.6187V73.6675C35.6187 73.6675 35.375 66.1431 42.9312 66.1431H55.61C55.61 66.1431 62.6825 66.2556 62.6825 59.2956V47.875C62.6825 47.875 63.755 40.915 49.8537 40.915L49.7844 40.9375ZM42.7869 44.9444C43.2369 44.933 43.6803 45.0554 44.0608 45.296C44.4413 45.5366 44.742 45.8847 44.9247 46.2961C45.1074 46.7076 45.164 47.164 45.0873 47.6077C45.0106 48.0513 44.804 48.4622 44.4938 48.7885C44.1835 49.1147 43.7835 49.3417 43.3443 49.4405C42.905 49.5394 42.4464 49.5058 42.0262 49.344C41.6061 49.1822 41.2434 48.8995 40.9839 48.5315C40.7245 48.1636 40.58 47.7269 40.5688 47.2769V47.2394C40.5688 46.6357 40.8086 46.0567 41.2354 45.6298C41.6623 45.2029 42.2413 44.9631 42.845 44.9631L42.7869 44.9444Z" fill="url(#paint0_linear_411_3887)"/>
<path d="M50.1594 93.0813C63.4719 93.0813 62.63 87.3063 62.63 87.3063V81.3438H49.9719V79.4688H67.7281C67.7281 79.4688 76.25 80.4213 76.25 66.9906C76.25 53.56 68.7256 54.0306 68.7256 54.0306H64.325V60.25C64.325 60.25 64.5688 67.7744 57.0125 67.7744H44.3281C44.3281 67.7744 37.25 67.6675 37.25 74.6275V86.125C37.25 86.125 36.1775 93.085 50.0787 93.085H50.1538L50.1594 93.0813ZM57.1569 89.0556C56.7068 89.067 56.2635 88.9446 55.8829 88.704C55.5024 88.4634 55.2018 88.1153 55.0191 87.7039C54.8364 87.2924 54.7798 86.836 54.8565 86.3923C54.9332 85.9487 55.1397 85.5378 55.45 85.2115C55.7602 84.8853 56.1603 84.6583 56.5995 84.5595C57.0387 84.4606 57.4974 84.4941 57.9175 84.656C58.3377 84.8178 58.7004 85.1005 58.9598 85.4685C59.2192 85.8364 59.3637 86.2731 59.375 86.7231V86.7794C59.375 87.3831 59.1352 87.9621 58.7083 88.3889C58.2814 88.8158 57.7024 89.0556 57.0987 89.0556H57.1569Z" fill="url(#paint1_linear_411_3887)"/>
<defs>
<linearGradient id="paint0_linear_411_3887" x1="28.9384" y1="46.0429" x2="53.8509" y2="70.899" gradientUnits="userSpaceOnUse">
<stop stop-color="#387EB8"/>
<stop offset="1" stop-color="#366994"/>
</linearGradient>
<linearGradient id="paint1_linear_411_3887" x1="43.6766" y1="62.2348" x2="72.1394" y2="87.0834" gradientUnits="userSpaceOnUse">
<stop stop-color="#FFE052"/>
<stop offset="1" stop-color="#FFC331"/>
</linearGradient>
</defs>
</svg>
