<svg width="100" height="125" viewBox="0 0 100 125" fill="none" xmlns="http://www.w3.org/2000/svg">
<path fillRule="evenodd" clipRule="evenodd" d="M53.0114 0.000865032C57.2538 -0.00565038 61.0191 -0.0114335 64.4965 1.42898C67.974 2.8694 70.6323 5.53589 73.6276 8.54038C79.5624 14.4935 85.5065 20.4376 91.4596 26.3724C94.4641 29.3677 97.1306 32.026 98.571 35.5035C100.011 38.9809 100.006 42.7462 99.9991 46.9886C99.975 62.7129 99.9982 78.4373 99.9983 94.1615C99.9986 99.702 99.9988 104.476 99.4849 108.299C98.9341 112.395 97.6919 116.323 94.5066 119.508C91.3213 122.693 87.3941 123.935 83.2972 124.486C79.4744 125 74.7006 125 69.1601 125H30.8382C25.2977 125 20.5239 125 16.701 124.486C12.6041 123.935 8.67701 122.693 5.49168 119.508C2.30635 116.323 1.06421 112.395 0.513399 108.299C-0.000564337 104.476 -0.000296178 99.7019 1.52505e-05 94.1615L3.31315e-05 31.2512C3.31315e-05 31.1136 2.56811e-05 30.9764 1.82306e-05 30.8398C-0.000292453 25.2993 -0.000559926 20.5256 0.513403 16.7028C1.06422 12.6059 2.30635 8.67873 5.49168 5.4934C8.67702 2.30807 12.6041 1.06593 16.701 0.515119C20.5238 0.00115639 25.2976 0.00142382 30.838 0.00173524C38.2291 0.00213814 45.6203 0.0122238 53.0114 0.000865032Z" fill="white"/>
<path d="M50 71.6388C52.5888 71.6388 54.6875 69.5401 54.6875 66.9513C54.6875 64.3624 52.5888 62.2638 50 62.2638C47.4112 62.2638 45.3125 64.3624 45.3125 66.9513C45.3125 69.5401 47.4112 71.6388 50 71.6388Z" fill="#00D8FF"/>
<path d="M50 77.6988C44.3659 77.835 38.7459 77.0756 33.35 75.4488C30.8574 74.6586 28.5326 73.4139 26.4931 71.7775C25.7149 71.2185 25.0668 70.4977 24.5933 69.6647C24.1198 68.8316 23.8321 67.906 23.75 66.9513C23.75 63.8519 27.155 60.8144 32.8587 58.8269C38.3989 57.0658 44.1874 56.2123 50 56.2994C55.7351 56.2193 61.446 57.0574 66.9162 58.7819C69.3168 59.5472 71.5627 60.7317 73.55 62.2806C74.315 62.8136 74.9533 63.5082 75.4199 64.3154C75.8865 65.1225 76.1699 66.0224 76.25 66.9513C76.25 70.1725 72.4438 73.4369 66.3125 75.4656C61.0211 77.0395 55.5197 77.7926 50 77.6988ZM50 58.5419C44.439 58.4676 38.9015 59.279 33.5956 60.9456C28.3456 62.7775 25.9925 65.2825 25.9925 66.9456C25.9925 68.6856 28.5219 71.4213 34.0756 73.3206C39.2376 74.8691 44.6124 75.5899 50 75.4563C55.2808 75.5507 60.5449 74.8362 65.6094 73.3375C71.375 71.4269 74 68.6875 74 66.9513C73.9054 66.3554 73.6883 65.7857 73.3623 65.2781C73.0364 64.7704 72.6087 64.3359 72.1063 64.0019C70.3283 62.6278 68.3219 61.578 66.1794 60.9006C60.9463 59.2577 55.4843 58.4614 50 58.5419Z" fill="#00D8FF"/>
<path d="M39.35 90.3306C38.4753 90.3507 37.6109 90.1385 36.845 89.7156C34.16 88.1669 33.23 83.7006 34.3569 77.7663C35.5993 72.0871 37.7521 66.6462 40.7319 61.6544C43.527 56.6465 47.1053 52.118 51.3312 48.2406C53.1934 46.5432 55.3416 45.1892 57.6763 44.2413C58.5207 43.8455 59.4418 43.6404 60.3744 43.6404C61.3069 43.6404 62.2281 43.8455 63.0725 44.2413C65.8644 45.85 66.7888 50.7775 65.4856 57.1019C64.2048 62.4729 62.1079 67.6158 59.2681 72.3513C56.5714 77.3001 53.1057 81.7891 49.0006 85.6506C47.0708 87.4146 44.8313 88.8062 42.395 89.755C41.4197 90.117 40.3902 90.3116 39.35 90.3306ZM42.6744 62.7681C39.8321 67.5481 37.7687 72.7501 36.5619 78.1788C35.525 83.6444 36.5206 86.9313 37.9681 87.7675C39.4681 88.6356 43.1094 87.8125 47.5306 83.95C51.4494 80.2505 54.7573 75.9535 57.3313 71.2188C60.0518 66.6916 62.0632 61.7747 63.2956 56.6388C64.5219 50.6856 63.4625 47.0406 61.9588 46.1744C61.3951 45.9584 60.7929 45.8618 60.19 45.8905C59.5871 45.9192 58.9968 46.0727 58.4563 46.3413C56.3782 47.1988 54.4676 48.4162 52.8125 49.9375C48.775 53.6515 45.3569 57.9868 42.6875 62.7794L42.6744 62.7681Z" fill="#00D8FF"/>
<path d="M60.6444 90.355C58.1037 90.355 54.8769 88.8175 51.5169 85.9281C47.2169 82.0155 43.5781 77.4333 40.7412 72.3588C37.7989 67.4357 35.6631 62.0735 34.415 56.4756C33.8737 54.0128 33.7734 51.4735 34.1187 48.9756C34.1986 48.049 34.4807 47.1512 34.9453 46.3455C35.4099 45.5398 36.0455 44.8458 36.8075 44.3125C39.5956 42.6981 44.3262 44.3575 49.1544 48.6438C53.168 52.4354 56.5763 56.8201 59.2606 61.645C62.2012 66.4532 64.3593 71.6979 65.6544 77.1831C66.219 79.7363 66.3061 82.372 65.9112 84.9569C65.8173 85.9102 65.5183 86.8318 65.0348 87.6587C64.5513 88.4856 63.8947 89.1982 63.11 89.7475C62.3565 90.1651 61.5056 90.3748 60.6444 90.355ZM42.6819 71.23C45.4033 76.0796 48.8793 80.4651 52.9794 84.2219C57.1962 87.85 60.5412 88.63 61.9794 87.7844C63.4794 86.9125 64.5856 83.3538 63.4456 77.5956C62.1966 72.3587 60.1267 67.3523 57.3125 62.7625C54.7509 58.1446 51.4976 53.946 47.6656 50.3125C43.1206 46.2775 39.4344 45.3756 37.9325 46.2456C37.4644 46.626 37.0802 47.0994 36.8043 47.6357C36.5284 48.1721 36.3667 48.7599 36.3294 49.3619C36.0313 51.5896 36.1284 53.8523 36.6162 56.0463C37.8168 61.3997 39.8651 66.5268 42.6837 71.2338L42.6819 71.23Z" fill="#00D8FF"/>
</svg>
