<svg width="100" height="125" viewBox="0 0 100 125" fill="none" xmlns="http://www.w3.org/2000/svg">
<path fillRule="evenodd" clipRule="evenodd" d="M53.0114 0.000865032C57.2538 -0.00565038 61.0191 -0.0114335 64.4965 1.42898C67.974 2.8694 70.6323 5.53589 73.6276 8.54038C79.5624 14.4935 85.5065 20.4376 91.4596 26.3724C94.4641 29.3677 97.1306 32.026 98.571 35.5035C100.011 38.9809 100.006 42.7462 99.9991 46.9886C99.975 62.7129 99.9982 78.4373 99.9983 94.1615C99.9986 99.702 99.9988 104.476 99.4849 108.299C98.9341 112.395 97.6919 116.323 94.5066 119.508C91.3213 122.693 87.3941 123.935 83.2972 124.486C79.4744 125 74.7006 125 69.1601 125H30.8382C25.2977 125 20.5239 125 16.701 124.486C12.6041 123.935 8.67701 122.693 5.49168 119.508C2.30635 116.323 1.06421 112.395 0.513399 108.299C-0.000564337 104.476 -0.000296178 99.7019 1.52505e-05 94.1615L3.31315e-05 31.2512C3.31315e-05 31.1136 2.56811e-05 30.9764 1.82306e-05 30.8398C-0.000292453 25.2993 -0.000559926 20.5256 0.513403 16.7028C1.06422 12.6059 2.30635 8.67873 5.49168 5.4934C8.67702 2.30807 12.6041 1.06593 16.701 0.515119C20.5238 0.00115639 25.2976 0.00142382 30.838 0.00173524C38.2291 0.00213814 45.6203 0.0122238 53.0114 0.000865032Z" fill="#007ACC"/>
<path d="M31.48 49.59V54.675H23.11V81H16.81V54.675H8.44V49.59H31.48ZM46.9217 81.315C44.7317 81.315 42.7517 80.94 40.9817 80.19C39.2417 79.44 37.8617 78.36 36.8417 76.95C35.8217 75.54 35.2967 73.875 35.2667 71.955H42.0167C42.1067 73.245 42.5567 74.265 43.3667 75.015C44.2067 75.765 45.3467 76.14 46.7867 76.14C48.2567 76.14 49.4117 75.795 50.2517 75.105C51.0917 74.385 51.5117 73.455 51.5117 72.315C51.5117 71.385 51.2267 70.62 50.6567 70.02C50.0867 69.42 49.3667 68.955 48.4967 68.625C47.6567 68.265 46.4867 67.875 44.9867 67.455C42.9467 66.855 41.2817 66.27 39.9917 65.7C38.7317 65.1 37.6367 64.215 36.7067 63.045C35.8067 61.845 35.3567 60.255 35.3567 58.275C35.3567 56.415 35.8217 54.795 36.7517 53.415C37.6817 52.035 38.9867 50.985 40.6667 50.265C42.3467 49.515 44.2667 49.14 46.4267 49.14C49.6667 49.14 52.2917 49.935 54.3017 51.525C56.3417 53.085 57.4667 55.275 57.6767 58.095H50.7467C50.6867 57.015 50.2217 56.13 49.3517 55.44C48.5117 54.72 47.3867 54.36 45.9767 54.36C44.7467 54.36 43.7567 54.675 43.0067 55.305C42.2867 55.935 41.9267 56.85 41.9267 58.05C41.9267 58.89 42.1967 59.595 42.7367 60.165C43.3067 60.705 43.9967 61.155 44.8067 61.515C45.6467 61.845 46.8167 62.235 48.3167 62.685C50.3567 63.285 52.0217 63.885 53.3117 64.485C54.6017 65.085 55.7117 65.985 56.6417 67.185C57.5717 68.385 58.0367 69.96 58.0367 71.91C58.0367 73.59 57.6017 75.15 56.7317 76.59C55.8617 78.03 54.5867 79.185 52.9067 80.055C51.2267 80.895 49.2317 81.315 46.9217 81.315ZM82.3086 81L75.5136 70.425L69.3486 81H62.2386L72.1386 65.16L62.1036 49.59H69.3486L76.1436 60.12L82.2636 49.59H89.3736L79.5186 65.385L89.5536 81H82.3086Z" fill="white"/>
</svg>
