<svg width="100" height="125" viewBox="0 0 100 125" fill="none" xmlns="http://www.w3.org/2000/svg">
<path fill-rule="evenodd" clip-rule="evenodd" d="M53.0114 0.000865032C57.2538 -0.00565038 61.0191 -0.0114335 64.4965 1.42898C67.974 2.8694 70.6323 5.53589 73.6276 8.54038C79.5624 14.4935 85.5065 20.4376 91.4596 26.3724C94.4641 29.3677 97.1306 32.026 98.571 35.5035C100.011 38.9809 100.006 42.7462 99.9991 46.9886C99.975 62.7129 99.9982 78.4373 99.9983 94.1615C99.9986 99.702 99.9988 104.476 99.4849 108.299C98.9341 112.395 97.6919 116.323 94.5066 119.508C91.3213 122.693 87.3941 123.935 83.2972 124.486C79.4744 125 74.7006 125 69.1601 125H30.8382C25.2977 125 20.5239 125 16.701 124.486C12.6041 123.935 8.67701 122.693 5.49168 119.508C2.30635 116.323 1.06421 112.395 0.513399 108.299C-0.000564337 104.476 -0.000296178 99.7019 1.52505e-05 94.1615L3.31315e-05 31.2512C3.31315e-05 31.1136 2.56811e-05 30.9764 1.82306e-05 30.8398C-0.000292453 25.2993 -0.000559926 20.5256 0.513403 16.7028C1.06422 12.6059 2.30635 8.67873 5.49168 5.4934C8.67702 2.30807 12.6041 1.06593 16.701 0.515119C20.5238 0.00115639 25.2976 0.00142382 30.838 0.00173524C38.2291 0.00213814 45.6203 0.0122238 53.0114 0.000865032Z" fill="white"/>
<g clip-path="url(#clip0_812_5)">
<path d="M50.0283 40.2151C35.2774 40.2151 23.2717 52.2264 23.2717 66.9717C23.2717 81.717 35.283 93.7283 50.0283 93.7283C64.7736 93.7283 76.7849 81.717 76.7849 66.9717C76.7849 52.2264 64.7736 40.2151 50.0283 40.2151ZM49.9887 42.5924C50.4462 42.6043 50.8809 42.795 51.2003 43.1238C51.5196 43.4527 51.6983 43.8937 51.6981 44.3528C51.6981 44.8197 51.5126 45.2675 51.1825 45.5976C50.8524 45.9277 50.4046 46.1132 49.9377 46.1132C49.4709 46.1132 49.0231 45.9277 48.693 45.5976C48.3628 45.2675 48.1774 44.8197 48.1774 44.3528C48.1773 44.1173 48.2244 43.8841 48.3161 43.6672C48.4077 43.4502 48.5419 43.2538 48.7108 43.0897C48.8797 42.9255 49.0799 42.7969 49.2994 42.7115C49.5189 42.6261 49.7533 42.5856 49.9887 42.5924ZM54.0189 45.4906C57.1092 46.0694 60.0366 47.314 62.5975 49.138C65.1585 50.9619 67.2917 53.3215 68.8491 56.0528L66.7717 60.7396C66.4151 61.549 66.783 62.5 67.5868 62.8623L71.583 64.634C71.707 65.8831 71.7221 67.1407 71.6283 68.3924H69.4038C69.183 68.3924 69.0925 68.5396 69.0925 68.7547V69.7736C69.0925 72.1736 67.7396 72.7 66.5509 72.8302C65.4189 72.9604 64.1679 72.3547 64.0094 71.6641C63.3415 67.9113 62.2321 67.1132 60.4774 65.7264C62.6566 64.3453 64.9208 62.3019 64.9208 59.5736C64.9208 56.6245 62.9 54.7679 61.5245 53.8566C59.5887 52.583 57.4491 52.3283 56.8717 52.3283H33.8906C37.0683 48.7783 41.3278 46.375 46.0094 45.4906L48.7208 48.3321C49.3321 48.9717 50.3453 49 50.9849 48.383L54.0189 45.4906ZM29 58.5207C29.458 58.534 29.8928 58.7253 30.212 59.054C30.5312 59.3827 30.7096 59.8229 30.7094 60.2811C30.7094 60.748 30.524 61.1958 30.1938 61.5259C29.8637 61.856 29.4159 62.0415 28.9491 62.0415C28.4822 62.0415 28.0344 61.856 27.7043 61.5259C27.3741 61.1958 27.1887 60.748 27.1887 60.2811C27.1886 60.0456 27.2357 59.8124 27.3274 59.5955C27.419 59.3785 27.5533 59.1821 27.7222 59.018C27.8911 58.8538 28.0912 58.7252 28.3107 58.6398C28.5302 58.5544 28.7646 58.5139 29 58.5207ZM70.9717 58.6C71.4297 58.6133 71.8645 58.8046 72.1837 59.1333C72.5029 59.462 72.6813 59.9022 72.6811 60.3604C72.6811 60.8273 72.4957 61.275 72.1655 61.6051C71.8354 61.9353 71.3876 62.1207 70.9208 62.1207C70.4539 62.1207 70.0061 61.9353 69.676 61.6051C69.3458 61.275 69.1604 60.8273 69.1604 60.3604C69.1603 60.1248 69.2074 59.8917 69.2991 59.6747C69.3907 59.4578 69.525 59.2614 69.6939 59.0972C69.8628 58.9331 70.0629 58.8045 70.2824 58.7191C70.5019 58.6337 70.7363 58.5932 70.9717 58.6ZM32.317 58.883H35.3849V72.717H29.1925C28.4277 70.0314 28.1893 67.2232 28.4906 64.4472L32.283 62.7604C33.0925 62.3981 33.4604 61.4528 33.0981 60.6434L32.317 58.883ZM45.1208 59.0302H52.4283C52.8075 59.0302 55.0943 59.466 55.0943 61.1811C55.0943 62.6019 53.3396 63.1113 51.8962 63.1113H45.1151L45.1208 59.0302ZM45.1208 68.9698H50.7189C51.2283 68.9698 53.4528 69.117 54.1604 71.9585C54.3811 72.8302 54.8736 75.6717 55.2075 76.583C55.5415 77.6019 56.8943 79.6396 58.3377 79.6396H67.4736C66.8613 80.4596 66.1917 81.2351 65.4698 81.9604L61.7509 81.1623C60.8849 80.9755 60.0302 81.5302 59.8434 82.3962L58.9604 86.517C56.1209 87.8033 53.0372 88.4616 49.92 88.4469C46.8027 88.4322 43.7254 87.745 40.8981 86.4321L40.0151 82.3113C39.8283 81.4453 38.9792 80.8906 38.1132 81.0774L34.4736 81.8585C33.7982 81.1618 33.1704 80.4205 32.5943 79.6396H50.2943C50.4925 79.6396 50.6283 79.6057 50.6283 79.4189V73.1585C50.6283 72.9773 50.4925 72.9377 50.2943 72.9377H45.1151L45.1208 68.9698ZM36.9528 83.3075C37.4108 83.3208 37.8456 83.5121 38.1648 83.8408C38.484 84.1695 38.6625 84.6097 38.6623 85.0679C38.6623 85.5348 38.4768 85.9826 38.1467 86.3127C37.8165 86.6428 37.3688 86.8283 36.9019 86.8283C36.435 86.8283 35.9872 86.6428 35.6571 86.3127C35.327 85.9826 35.1415 85.5348 35.1415 85.0679C35.1414 84.8324 35.1886 84.5992 35.2802 84.3823C35.3718 84.1653 35.5061 83.9689 35.675 83.8048C35.8439 83.6406 36.044 83.512 36.2635 83.4266C36.483 83.3412 36.7174 83.3007 36.9528 83.3075ZM63.0189 83.3868C63.4769 83.4 63.9116 83.5913 64.2308 83.9201C64.55 84.2488 64.7285 84.689 64.7283 85.1472C64.7283 85.614 64.5428 86.0618 64.2127 86.3919C63.8826 86.7221 63.4348 86.9075 62.9679 86.9075C62.501 86.9075 62.0533 86.7221 61.7231 86.3919C61.393 86.0618 61.2075 85.614 61.2075 85.1472C61.2074 84.9116 61.2546 84.6785 61.3463 84.4615C61.4379 84.2445 61.5721 84.0482 61.741 83.884C61.9099 83.7199 62.1101 83.5913 62.3295 83.5059C62.549 83.4205 62.7834 83.38 63.0189 83.3868Z" fill="black"/>
<path fill-rule="evenodd" clip-rule="evenodd" d="M75.2906 66.9717C75.2906 73.6717 72.629 80.0972 67.8914 84.8348C63.1538 89.5724 56.7283 92.234 50.0283 92.234C43.3283 92.234 36.9028 89.5724 32.1652 84.8348C27.4276 80.0972 24.766 73.6717 24.766 66.9717C24.766 60.2717 27.4276 53.8462 32.1652 49.1086C36.9028 44.371 43.3283 41.7095 50.0283 41.7095C56.7283 41.7095 63.1538 44.371 67.8914 49.1086C72.629 53.8462 75.2906 60.2717 75.2906 66.9717ZM74.8151 64.5321L78.7547 66.9717L74.8151 69.4113L78.2 72.5755L73.8641 74.2L76.5698 77.9642L71.9906 78.7113L73.9151 82.934L69.2792 82.7698L70.3434 87.2868L65.8264 86.2227L65.9906 90.8585L61.7679 88.934L61.0207 93.5132L57.2566 90.8076L55.6321 95.1434L52.4679 91.7585L50.0283 95.6981L47.5887 91.7585L44.4245 95.1434L42.8 90.8076L39.0358 93.5132L38.2887 88.934L34.066 90.8585L34.2302 86.2227L29.7132 87.2868L30.7774 82.7698L26.1415 82.934L28.066 78.7113L23.4868 77.9642L26.1924 74.2L21.8566 72.5755L25.2415 69.4113L21.3019 66.9717L25.2415 64.5321L21.8566 61.3679L26.1924 59.7434L23.4868 55.9793L28.066 55.2321L26.1415 51.0095L30.7774 51.1736L29.7132 46.6566L34.2302 47.7208L34.066 43.0849L38.2887 45.0095L39.0358 40.4302L42.8 43.1359L44.4245 38.8L47.5887 42.1849L50.0283 38.2453L52.4679 42.1849L55.6321 38.8L57.2566 43.1359L61.0207 40.4302L61.7679 45.0095L65.9906 43.0849L65.8264 47.7208L70.3434 46.6566L69.2792 51.1736L73.9151 51.0095L71.9906 55.2321L76.5698 55.9793L73.8641 59.7434L78.2 61.3679L74.8151 64.5321Z" fill="black" stroke="black" stroke-width="3" stroke-linecap="round" stroke-linejoin="round"/>
</g>
<defs>
<clipPath id="clip0_812_5">
<rect width="60" height="60" fill="white" transform="translate(20 37)"/>
</clipPath>
</defs>
</svg>
