<svg width="100" height="125" viewBox="0 0 100 125" fill="none" xmlns="http://www.w3.org/2000/svg">
<path fill-rule="evenodd" clip-rule="evenodd" d="M53.0114 0.000865032C57.2538 -0.00565038 61.0191 -0.0114335 64.4965 1.42898C67.974 2.8694 70.6323 5.53589 73.6276 8.54038C79.5624 14.4935 85.5065 20.4376 91.4596 26.3724C94.4641 29.3677 97.1306 32.026 98.571 35.5035C100.011 38.9809 100.006 42.7462 99.9991 46.9886C99.975 62.7129 99.9982 78.4373 99.9983 94.1615C99.9986 99.702 99.9988 104.476 99.4849 108.299C98.9341 112.395 97.6919 116.323 94.5066 119.508C91.3213 122.693 87.3941 123.935 83.2972 124.486C79.4744 125 74.7006 125 69.1601 125H30.8382C25.2977 125 20.5239 125 16.701 124.486C12.6041 123.935 8.67701 122.693 5.49168 119.508C2.30635 116.323 1.06421 112.395 0.513399 108.299C-0.000564337 104.476 -0.000296178 99.7019 1.52505e-05 94.1615L3.31315e-05 31.2512C3.31315e-05 31.1136 2.56811e-05 30.9764 1.82306e-05 30.8398C-0.000292453 25.2993 -0.000559926 20.5256 0.513403 16.7028C1.06422 12.6059 2.30635 8.67873 5.49168 5.4934C8.67702 2.30807 12.6041 1.06593 16.701 0.515119C20.5238 0.00115639 25.2976 0.00142382 30.838 0.00173524C38.2291 0.00213814 45.6203 0.0122238 53.0114 0.000865032Z" fill="white"/>
<g clip-path="url(#clip0_410_3660)">
<path fill-rule="evenodd" clip-rule="evenodd" d="M50 38.8334C55.7686 38.8334 61.4077 40.544 66.2041 43.7488C71.0006 46.9537 74.7389 51.5089 76.9465 56.8384C79.154 62.168 79.7316 68.0324 78.6062 73.6902C77.4808 79.348 74.703 84.545 70.624 88.624C66.5449 92.703 61.3479 95.4809 55.6901 96.6063C50.0324 97.7317 44.1679 97.1541 38.8384 94.9465C33.5089 92.739 28.9537 89.0006 25.7488 84.2042C22.5439 79.4077 20.8333 73.7687 20.8333 68C20.8333 60.2646 23.9062 52.8459 29.3761 47.3761C34.8459 41.9063 42.2645 38.8334 50 38.8334Z" fill="#CC6699"/>
<path d="M68.2958 51.3167C66.975 46.1375 58.3854 44.4417 50.2562 47.3208C45.1652 49.0315 40.4616 51.7296 36.4146 55.2604C31.9375 59.4479 31.2229 63.0937 31.5167 64.6167C32.5583 69.9917 39.9187 73.5041 42.9458 76.1104V76.125C42.0542 76.5646 35.5208 79.875 33.9875 83.25C32.375 86.8166 34.2437 89.375 35.4833 89.7187C37.3444 90.1668 39.2991 90.021 41.0731 89.3017C42.8471 88.5825 44.3514 87.3259 45.375 85.7083C46.2209 84.3977 46.7502 82.9082 46.9209 81.3577C47.0916 79.8072 46.899 78.2382 46.3583 76.775C47.8164 76.4045 49.332 76.3175 50.8229 76.5187C55.9396 77.1167 56.9437 80.3104 56.7521 81.6479C56.6619 82.124 56.4703 82.5751 56.1903 82.9705C55.9102 83.366 55.5483 83.6965 55.1292 83.9396C54.7708 84.1625 54.6604 84.2375 54.6917 84.4042C54.7354 84.6437 54.9 84.6354 55.2063 84.5833C55.9752 84.3411 56.6527 83.8717 57.1495 83.2369C57.6464 82.6021 57.9393 81.8316 57.9896 81.0271C58.1125 77.9021 55.1104 74.3896 49.7937 74.4792C48.2496 74.4351 46.7087 74.6462 45.2333 75.1041C45.1595 75.0198 45.0845 74.9364 45.0083 74.8542C41.7208 71.3479 35.6458 68.8666 35.9021 64.1521C35.9958 62.4375 36.5917 57.925 47.5688 52.45C56.5688 47.9646 63.7729 49.2 65.0188 51.9354C66.7979 55.8437 61.1687 63.1041 51.8229 64.1521C50.7899 64.3618 49.723 64.3362 48.7013 64.0772C47.6795 63.8183 46.7292 63.3326 45.9208 62.6562C45.4292 62.1146 45.3562 62.0916 45.1729 62.1916C44.875 62.3562 45.0646 62.8354 45.1729 63.1187C45.5308 63.7637 46.0138 64.3307 46.5937 64.7865C47.1737 65.2422 47.8387 65.5776 48.55 65.7729C52.2245 66.5713 56.0572 66.1923 59.5042 64.6896C65.1729 62.5042 69.5938 56.4104 68.2958 51.3167ZM44.2042 77.7146C44.618 79.141 44.5969 80.6585 44.1437 82.0729C44.0951 82.2201 44.0417 82.366 43.9833 82.5104C43.925 82.6548 43.8618 82.7937 43.7937 82.9271C43.4431 83.6444 42.989 84.3064 42.4458 84.8916C40.7521 86.7396 38.3833 87.4396 37.3687 86.85C36.2729 86.2146 36.8208 83.6083 38.7854 81.5312C40.295 80.0385 42.0354 78.799 43.9396 77.8604L44.2042 77.7146Z" fill="white"/>
</g>
<defs>
<clipPath id="clip0_410_3660">
<rect width="60" height="60" fill="white" transform="translate(20 38)"/>
</clipPath>
</defs>
</svg>
