<svg width="100" height="125" viewBox="0 0 100 125" fill="none" xmlns="http://www.w3.org/2000/svg">
<path fill-rule="evenodd" clip-rule="evenodd" d="M53.0114 0.000865032C57.2538 -0.00565038 61.0191 -0.0114335 64.4965 1.42898C67.974 2.8694 70.6323 5.53589 73.6276 8.54038C79.5624 14.4935 85.5065 20.4376 91.4596 26.3724C94.4641 29.3677 97.1306 32.026 98.571 35.5035C100.011 38.9809 100.006 42.7462 99.9991 46.9886C99.975 62.7129 99.9982 78.4373 99.9983 94.1615C99.9986 99.702 99.9988 104.476 99.4849 108.299C98.9341 112.395 97.6919 116.323 94.5066 119.508C91.3213 122.693 87.3941 123.935 83.2972 124.486C79.4744 125 74.7006 125 69.1601 125H30.8382C25.2977 125 20.5239 125 16.701 124.486C12.6041 123.935 8.67701 122.693 5.49168 119.508C2.30635 116.323 1.06421 112.395 0.513399 108.299C-0.000564337 104.476 -0.000296178 99.7019 1.52505e-05 94.1615L3.31315e-05 31.2512C3.31315e-05 31.1136 2.56811e-05 30.9764 1.82306e-05 30.8398C-0.000292453 25.2993 -0.000559926 20.5256 0.513403 16.7028C1.06422 12.6059 2.30635 8.67873 5.49168 5.4934C8.67702 2.30807 12.6041 1.06593 16.701 0.515119C20.5238 0.00115639 25.2976 0.00142382 30.838 0.00173524C38.2291 0.00213814 45.6203 0.0122238 53.0114 0.000865032Z" fill="#007ACC"/>
<path d="M68.8165 53.9375C70.7983 54.3991 72.599 55.437 73.9915 56.9206C74.7586 57.7209 75.4253 58.6117 75.9766 59.5734C76.002 59.6787 72.402 62.1137 70.221 63.4492C70.1411 63.5 69.8254 63.1589 69.4734 62.6363C69.0755 61.9495 68.5099 61.3749 67.8296 60.9662C67.1492 60.5574 66.3763 60.328 65.5831 60.2992C63.0718 60.1287 61.4569 61.4424 61.4714 63.6379C61.4523 64.1776 61.5776 64.7125 61.8343 65.1875C62.3859 66.3307 63.4093 67.0021 66.6282 68.4065C72.5544 70.9468 75.0911 72.6379 76.6661 75.0295C77.5518 76.5402 78.0965 78.2263 78.262 79.9696C78.4275 81.713 78.2098 83.4714 77.6242 85.1218C76.822 86.9324 75.5498 88.4953 73.9398 89.6484C72.3298 90.8015 70.4406 91.5028 68.4681 91.6795C66.3712 91.9201 64.2524 91.8981 62.1609 91.6142C58.9565 91.0909 56.0036 89.556 53.7343 87.2339C52.878 86.2691 52.1532 85.1953 51.5786 84.0404C51.8204 83.8598 52.0751 83.6973 52.3407 83.5541L55.4145 81.7795L57.7915 80.4004L58.2923 81.1262C59.1304 82.326 60.1972 83.3484 61.4315 84.1347C62.6797 84.8194 64.0936 85.144 65.5154 85.0722C66.9373 85.0004 68.3113 84.5352 69.4843 83.7283C70.0863 83.1388 70.4622 82.3566 70.5464 81.5183C70.6306 80.6799 70.4178 79.8386 69.9452 79.1412C69.3028 78.223 67.9891 77.4464 64.2548 75.8315C61.3295 74.8413 58.6659 73.2024 56.4633 71.0375C55.4134 69.8407 54.638 68.4286 54.1915 66.9004C53.8612 65.1594 53.8122 63.3767 54.0464 61.6202C54.4849 59.5982 55.5344 57.76 57.0528 56.3546C58.5712 54.9492 60.4849 54.0445 62.5347 53.7633C64.6255 53.5055 66.7432 53.5642 68.8165 53.9375ZM49.3831 57.3924L49.4085 60.7819H38.6375V91.3964H31.0165V60.7819H20.2419V57.4758C20.2124 56.3367 20.2427 55.1969 20.3327 54.0609C20.3726 54.0101 26.9266 53.9811 34.8778 53.9956L49.3431 54.0355L49.3831 57.3924Z" fill="white"/>
</svg>
