<svg width="100" height="125" viewBox="0 0 100 125" fill="none" xmlns="http://www.w3.org/2000/svg">
<path fillRule="evenodd" clipRule="evenodd" d="M53.0114 0.000865032C57.2538 -0.00565038 61.0191 -0.0114335 64.4965 1.42898C67.974 2.8694 70.6323 5.53589 73.6276 8.54038C79.5624 14.4935 85.5065 20.4376 91.4596 26.3724C94.4641 29.3677 97.1306 32.026 98.571 35.5035C100.011 38.9809 100.006 42.7462 99.9991 46.9886C99.975 62.7129 99.9982 78.4373 99.9983 94.1615C99.9986 99.702 99.9988 104.476 99.4849 108.299C98.9341 112.395 97.6919 116.323 94.5066 119.508C91.3213 122.693 87.3941 123.935 83.2972 124.486C79.4744 125 74.7006 125 69.1601 125H30.8382C25.2977 125 20.5239 125 16.701 124.486C12.6041 123.935 8.67701 122.693 5.49168 119.508C2.30635 116.323 1.06421 112.395 0.513399 108.299C-0.000564337 104.476 -0.000296178 99.7019 1.52505e-05 94.1615L3.31315e-05 31.2512C3.31315e-05 31.1136 2.56811e-05 30.9764 1.82306e-05 30.8398C-0.000292453 25.2993 -0.000559926 20.5256 0.513403 16.7028C1.06422 12.6059 2.30635 8.67873 5.49168 5.4934C8.67702 2.30807 12.6041 1.06593 16.701 0.515119C20.5238 0.00115639 25.2976 0.00142382 30.838 0.00173524C38.2291 0.00213814 45.6203 0.0122238 53.0114 0.000865032Z" fill="#5673B5"/>
<path d="M0 46H92V86H0V46Z" fill="white"/>
<path d="M24.39 56.06C26.59 56.06 28.52 56.49 30.18 57.35C31.86 58.21 33.15 59.44 34.05 61.04C34.97 62.62 35.43 64.46 35.43 66.56C35.43 68.66 34.97 70.5 34.05 72.08C33.15 73.64 31.86 74.85 30.18 75.71C28.52 76.57 26.59 77 24.39 77H17.07V56.06H24.39ZM24.24 73.43C26.44 73.43 28.14 72.83 29.34 71.63C30.54 70.43 31.14 68.74 31.14 66.56C31.14 64.38 30.54 62.68 29.34 61.46C28.14 60.22 26.44 59.6 24.24 59.6H21.27V73.43H24.24ZM48.2939 77.21C46.3339 77.21 44.5339 76.75 42.8939 75.83C41.2539 74.91 39.9539 73.64 38.9939 72.02C38.0339 70.38 37.5539 68.53 37.5539 66.47C37.5539 64.43 38.0339 62.6 38.9939 60.98C39.9539 59.34 41.2539 58.06 42.8939 57.14C44.5339 56.22 46.3339 55.76 48.2939 55.76C50.2739 55.76 52.0739 56.22 53.6939 57.14C55.3339 58.06 56.6239 59.34 57.5639 60.98C58.5239 62.6 59.0039 64.43 59.0039 66.47C59.0039 68.53 58.5239 70.38 57.5639 72.02C56.6239 73.64 55.3339 74.91 53.6939 75.83C52.0539 76.75 50.2539 77.21 48.2939 77.21ZM48.2939 73.46C49.5539 73.46 50.6639 73.18 51.6239 72.62C52.5839 72.04 53.3339 71.22 53.8739 70.16C54.4139 69.1 54.6839 67.87 54.6839 66.47C54.6839 65.07 54.4139 63.85 53.8739 62.81C53.3339 61.75 52.5839 60.94 51.6239 60.38C50.6639 59.82 49.5539 59.54 48.2939 59.54C47.0339 59.54 45.9139 59.82 44.9339 60.38C43.9739 60.94 43.2239 61.75 42.6839 62.81C42.1439 63.85 41.8739 65.07 41.8739 66.47C41.8739 67.87 42.1439 69.1 42.6839 70.16C43.2239 71.22 43.9739 72.04 44.9339 72.62C45.9139 73.18 47.0339 73.46 48.2939 73.46ZM61.1086 66.5C61.1086 64.44 61.5686 62.6 62.4886 60.98C63.4286 59.34 64.6986 58.07 66.2986 57.17C67.9186 56.25 69.7286 55.79 71.7286 55.79C74.0686 55.79 76.1186 56.39 77.8786 57.59C79.6386 58.79 80.8686 60.45 81.5686 62.57H76.7386C76.2586 61.57 75.5786 60.82 74.6986 60.32C73.8386 59.82 72.8386 59.57 71.6986 59.57C70.4786 59.57 69.3886 59.86 68.4286 60.44C67.4886 61 66.7486 61.8 66.2086 62.84C65.6886 63.88 65.4286 65.1 65.4286 66.5C65.4286 67.88 65.6886 69.1 66.2086 70.16C66.7486 71.2 67.4886 72.01 68.4286 72.59C69.3886 73.15 70.4786 73.43 71.6986 73.43C72.8386 73.43 73.8386 73.18 74.6986 72.68C75.5786 72.16 76.2586 71.4 76.7386 70.4H81.5686C80.8686 72.54 79.6386 74.21 77.8786 75.41C76.1386 76.59 74.0886 77.18 71.7286 77.18C69.7286 77.18 67.9186 76.73 66.2986 75.83C64.6986 74.91 63.4286 73.64 62.4886 72.02C61.5686 70.4 61.1086 68.56 61.1086 66.5Z" fill="#5673B5"/>
</svg>
