<svg width="20" height="20" viewBox="0 0 20 20" fill="none" xmlns="http://www.w3.org/2000/svg">
  <path
    d="M17.5001 7.19157V6.20824C17.4966 5.87885 17.4688 5.55017 17.4167 5.2249C17.3584 4.89157 17.2584 4.59157 17.1084 4.29157C16.8075 3.69901 16.326 3.21748 15.7334 2.91657C15.4334 2.76657 15.1251 2.66657 14.8001 2.60824C14.4748 2.5562 14.1461 2.52835 13.8167 2.5249H6.22508C5.90008 2.53324 5.56675 2.5499 5.24175 2.60824C4.90841 2.66657 4.60841 2.76657 4.30841 2.91657C3.71675 3.21657 3.23341 3.6999 2.93341 4.29157C2.78341 4.59157 2.68341 4.8999 2.62508 5.2249C2.56675 5.5499 2.55008 5.88324 2.54175 6.20824V13.7916C2.55008 14.1166 2.56675 14.4499 2.62508 14.7749C2.68341 15.1082 2.78341 15.4082 2.93341 15.7082C3.23341 16.2999 3.71675 16.7832 4.30841 17.0832C4.60841 17.2332 4.91675 17.3332 5.24175 17.3916C5.56675 17.4499 5.90008 17.4666 6.22508 17.4749H13.8167C14.1417 17.4666 14.4751 17.4499 14.8001 17.3916C15.1334 17.3332 15.4334 17.2332 15.7334 17.0832C16.326 16.7823 16.8075 16.3008 17.1084 15.7082C17.2584 15.4082 17.3584 15.0999 17.4167 14.7749C17.4751 14.4499 17.4917 14.1166 17.5001 13.7916V7.18324V7.19157ZM13.4834 12.2582C13.4834 12.4499 13.4834 12.6166 13.4417 12.8082C13.4001 12.9916 13.3334 13.1666 13.2251 13.3249C13.1167 13.4832 12.9751 13.6082 12.8167 13.7082C12.6501 13.8082 12.4834 13.8582 12.3001 13.8999C11.9501 13.9666 11.7167 13.9832 11.4917 13.9416C11.2887 13.9034 11.1007 13.808 10.9501 13.6666C10.7334 13.4666 10.6001 13.1999 10.5751 12.9249C10.5417 12.5999 10.6501 12.2499 10.8917 11.9916C11.0167 11.8582 11.1751 11.7582 11.3751 11.6749C11.5917 11.5916 11.8334 11.5416 12.2001 11.4666L12.4917 11.4082C12.6167 11.3832 12.7251 11.3499 12.8167 11.2416C12.9084 11.1332 12.9084 10.9999 12.9084 10.8666V7.56657C12.9084 7.31657 12.7917 7.24157 12.5501 7.29157C12.3751 7.3249 8.67508 8.0749 8.67508 8.0749C8.46675 8.1249 8.39175 8.19157 8.39175 8.4499V13.2916C8.39175 13.4832 8.38341 13.6499 8.34175 13.8416C8.30008 14.0249 8.23341 14.1999 8.12508 14.3582C8.01675 14.5166 7.87508 14.6416 7.71675 14.7416C7.55008 14.8416 7.38341 14.8999 7.20008 14.9332C6.85841 14.9999 6.61675 15.0166 6.39175 14.9749C6.17508 14.9332 6.00008 14.8332 5.85008 14.6999C5.63341 14.4999 5.50841 14.2332 5.48341 13.9582C5.45008 13.6332 5.55008 13.2832 5.79175 13.0249C5.91675 12.8916 6.07508 12.7916 6.27508 12.7082C6.49175 12.6249 6.73341 12.5749 7.10008 12.4999L7.39175 12.4416C7.51675 12.4166 7.62508 12.3832 7.71675 12.2749C7.80841 12.1666 7.81675 12.0416 7.81675 11.9082V6.3249C7.81675 6.2499 7.81675 6.1999 7.82508 6.1749C7.84175 6.05824 7.89175 5.95824 7.97508 5.88324C8.04175 5.8249 8.13341 5.78324 8.25008 5.75824L12.7084 4.85824C12.7501 4.85824 13.0667 4.79157 13.1084 4.79157C13.3501 4.7749 13.4834 4.9249 13.4834 5.18324V12.2582Z"
    fill="black" />
</svg>