<svg width="16" height="16" viewBox="0 0 16 16" fill="none" xmlns="http://www.w3.org/2000/svg">
  <path
    d="M5.96967 6.66737C6.16858 6.66737 6.35935 6.72757 6.5 6.83474C6.64065 6.9419 6.71967 7.08724 6.71967 7.2388V12.5721C6.71967 12.7237 6.64065 12.869 6.5 12.9762C6.35935 13.0834 6.16858 13.1436 5.96967 13.1436C5.77076 13.1436 5.57999 13.0834 5.43934 12.9762C5.29869 12.869 5.21967 12.7237 5.21967 12.5721V7.2388C5.21967 7.08724 5.29869 6.9419 5.43934 6.83474C5.57999 6.72757 5.77076 6.66737 5.96967 6.66737ZM10.7197 7.2388C10.7197 7.08724 10.6407 6.9419 10.5 6.83474C10.3593 6.72757 10.1686 6.66737 9.96967 6.66737C9.77076 6.66737 9.57999 6.72757 9.43934 6.83474C9.29869 6.9419 9.21967 7.08724 9.21967 7.2388V12.5721C9.21967 12.7237 9.29869 12.869 9.43934 12.9762C9.57999 13.0834 9.77076 13.1436 9.96967 13.1436C10.1686 13.1436 10.3593 13.0834 10.5 12.9762C10.6407 12.869 10.7197 12.7237 10.7197 12.5721V7.2388Z"
    fill="black" />
  <path
    d="M6.19355 0C6.01389 0 5.84158 0.0611011 5.71454 0.169862C5.5875 0.278623 5.51613 0.426134 5.51613 0.579945V1.15989H1.67742C1.49776 1.15989 1.32545 1.22099 1.19841 1.32975C1.07137 1.43851 1 1.58602 1 1.73984C1 1.89365 1.07137 2.04116 1.19841 2.14992C1.32545 2.25868 1.49776 2.31978 1.67742 2.31978H14.3226C14.5022 2.31978 14.6745 2.25868 14.8016 2.14992C14.9286 2.04116 15 1.89365 15 1.73984C15 1.58602 14.9286 1.43851 14.8016 1.32975C14.6745 1.22099 14.5022 1.15989 14.3226 1.15989H10.4839V0.579945C10.4839 0.426134 10.4125 0.278623 10.2855 0.169862C10.1584 0.0611011 9.98611 0 9.80645 0H6.19355Z"
    fill="black" />
  <path fill-rule="evenodd" clip-rule="evenodd"
    d="M2.437 4.52507C2.45591 4.38061 2.53684 4.24716 2.66427 4.15027C2.7917 4.05339 2.95668 3.99988 3.12762 4H12.8722C13.0431 3.99988 13.2081 4.05339 13.3355 4.15027C13.463 4.24716 13.5439 4.38061 13.5628 4.52507L13.748 5.94364C14.084 8.51391 14.084 11.1078 13.748 13.6789L13.7294 13.8182C13.665 14.3143 13.4079 14.7779 12.9988 15.1358C12.5897 15.4937 12.0519 15.7253 11.4706 15.7941C9.16806 16.0686 6.83175 16.0686 4.52922 15.7941C3.94789 15.7253 3.41012 15.4937 3.001 15.1358C2.59189 14.7779 2.33478 14.3143 2.27036 13.8182L2.25184 13.6789C1.91605 11.1084 1.91605 8.51414 2.25184 5.94364L2.437 4.52507ZM3.7488 5.18083L3.63216 6.07353C3.30767 8.55744 3.30767 11.0643 3.63216 13.5482L3.65067 13.6875C3.68084 13.9229 3.80262 14.143 3.99666 14.3129C4.19071 14.4827 4.44592 14.5926 4.72178 14.6251C6.89732 14.8841 9.10341 14.8841 11.278 14.6251C11.5537 14.5927 11.8088 14.4829 12.0029 14.3132C12.1969 14.1435 12.3188 13.9236 12.3491 13.6883L12.3677 13.5482C12.6917 11.0645 12.6917 8.55721 12.3677 6.07353L12.251 5.18083H3.7488Z"
    fill="black" />
</svg>